<svg width="41" height="60" viewBox="0 0 41 60" fill="none" xmlns="http://www.w3.org/2000/svg">
<path d="M33.4095 1H7.89596C4.37328 1 1.51758 3.8557 1.51758 7.37838V52.027C1.51758 55.5497 4.37328 58.4054 7.89596 58.4054H33.4095C36.9322 58.4054 39.7879 55.5497 39.7879 52.027V7.37838C39.7879 3.8557 36.9322 1 33.4095 1Z" fill="white" stroke="#172B3E" stroke-width="2"/>
<path d="M33.4093 4.18921H7.89573C6.13439 4.18921 4.70654 5.61706 4.70654 7.3784V52.0271C4.70654 53.7884 6.13439 55.2162 7.89573 55.2162H33.4093C35.1706 55.2162 36.5984 53.7884 36.5984 52.0271V7.3784C36.5984 5.61706 35.1706 4.18921 33.4093 4.18921Z" fill="#172B3E"/>
<path fill-rule="evenodd" clip-rule="evenodd" d="M30.2201 13.7568C16.1293 13.7568 4.70654 25.1796 4.70654 39.2704C4.70654 42.793 7.56224 45.6487 11.0849 45.6487C25.1756 45.6487 36.5984 34.2259 36.5984 20.1352C36.5984 16.6125 33.7427 13.7568 30.2201 13.7568Z" fill="white"/>
<path fill-rule="evenodd" clip-rule="evenodd" d="M20.6528 20.135C17.1301 20.135 14.2744 22.9907 14.2744 26.5134V32.8918C14.2744 36.4145 17.1301 39.2701 20.6528 39.2701C24.1755 39.2701 27.0312 36.4145 27.0312 32.8918V26.5134C27.0312 22.9907 24.1755 20.135 20.6528 20.135ZM20.6528 23.3242C22.4141 23.3242 23.842 24.7521 23.842 26.5134V32.8918C23.842 34.6531 22.4141 36.081 20.6528 36.081C18.8915 36.081 17.4636 34.6531 17.4636 32.8918V26.5134C17.4636 24.7521 18.8915 23.3242 20.6528 23.3242Z" fill="#172B3E"/>
<path fill-rule="evenodd" clip-rule="evenodd" d="M9.49046 5.78394C7.72911 5.78394 6.30127 7.21178 6.30127 8.97313V12.1623C6.30127 13.9237 7.72911 15.3515 9.49046 15.3515C11.2518 15.3515 12.6796 13.9237 12.6796 12.1623V8.97313C12.6796 7.21178 11.2518 5.78394 9.49046 5.78394ZM9.49046 7.37853C10.3711 7.37853 11.0851 8.09246 11.0851 8.97313V12.1623C11.0851 13.043 10.3711 13.7569 9.49046 13.7569C8.60979 13.7569 7.89586 13.043 7.89586 12.1623V8.97313C7.89586 8.09246 8.60979 7.37853 9.49046 7.37853Z" fill="white"/>
<path fill-rule="evenodd" clip-rule="evenodd" d="M31.8147 44.054C30.0533 44.054 28.6255 45.4818 28.6255 47.2431V50.4323C28.6255 52.1937 30.0533 53.6215 31.8147 53.6215C33.576 53.6215 35.0039 52.1937 35.0039 50.4323V47.2431C35.0039 45.4818 33.576 44.054 31.8147 44.054ZM31.8147 45.6486C32.6953 45.6486 33.4093 46.3625 33.4093 47.2431V50.4323C33.4093 51.313 32.6953 52.0269 31.8147 52.0269C30.934 52.0269 30.2201 51.313 30.2201 50.4323V47.2431C30.2201 46.3625 30.934 45.6486 31.8147 45.6486Z" fill="white"/>
</svg>
