<svg width="42" height="60" viewBox="0 0 42 60" fill="none" xmlns="http://www.w3.org/2000/svg">
<path d="M33.8421 1H8.32858C4.80589 1 1.9502 3.8557 1.9502 7.37838V52.027C1.9502 55.5497 4.80589 58.4054 8.32858 58.4054H33.8421C37.3648 58.4054 40.2205 55.5497 40.2205 52.027V7.37838C40.2205 3.8557 37.3648 1 33.8421 1Z" fill="white" stroke="#172B3E" stroke-width="2"/>
<path d="M33.8419 4.18921H8.32835C6.56701 4.18921 5.13916 5.61706 5.13916 7.3784V52.0271C5.13916 53.7884 6.56701 55.2162 8.32835 55.2162H33.8419C35.6032 55.2162 37.0311 53.7884 37.0311 52.0271V7.3784C37.0311 5.61706 35.6032 4.18921 33.8419 4.18921Z" fill="#172B3E"/>
<path fill-rule="evenodd" clip-rule="evenodd" d="M30.6527 13.7568C16.562 13.7568 5.13916 25.1796 5.13916 39.2704C5.13916 42.793 7.99486 45.6487 11.5175 45.6487C25.6083 45.6487 37.0311 34.2259 37.0311 20.1352C37.0311 16.6125 34.1754 13.7568 30.6527 13.7568Z" fill="white"/>
<path fill-rule="evenodd" clip-rule="evenodd" d="M19.8093 20.135L16.6201 23.3242V27.1512L19.8093 23.962V39.2701H22.9985V20.135H19.8093Z" fill="#172B3E"/>
<path fill-rule="evenodd" clip-rule="evenodd" d="M8.32848 5.78394L6.73389 7.37853V9.29204L8.32848 7.69745V15.3515H9.92308V5.78394H8.32848Z" fill="white"/>
<path fill-rule="evenodd" clip-rule="evenodd" d="M33.8417 53.6215L35.4363 52.0269V50.1134L33.8417 51.708V44.054H32.2471V53.6215H33.8417Z" fill="white"/>
</svg>
