<svg width="41" height="60" viewBox="0 0 41 60" fill="none" xmlns="http://www.w3.org/2000/svg">
<path d="M33.2742 1H7.7607C4.23802 1 1.38232 3.8557 1.38232 7.37838V52.027C1.38232 55.5497 4.23802 58.4054 7.7607 58.4054H33.2742C36.7969 58.4054 39.6526 55.5497 39.6526 52.027V7.37838C39.6526 3.8557 36.7969 1 33.2742 1Z" fill="white" stroke="#172B3E" stroke-width="2"/>
<path d="M33.2745 4.18921H7.76097C5.99963 4.18921 4.57178 5.61706 4.57178 7.3784V52.0271C4.57178 53.7884 5.99963 55.2162 7.76097 55.2162H33.2745C35.0358 55.2162 36.4637 53.7884 36.4637 52.0271V7.3784C36.4637 5.61706 35.0358 4.18921 33.2745 4.18921Z" fill="#172B3E"/>
<path fill-rule="evenodd" clip-rule="evenodd" d="M30.0853 13.7568C15.9946 13.7568 4.57178 25.1796 4.57178 39.2704C4.57178 42.793 7.42747 45.6487 10.9502 45.6487C25.0409 45.6487 36.4637 34.2259 36.4637 20.1352C36.4637 16.6125 33.608 13.7568 30.0853 13.7568Z" fill="white"/>
<path d="M19.8798 20.135C16.3462 20.135 13.5015 22.9798 13.5015 26.5134V27.1512H16.6907V26.5134C16.6907 24.7466 18.113 23.3242 19.8798 23.3242C21.6467 23.3242 23.069 24.7466 23.069 26.5134C23.069 27.2326 22.4723 28.6439 21.8492 29.1343C18.4656 31.7972 18.5013 31.3574 13.5015 34.8053V39.2701H19.8798H26.2582V36.081V34.8053H23.069V36.081H19.8798H17.3285C21.2768 33.3008 21.5655 33.3682 24.6592 30.5995C25.6505 29.7125 26.2582 27.9518 26.2582 26.5134C26.2582 22.9798 23.4135 20.135 19.8798 20.135Z" fill="#172B3E"/>
<path d="M9.35521 5.78394C7.58839 5.78394 6.16602 7.20631 6.16602 8.97313V9.29204H7.76061V8.97313C7.76061 8.08972 8.4718 7.37853 9.35521 7.37853C10.2386 7.37853 10.9498 8.08972 10.9498 8.97313C10.9498 9.33271 10.6514 10.0384 10.3399 10.2836C8.64808 11.615 8.66594 11.3951 6.16602 13.1191V15.3515H9.35521H12.5444V13.7569V13.1191H10.9498V13.7569H9.35521H8.07953C10.0537 12.3668 10.198 12.4005 11.7449 11.0162C12.2405 10.5727 12.5444 9.69235 12.5444 8.97313C12.5444 7.20631 11.122 5.78394 9.35521 5.78394Z" fill="white"/>
<path d="M31.6799 53.6215C33.4467 53.6215 34.8691 52.1991 34.8691 50.4323V50.1134H33.2745V50.4323C33.2745 51.3157 32.5633 52.0269 31.6799 52.0269C30.7965 52.0269 30.0853 51.3157 30.0853 50.4323C30.0853 50.0728 30.3837 49.3671 30.6952 49.1219C32.387 47.7904 32.3692 48.0103 34.8691 46.2864V44.054H31.6799H28.4907V45.6486V46.2864H30.0853V45.6486H31.6799H32.9556C30.9815 47.0386 30.8371 47.0049 29.2902 48.3892C28.7946 48.8328 28.4907 49.7131 28.4907 50.4323C28.4907 52.1991 29.9131 53.6215 31.6799 53.6215Z" fill="white"/>
</svg>
