<svg width="42" height="60" viewBox="0 0 42 60" fill="none" xmlns="http://www.w3.org/2000/svg">
<path d="M33.7068 1H8.19332C4.67064 1 1.81494 3.8557 1.81494 7.37838V52.027C1.81494 55.5497 4.67064 58.4054 8.19332 58.4054H33.7068C37.2295 58.4054 40.0852 55.5497 40.0852 52.027V7.37838C40.0852 3.8557 37.2295 1 33.7068 1Z" fill="white" stroke="#172B3E" stroke-width="2"/>
<path d="M33.7066 4.18921H8.1931C6.43176 4.18921 5.00391 5.61706 5.00391 7.3784V52.0271C5.00391 53.7884 6.43176 55.2162 8.1931 55.2162H33.7066C35.468 55.2162 36.8958 53.7884 36.8958 52.0271V7.3784C36.8958 5.61706 35.468 4.18921 33.7066 4.18921Z" fill="#172B3E"/>
<path fill-rule="evenodd" clip-rule="evenodd" d="M30.5174 13.7568C16.4267 13.7568 5.00391 25.1796 5.00391 39.2704C5.00391 42.793 7.8596 45.6487 11.3823 45.6487C25.473 45.6487 36.8958 34.2259 36.8958 20.1352C36.8958 16.6125 34.0401 13.7568 30.5174 13.7568Z" fill="white"/>
<path d="M20.9502 20.135C18.3081 20.135 16.1664 22.2768 16.1664 24.9188H19.3556C19.3556 24.0381 20.0695 23.3242 20.9502 23.3242C21.8308 23.3242 22.5448 24.0381 22.5448 24.9188C22.5448 25.7995 21.8308 26.5134 20.9502 26.5134H19.0366V29.7026H20.9502C22.717 29.7026 24.1393 31.125 24.1393 32.8918C24.1393 34.6586 22.717 36.081 20.9502 36.081C19.1833 36.081 17.761 34.6586 17.761 32.8918H14.5718C14.5718 36.4254 17.4165 39.2701 20.9502 39.2701C24.4838 39.2701 27.3285 36.4254 27.3285 32.8918C27.3285 30.7908 26.3154 28.9499 24.7573 27.7891C25.3644 26.9871 25.7339 26.0023 25.7339 24.9188C25.7339 22.2768 23.5922 20.135 20.9502 20.135Z" fill="#172B3E"/>
<path d="M9.78782 5.78394C8.46682 5.78394 7.39593 6.85482 7.39593 8.17583H8.99053C8.99053 7.73549 9.34749 7.37853 9.78782 7.37853C10.2282 7.37853 10.5851 7.73549 10.5851 8.17583C10.5851 8.61616 10.2282 8.97313 9.78782 8.97313H8.83107V10.5677H9.78782C10.6712 10.5677 11.3824 11.2789 11.3824 12.1623C11.3824 13.0457 10.6712 13.7569 9.78782 13.7569C8.90442 13.7569 8.19323 13.0457 8.19323 12.1623H6.59863C6.59863 13.9291 8.02101 15.3515 9.78782 15.3515C11.5546 15.3515 12.977 13.9291 12.977 12.1623C12.977 11.1118 12.4705 10.1914 11.6914 9.61096C11.995 9.20995 12.1797 8.71757 12.1797 8.17583C12.1797 6.85482 11.1088 5.78394 9.78782 5.78394Z" fill="white"/>
<path d="M32.112 53.6215C33.433 53.6215 34.5039 52.5506 34.5039 51.2296H32.9093C32.9093 51.67 32.5524 52.0269 32.112 52.0269C31.6717 52.0269 31.3147 51.67 31.3147 51.2296C31.3147 50.7893 31.6717 50.4323 32.112 50.4323H33.0688V48.8377H32.112C31.2286 48.8377 30.5174 48.1266 30.5174 47.2431C30.5174 46.3597 31.2286 45.6486 32.112 45.6486C32.9954 45.6486 33.7066 46.3597 33.7066 47.2431H35.3012C35.3012 45.4763 33.8789 44.054 32.112 44.054C30.3452 44.054 28.9229 45.4763 28.9229 47.2431C28.9229 48.2936 29.4294 49.2141 30.2085 49.7945C29.9049 50.1955 29.7201 50.6879 29.7201 51.2296C29.7201 52.5506 30.791 53.6215 32.112 53.6215Z" fill="white"/>
</svg>
