<svg width="41" height="61" viewBox="0 0 41 61" fill="none" xmlns="http://www.w3.org/2000/svg">
<path d="M33.4095 1.75659H7.89596C4.37328 1.75659 1.51758 4.61229 1.51758 8.13497V52.7836C1.51758 56.3063 4.37328 59.162 7.89596 59.162H33.4095C36.9322 59.162 39.7879 56.3063 39.7879 52.7836V8.13497C39.7879 4.61229 36.9322 1.75659 33.4095 1.75659Z" fill="white" stroke="#172B3E" stroke-width="2"/>
<path d="M33.4093 4.9458H7.89573C6.13439 4.9458 4.70654 6.37365 4.70654 8.13499V52.7836C4.70654 54.545 6.13439 55.9728 7.89573 55.9728H33.4093C35.1706 55.9728 36.5984 54.545 36.5984 52.7836V8.13499C36.5984 6.37365 35.1706 4.9458 33.4093 4.9458Z" fill="#172B3E"/>
<path fill-rule="evenodd" clip-rule="evenodd" d="M30.2201 14.5134C16.1293 14.5134 4.70654 25.9362 4.70654 40.0269C4.70654 43.5496 7.56224 46.4053 11.0849 46.4053C25.1756 46.4053 36.5984 34.9825 36.5984 20.8918C36.5984 17.3691 33.7427 14.5134 30.2201 14.5134Z" fill="white"/>
<path d="M19.8871 20.8916L13.6362 33.6484V36.8376H21.2903V40.0267H24.4795V36.8376H26.393V33.6484H24.4795V27.27H21.2903V33.6484H16.953L23.2038 20.8916H19.8871Z" fill="#172B3E"/>
<path d="M9.3632 6.54053L6.23779 12.9189V14.5135H10.0648V16.1081H11.6594V14.5135H12.6162V12.9189H11.6594V9.72972H10.0648V12.9189H7.89618L11.0216 6.54053H9.3632Z" fill="white"/>
<path d="M31.815 54.3781L34.9404 47.9998V46.4051H31.1134V44.8105H29.5188V46.4051H28.562V47.9998H29.5188V51.1889H31.1134V47.9998H33.282L30.1566 54.3781H31.815Z" fill="white"/>
</svg>
