<svg width="42" height="61" viewBox="0 0 42 61" fill="none" xmlns="http://www.w3.org/2000/svg">
<path d="M33.8421 1.75659H8.32858C4.80589 1.75659 1.9502 4.61229 1.9502 8.13497V52.7836C1.9502 56.3063 4.80589 59.162 8.32858 59.162H33.8421C37.3648 59.162 40.2205 56.3063 40.2205 52.7836V8.13497C40.2205 4.61229 37.3648 1.75659 33.8421 1.75659Z" fill="white" stroke="#172B3E" stroke-width="2"/>
<path d="M33.8419 4.9458H8.32835C6.56701 4.9458 5.13916 6.37365 5.13916 8.13499V52.7836C5.13916 54.545 6.56701 55.9728 8.32835 55.9728H33.8419C35.6032 55.9728 37.0311 54.545 37.0311 52.7836V8.13499C37.0311 6.37365 35.6032 4.9458 33.8419 4.9458Z" fill="#172B3E"/>
<path fill-rule="evenodd" clip-rule="evenodd" d="M30.6527 14.5134C16.562 14.5134 5.13916 25.9362 5.13916 40.0269C5.13916 43.5496 7.99486 46.4053 11.5175 46.4053C25.6083 46.4053 37.0311 34.9825 37.0311 20.8918C37.0311 17.3691 34.1754 14.5134 30.6527 14.5134Z" fill="white"/>
<path d="M15.3447 20.8916V27.27V30.4592H21.7231C23.4899 30.4592 24.9123 31.8816 24.9123 33.6484C24.9123 35.4152 23.4899 36.8376 21.7231 36.8376C19.9563 36.8376 18.5339 35.4152 18.5339 33.6484H15.3447C15.3447 37.182 18.1895 40.0267 21.7231 40.0267C25.2567 40.0267 28.1015 37.182 28.1015 33.6484C28.1015 30.1147 25.2567 27.27 21.7231 27.27H18.5339V24.0808H21.7231H27.4636V20.8916H21.7231H18.5339H15.3447Z" fill="#172B3E"/>
<path d="M6.73389 6.54053V9.72972V11.3243H9.92308C10.8065 11.3243 11.5177 12.0355 11.5177 12.9189C11.5177 13.8023 10.8065 14.5135 9.92308 14.5135C9.03967 14.5135 8.32848 13.8023 8.32848 12.9189H6.73389C6.73389 14.6857 8.15627 16.1081 9.92308 16.1081C11.6899 16.1081 13.1123 14.6857 13.1123 12.9189C13.1123 11.1521 11.6899 9.72972 9.92308 9.72972H8.32848V8.13512H9.92308H12.7933V6.54053H9.92308H8.32848H6.73389Z" fill="white"/>
<path d="M35.4365 54.3781V51.1889V49.5943H32.2473C31.3639 49.5943 30.6527 48.8831 30.6527 47.9997C30.6527 47.1163 31.3639 46.4051 32.2473 46.4051C33.1307 46.4051 33.8419 47.1163 33.8419 47.9997H35.4365C35.4365 46.2329 34.0141 44.8105 32.2473 44.8105C30.4805 44.8105 29.0581 46.2329 29.0581 47.9997C29.0581 49.7665 30.4805 51.1889 32.2473 51.1889H33.8419V52.7835H32.2473H29.377V54.3781H32.2473H33.8419H35.4365Z" fill="white"/>
</svg>
