<svg width="42" height="61" viewBox="0 0 42 61" fill="none" xmlns="http://www.w3.org/2000/svg">
<path d="M34.0826 1.97681H8.36105C4.80965 1.97681 1.93066 4.85579 1.93066 8.40719V53.4199C1.93066 56.9713 4.80965 59.8503 8.36105 59.8503H34.0826C37.634 59.8503 40.513 56.9713 40.513 53.4199V8.40719C40.513 4.85579 37.634 1.97681 34.0826 1.97681Z" fill="white" stroke="#172B3E" stroke-width="2"/>
<path d="M34.0827 5.19214H8.36119C6.58549 5.19214 5.146 6.63163 5.146 8.40733V53.42C5.146 55.1957 6.58549 56.6352 8.36119 56.6352H34.0827C35.8584 56.6352 37.2979 55.1957 37.2979 53.42V8.40733C37.2979 6.63163 35.8584 5.19214 34.0827 5.19214Z" fill="#172B3E"/>
<path fill-rule="evenodd" clip-rule="evenodd" d="M30.8675 14.8379C16.6619 14.8379 5.146 26.3538 5.146 40.5594C5.146 44.1108 8.02498 46.9898 11.5764 46.9898C25.782 46.9898 37.2979 35.4739 37.2979 21.2683C37.2979 17.7169 34.4189 14.8379 30.8675 14.8379Z" fill="white"/>
<path fill-rule="evenodd" clip-rule="evenodd" d="M21.2224 21.2683C17.671 21.2683 14.792 24.1473 14.792 27.6987V34.1291C14.792 37.6805 17.671 40.5595 21.2224 40.5595C24.7738 40.5595 27.6528 37.6805 27.6528 34.1291C27.6528 30.5777 24.7738 27.6987 21.2224 27.6987C20.054 27.6987 18.9514 28.0181 18.0072 28.5628V27.6987C18.0072 25.923 19.4467 24.4835 21.2224 24.4835C22.479 24.4835 23.547 25.2211 24.0759 26.272L26.9695 24.8251C25.9154 22.7131 23.7432 21.2683 21.2224 21.2683ZM21.2224 30.9139C22.9981 30.9139 24.4376 32.3534 24.4376 34.1291C24.4376 35.9048 22.9981 37.3443 21.2224 37.3443C19.4467 37.3443 18.0072 35.9048 18.0072 34.1291C18.0072 32.3534 19.4467 30.9139 21.2224 30.9139ZM18.0072 41.2025V42.4886H24.4376V41.2025H18.0072Z" fill="#172B3E"/>
<path fill-rule="evenodd" clip-rule="evenodd" d="M9.96861 6.79956C8.1929 6.79956 6.75342 8.23905 6.75342 10.0148V13.2299C6.75342 15.0056 8.1929 16.4451 9.96861 16.4451C11.7443 16.4451 13.1838 15.0056 13.1838 13.2299C13.1838 11.4542 11.7443 10.0148 9.96861 10.0148C9.38441 10.0148 8.83314 10.1745 8.36101 10.4468V10.0148C8.36101 9.1269 9.08076 8.40716 9.96861 8.40716C10.5969 8.40716 11.1309 8.77595 11.3954 9.30138L12.8422 8.57796C12.3151 7.52198 11.229 6.79956 9.96861 6.79956ZM9.96861 11.6223C10.8565 11.6223 11.5762 12.3421 11.5762 13.2299C11.5762 14.1178 10.8565 14.8375 9.96861 14.8375C9.08076 14.8375 8.36101 14.1178 8.36101 13.2299C8.36101 12.3421 9.08076 11.6223 9.96861 11.6223Z" fill="white"/>
<path fill-rule="evenodd" clip-rule="evenodd" d="M32.475 55.0277C34.2507 55.0277 35.6902 53.5881 35.6902 51.8124V48.5973C35.6902 46.8216 34.2507 45.3821 32.475 45.3821C30.6993 45.3821 29.2598 46.8216 29.2598 48.5973C29.2598 50.373 30.6993 51.8124 32.475 51.8124C33.0592 51.8124 33.6104 51.6527 34.0826 51.3804V51.8124C34.0826 52.7003 33.3628 53.42 32.475 53.42C31.8466 53.42 31.3126 53.0513 31.0482 52.5258L29.6014 53.2492C30.1284 54.3052 31.2145 55.0277 32.475 55.0277ZM32.475 50.2049C31.5871 50.2049 30.8674 49.4851 30.8674 48.5973C30.8674 47.7094 31.5871 46.9897 32.475 46.9897C33.3628 46.9897 34.0826 47.7094 34.0826 48.5973C34.0826 49.4851 33.3628 50.2049 32.475 50.2049Z" fill="white"/>
</svg>
