<svg width="50" height="69" viewBox="0 0 50 69" fill="none" xmlns="http://www.w3.org/2000/svg">
<g filter="url(#filter0_d)">
<path d="M38.0826 1.97681H12.361C8.80965 1.97681 5.93066 4.85579 5.93066 8.40719V53.4199C5.93066 56.9713 8.80965 59.8503 12.361 59.8503H38.0826C41.634 59.8503 44.513 56.9713 44.513 53.4199V8.40719C44.513 4.85579 41.634 1.97681 38.0826 1.97681Z" fill="white" stroke="#172B3E" stroke-width="2"/>
<path d="M38.0827 5.19214H12.3612C10.5855 5.19214 9.146 6.63163 9.146 8.40733V53.42C9.146 55.1957 10.5855 56.6352 12.3612 56.6352H38.0827C39.8584 56.6352 41.2979 55.1957 41.2979 53.42V8.40733C41.2979 6.63163 39.8584 5.19214 38.0827 5.19214Z" fill="#172B3E"/>
<path fill-rule="evenodd" clip-rule="evenodd" d="M34.8675 14.8379C20.6619 14.8379 9.146 26.3538 9.146 40.5594C9.146 44.1108 12.025 46.9898 15.5764 46.9898C29.782 46.9898 41.2979 35.4739 41.2979 21.2683C41.2979 17.7169 38.4189 14.8379 34.8675 14.8379Z" fill="white"/>
<path fill-rule="evenodd" clip-rule="evenodd" d="M25.2224 21.2683C21.671 21.2683 18.792 24.1473 18.792 27.6987V34.1291C18.792 37.6805 21.671 40.5595 25.2224 40.5595C28.7738 40.5595 31.6528 37.6805 31.6528 34.1291C31.6528 30.5777 28.7738 27.6987 25.2224 27.6987C24.054 27.6987 22.9514 28.0181 22.0072 28.5628V27.6987C22.0072 25.923 23.4467 24.4835 25.2224 24.4835C26.479 24.4835 27.547 25.2211 28.0759 26.272L30.9695 24.8251C29.9154 22.7131 27.7432 21.2683 25.2224 21.2683ZM25.2224 30.9139C26.9981 30.9139 28.4376 32.3534 28.4376 34.1291C28.4376 35.9048 26.9981 37.3443 25.2224 37.3443C23.4467 37.3443 22.0072 35.9048 22.0072 34.1291C22.0072 32.3534 23.4467 30.9139 25.2224 30.9139ZM22.0072 41.2025V42.4886H28.4376V41.2025H22.0072Z" fill="#172B3E"/>
<path fill-rule="evenodd" clip-rule="evenodd" d="M13.9686 6.79956C12.1929 6.79956 10.7534 8.23905 10.7534 10.0148V13.2299C10.7534 15.0056 12.1929 16.4451 13.9686 16.4451C15.7443 16.4451 17.1838 15.0056 17.1838 13.2299C17.1838 11.4542 15.7443 10.0148 13.9686 10.0148C13.3844 10.0148 12.8331 10.1745 12.361 10.4468V10.0148C12.361 9.1269 13.0808 8.40716 13.9686 8.40716C14.5969 8.40716 15.1309 8.77595 15.3954 9.30138L16.8422 8.57796C16.3151 7.52198 15.229 6.79956 13.9686 6.79956ZM13.9686 11.6223C14.8565 11.6223 15.5762 12.3421 15.5762 13.2299C15.5762 14.1178 14.8565 14.8375 13.9686 14.8375C13.0808 14.8375 12.361 14.1178 12.361 13.2299C12.361 12.3421 13.0808 11.6223 13.9686 11.6223Z" fill="white"/>
<path fill-rule="evenodd" clip-rule="evenodd" d="M36.475 55.0277C38.2507 55.0277 39.6902 53.5881 39.6902 51.8124V48.5973C39.6902 46.8216 38.2507 45.3821 36.475 45.3821C34.6993 45.3821 33.2598 46.8216 33.2598 48.5973C33.2598 50.373 34.6993 51.8124 36.475 51.8124C37.0592 51.8124 37.6104 51.6527 38.0826 51.3804V51.8124C38.0826 52.7003 37.3628 53.42 36.475 53.42C35.8466 53.42 35.3126 53.0513 35.0482 52.5258L33.6014 53.2492C34.1284 54.3052 35.2145 55.0277 36.475 55.0277ZM36.475 50.2049C35.5871 50.2049 34.8674 49.4851 34.8674 48.5973C34.8674 47.7094 35.5871 46.9897 36.475 46.9897C37.3628 46.9897 38.0826 47.7094 38.0826 48.5973C38.0826 49.4851 37.3628 50.2049 36.475 50.2049Z" fill="white"/>
</g>
<defs>
<filter id="filter0_d" x="0.930664" y="0.976807" width="48.5823" height="67.8735" filterUnits="userSpaceOnUse" color-interpolation-filters="sRGB">
<feFlood flood-opacity="0" result="BackgroundImageFix"/>
<feColorMatrix in="SourceAlpha" type="matrix" values="0 0 0 0 0 0 0 0 0 0 0 0 0 0 0 0 0 0 127 0"/>
<feOffset dy="4"/>
<feGaussianBlur stdDeviation="2"/>
<feColorMatrix type="matrix" values="0 0 0 0 0 0 0 0 0 0 0 0 0 0 0 0 0 0 0.25 0"/>
<feBlend mode="normal" in2="BackgroundImageFix" result="effect1_dropShadow"/>
<feBlend mode="normal" in="SourceGraphic" in2="effect1_dropShadow" result="shape"/>
</filter>
</defs>
</svg>
