<svg width="42" height="61" viewBox="0 0 42 61" fill="none" xmlns="http://www.w3.org/2000/svg">
<path d="M33.7068 1.75659H8.19332C4.67064 1.75659 1.81494 4.61229 1.81494 8.13497V52.7836C1.81494 56.3063 4.67064 59.162 8.19332 59.162H33.7068C37.2295 59.162 40.0852 56.3063 40.0852 52.7836V8.13497C40.0852 4.61229 37.2295 1.75659 33.7068 1.75659Z" fill="white" stroke="#172B3E" stroke-width="2"/>
<path d="M33.7066 4.9458H8.1931C6.43176 4.9458 5.00391 6.37365 5.00391 8.13499V52.7836C5.00391 54.545 6.43176 55.9728 8.1931 55.9728H33.7066C35.468 55.9728 36.8958 54.545 36.8958 52.7836V8.13499C36.8958 6.37365 35.468 4.9458 33.7066 4.9458Z" fill="#172B3E"/>
<path fill-rule="evenodd" clip-rule="evenodd" d="M30.5174 14.5134C16.4267 14.5134 5.00391 25.9362 5.00391 40.0269C5.00391 43.5496 7.8596 46.4053 11.3823 46.4053C25.473 46.4053 36.8958 34.9825 36.8958 20.8918C36.8958 17.3691 34.0401 14.5134 30.5174 14.5134Z" fill="white"/>
<path fill-rule="evenodd" clip-rule="evenodd" d="M15.5283 20.8916V27.27H18.7175V24.0808H25.0959L18.7175 40.0267H21.9067L28.2851 24.0808V20.8916H18.7175H15.5283Z" fill="#172B3E"/>
<path fill-rule="evenodd" clip-rule="evenodd" d="M6.59863 6.54053V9.72972H8.19323V8.13512H11.3824L8.19323 16.1081H9.78782L12.977 8.13512V6.54053H8.19323H6.59863Z" fill="white"/>
<path fill-rule="evenodd" clip-rule="evenodd" d="M35.3012 54.3781V51.1889H33.7066V52.7835H30.5174L33.7066 44.8105H32.112L28.9229 52.7835V54.3781H33.7066H35.3012Z" fill="white"/>
</svg>
