<svg width="41" height="60" viewBox="0 0 41 60" fill="none" xmlns="http://www.w3.org/2000/svg">
<path d="M32.8919 1.51392H7.37838C3.8557 1.51392 1 4.36961 1 7.8923V52.541C1 56.0636 3.8557 58.9193 7.37838 58.9193H32.8919C36.4146 58.9193 39.2703 56.0636 39.2703 52.541V7.8923C39.2703 4.36961 36.4146 1.51392 32.8919 1.51392Z" fill="white" stroke="#172B3E" stroke-width="2"/>
<path d="M32.8917 4.70288H7.37815C5.61681 4.70288 4.18896 6.13073 4.18896 7.89207V52.5407C4.18896 54.3021 5.61681 55.7299 7.37815 55.7299H32.8917C34.653 55.7299 36.0809 54.3021 36.0809 52.5407V7.89207C36.0809 6.13073 34.653 4.70288 32.8917 4.70288Z" fill="#172B3E"/>
<path fill-rule="evenodd" clip-rule="evenodd" d="M29.7025 14.2708C15.6118 14.2708 4.18896 25.6935 4.18896 39.7843C4.18896 43.307 7.04466 46.1626 10.5673 46.1626C24.6581 46.1626 36.0809 34.7399 36.0809 20.6491C36.0809 17.1264 33.2252 14.2708 29.7025 14.2708Z" fill="white"/>
<path d="M20.1352 20.6487C17.4932 20.6487 15.3514 22.7904 15.3514 25.4325C15.3514 26.516 15.7209 27.5007 16.3281 28.3027C14.7699 29.4635 13.7568 31.3044 13.7568 33.4054C13.7568 36.9391 16.6016 39.7838 20.1352 39.7838C23.6688 39.7838 26.5136 36.9391 26.5136 33.4054C26.5136 31.3044 25.5005 29.4635 23.9423 28.3027C24.5495 27.5007 24.919 26.516 24.919 25.4325C24.919 22.7904 22.7772 20.6487 20.1352 20.6487ZM20.1352 23.8379C21.0159 23.8379 21.7298 24.5518 21.7298 25.4325C21.7298 26.3131 21.0159 27.0271 20.1352 27.0271C19.2545 27.0271 18.5406 26.3131 18.5406 25.4325C18.5406 24.5518 19.2545 23.8379 20.1352 23.8379ZM19.8163 30.2163C19.9238 30.2054 20.0248 30.2163 20.1352 30.2163C21.902 30.2163 23.3244 31.6386 23.3244 33.4054C23.3244 35.1723 21.902 36.5946 20.1352 36.5946C18.3684 36.5946 16.946 35.1723 16.946 33.4054C16.946 31.749 18.2042 30.379 19.8163 30.2163Z" fill="#172B3E"/>
<path d="M8.97288 6.29785C7.65187 6.29785 6.58099 7.36871 6.58099 8.68974C6.58099 9.23149 6.76574 9.72387 7.06933 10.1249C6.29024 10.7053 5.78369 11.6257 5.78369 12.6762C5.78369 14.443 7.20607 15.8654 8.97288 15.8654C10.7397 15.8654 12.1621 14.443 12.1621 12.6762C12.1621 11.6257 11.6555 10.7053 10.8764 10.1249C11.18 9.72387 11.3648 9.23149 11.3648 8.68974C11.3648 7.36871 10.2939 6.29785 8.97288 6.29785ZM8.97288 7.89245C9.41321 7.89245 9.77018 8.24941 9.77018 8.68974C9.77018 9.13007 9.41321 9.48704 8.97288 9.48704C8.53255 9.48704 8.17558 9.13007 8.17558 8.68974C8.17558 8.24941 8.53255 7.89245 8.97288 7.89245ZM8.81342 11.0816C8.86713 11.0759 8.91766 11.0816 8.97288 11.0816C9.85629 11.0816 10.5675 11.7928 10.5675 12.6762C10.5675 13.5596 9.85629 14.2708 8.97288 14.2708C8.08948 14.2708 7.37829 13.5596 7.37829 12.6762C7.37829 11.848 8.00739 11.163 8.81342 11.0816Z" fill="white"/>
<path d="M31.2971 54.1354C29.9761 54.1354 28.9052 53.0646 28.9052 51.7435C28.9052 51.2018 29.09 50.7094 29.3936 50.3084C28.6145 49.728 28.1079 48.8076 28.1079 47.7571C28.1079 45.9902 29.5303 44.5679 31.2971 44.5679C33.0639 44.5679 34.4863 45.9902 34.4863 47.7571C34.4863 48.8076 33.9797 49.728 33.2006 50.3084C33.5042 50.7094 33.689 51.2018 33.689 51.7435C33.689 53.0646 32.6181 54.1354 31.2971 54.1354ZM31.2971 52.5408C31.7374 52.5408 32.0944 52.1839 32.0944 51.7435C32.0944 51.3032 31.7374 50.9463 31.2971 50.9463C30.8568 50.9463 30.4998 51.3032 30.4998 51.7435C30.4998 52.1839 30.8568 52.5408 31.2971 52.5408ZM31.1376 49.3517C31.1913 49.3574 31.2419 49.3517 31.2971 49.3517C32.1805 49.3517 32.8917 48.6405 32.8917 47.7571C32.8917 46.8737 32.1805 46.1625 31.2971 46.1625C30.4137 46.1625 29.7025 46.8737 29.7025 47.7571C29.7025 48.5853 30.3316 49.2703 31.1376 49.3517Z" fill="white"/>
</svg>
