<svg width="41" height="60" viewBox="0 0 41 60" fill="none" xmlns="http://www.w3.org/2000/svg">
<path d="M33.3245 1.51367H7.811C4.28832 1.51367 1.43262 4.36937 1.43262 7.89205V52.5407C1.43262 56.0634 4.28832 58.9191 7.811 58.9191H33.3245C36.8472 58.9191 39.7029 56.0634 39.7029 52.5407V7.89205C39.7029 4.36937 36.8472 1.51367 33.3245 1.51367Z" fill="white" stroke="#172B3E" stroke-width="2"/>
<path d="M33.3243 4.70264H7.81077C6.04943 4.70264 4.62158 6.13049 4.62158 7.89183V52.5405C4.62158 54.3018 6.04943 55.7297 7.81077 55.7297H33.3243C35.0856 55.7297 36.5135 54.3018 36.5135 52.5405V7.89183C36.5135 6.13049 35.0856 4.70264 33.3243 4.70264Z" fill="#172B3E"/>
<path fill-rule="evenodd" clip-rule="evenodd" d="M30.1351 14.2705C16.0444 14.2705 4.62158 25.6933 4.62158 39.784C4.62158 43.3067 7.47728 46.1624 11 46.1624C25.0907 46.1624 36.5135 34.7396 36.5135 20.6489C36.5135 17.1262 33.6578 14.2705 30.1351 14.2705Z" fill="white"/>
<path fill-rule="evenodd" clip-rule="evenodd" d="M20.5678 20.6484C17.0451 20.6484 14.1895 23.5041 14.1895 27.0268C14.1895 30.5495 17.0451 33.4052 20.5678 33.4052C21.7268 33.4052 22.8204 33.0884 23.757 32.5481V33.4052C23.757 35.1665 22.3292 36.5944 20.5678 36.5944C19.3213 36.5944 18.262 35.8628 17.7374 34.8204L14.8672 36.2555C15.9127 38.3504 18.0674 39.7836 20.5678 39.7836C24.0905 39.7836 26.9462 36.9279 26.9462 33.4052V27.0268C26.9462 23.5041 24.0905 20.6484 20.5678 20.6484ZM20.5678 23.8376C22.3292 23.8376 23.757 25.2655 23.757 27.0268C23.757 28.7882 22.3292 30.216 20.5678 30.216C18.8065 30.216 17.3786 28.7882 17.3786 27.0268C17.3786 25.2655 18.8065 23.8376 20.5678 23.8376ZM17.3786 40.4214V41.6971H23.757V40.4214H17.3786Z" fill="#172B3E"/>
<path fill-rule="evenodd" clip-rule="evenodd" d="M9.40501 15.8652C11.1664 15.8652 12.5942 14.4373 12.5942 12.676V9.4868C12.5942 7.72545 11.1664 6.29761 9.40501 6.29761C7.64367 6.29761 6.21582 7.72545 6.21582 9.4868C6.21582 11.2481 7.64367 12.676 9.40501 12.676C9.98449 12.676 10.5313 12.5176 10.9996 12.2474V12.676C10.9996 13.5567 10.2857 14.2706 9.40501 14.2706C8.78177 14.2706 8.25208 13.9048 7.98981 13.3836L6.55467 14.1012C7.07746 15.1486 8.15477 15.8652 9.40501 15.8652ZM9.40501 11.0814C8.52435 11.0814 7.81042 10.3675 7.81042 9.4868C7.81042 8.60613 8.52435 7.8922 9.40501 7.8922C10.2857 7.8922 10.9996 8.60613 10.9996 9.4868C10.9996 10.3675 10.2857 11.0814 9.40501 11.0814Z" fill="white"/>
<path fill-rule="evenodd" clip-rule="evenodd" d="M31.7297 44.5676C29.9684 44.5676 28.5405 45.9955 28.5405 47.7568V50.946C28.5405 52.7074 29.9684 54.1352 31.7297 54.1352C33.4911 54.1352 34.9189 52.7074 34.9189 50.946C34.9189 49.1847 33.4911 47.7568 31.7297 47.7568C31.1502 47.7568 30.6034 47.9152 30.1351 48.1854V47.7568C30.1351 46.8762 30.849 46.1622 31.7297 46.1622C32.353 46.1622 32.8826 46.528 33.1449 47.0492L34.5801 46.3316C34.0573 45.2842 32.98 44.5676 31.7297 44.5676ZM31.7297 49.3514C32.6104 49.3514 33.3243 50.0653 33.3243 50.946C33.3243 51.8267 32.6104 52.5406 31.7297 52.5406C30.849 52.5406 30.1351 51.8267 30.1351 50.946C30.1351 50.0653 30.849 49.3514 31.7297 49.3514Z" fill="white"/>
</svg>
