<svg width="41" height="60" viewBox="0 0 41 60" fill="none" xmlns="http://www.w3.org/2000/svg">
<path d="M33.6219 1.51343H8.10836C4.58568 1.51343 1.72998 4.36913 1.72998 7.89181V52.5405C1.72998 56.0631 4.58568 58.9188 8.10836 58.9188H33.6219C37.1446 58.9188 40.0003 56.0631 40.0003 52.5405V7.89181C40.0003 4.36913 37.1446 1.51343 33.6219 1.51343Z" fill="white" stroke="#172B3E" stroke-width="2"/>
<path d="M33.6221 4.70264H8.10862C6.34728 4.70264 4.91943 6.13049 4.91943 7.89183V52.5405C4.91943 54.3018 6.34728 55.7297 8.10862 55.7297H33.6221C35.3835 55.7297 36.8113 54.3018 36.8113 52.5405V7.89183C36.8113 6.13049 35.3835 4.70264 33.6221 4.70264Z" fill="#172B3E"/>
<path fill-rule="evenodd" clip-rule="evenodd" d="M30.433 14.2705C16.3422 14.2705 4.91943 25.6933 4.91943 39.784C4.91943 43.3067 7.77513 46.1624 11.2978 46.1624C25.3885 46.1624 36.8113 34.7396 36.8113 20.6489C36.8113 17.1262 33.9556 14.2705 30.433 14.2705Z" fill="white"/>
<path d="M22.9154 25.4326H16.537C15.6563 25.4326 14.7582 26.0773 14.531 26.8726L11.2534 38.3441C11.0262 39.1393 11.5559 39.784 12.4366 39.784H18.815C19.6956 39.784 20.5937 39.1393 20.8209 38.3441L24.0985 26.8726C24.3257 26.0773 23.796 25.4326 22.9154 25.4326Z" fill="white" stroke="#172B3E" stroke-width="2.03962"/>
<path d="M20.8648 27.0271H17.6756C16.795 27.0271 15.8969 27.6718 15.6697 28.467L13.3032 36.7494C13.076 37.5446 13.6058 38.1893 14.4864 38.1893H17.6756C18.5563 38.1893 19.4544 37.5446 19.6816 36.7494L22.048 28.467C22.2752 27.6718 21.7455 27.0271 20.8648 27.0271Z" fill="#172B3E"/>
<path d="M29.2938 20.6484H22.9154C22.0347 20.6484 21.1366 21.2931 20.9094 22.0883L17.6318 33.5599C17.4046 34.3552 17.9343 34.9998 18.815 34.9998H25.1934C26.074 34.9998 26.9722 34.3552 27.1994 33.5599L30.477 22.0883C30.7042 21.2931 30.1744 20.6484 29.2938 20.6484Z" fill="white" stroke="#172B3E" stroke-width="2.03962"/>
<path d="M27.2437 22.2434H24.0546C23.1739 22.2434 22.2758 22.8881 22.0486 23.6833L19.6822 31.9657C19.4549 32.7609 19.9847 33.4056 20.8653 33.4056H24.0545C24.9352 33.4056 25.8333 32.7609 26.0605 31.9657L28.4269 23.6833C28.6542 22.8881 28.1244 22.2434 27.2437 22.2434Z" fill="#172B3E"/>
<path fill-rule="evenodd" clip-rule="evenodd" d="M7.15124 9.48657V11.0812H5.55664V12.6758H7.15124V14.2704H8.74583V12.6758H10.3404V11.0812H8.74583V9.48657H7.15124Z" fill="white"/>
<path d="M14.4866 6.29736C12.7197 6.29736 11.2974 7.71974 11.2974 9.48655V9.80547H12.892V9.48655C12.892 8.60315 13.6031 7.89196 14.4866 7.89196C15.37 7.89196 16.0811 8.60315 16.0811 9.48655C16.0811 9.84613 15.7828 10.5518 15.4712 10.797C13.7794 12.1285 13.7973 11.9086 11.2974 13.6325V15.8649H14.4866H17.6757V14.2703V13.6325H16.0811V14.2703H14.4866H13.2109C15.185 12.8803 15.3293 12.9139 16.8762 11.5296C17.3719 11.0861 17.6757 10.2058 17.6757 9.48655C17.6757 7.71974 16.2534 6.29736 14.4866 6.29736Z" fill="white"/>
<path fill-rule="evenodd" clip-rule="evenodd" d="M34.5788 50.9461V49.3515H36.1734V47.757H34.5788V46.1624H32.9842V47.757H31.3896V49.3515H32.9842V50.9461H34.5788Z" fill="white"/>
<path d="M27.2434 54.1354C29.0102 54.1354 30.4326 52.7131 30.4326 50.9463V50.6273H28.838V50.9463C28.838 51.8297 28.1268 52.5408 27.2434 52.5408C26.36 52.5408 25.6488 51.8297 25.6488 50.9463C25.6488 50.5867 25.9472 49.881 26.2587 49.6358C27.9505 48.3043 27.9327 48.5243 30.4326 46.8003V44.5679H27.2434H24.0542V46.1625V46.8003H25.6488V46.1625H27.2434H28.5191C26.5449 47.5526 26.4006 47.5189 24.8537 48.9032C24.3581 49.3467 24.0542 50.227 24.0542 50.9463C24.0542 52.7131 25.4766 54.1354 27.2434 54.1354Z" fill="white"/>
</svg>
