<svg width="41" height="60" viewBox="0 0 41 60" fill="none" xmlns="http://www.w3.org/2000/svg">
<path d="M33.1893 1.51367H7.67574C4.15306 1.51367 1.29736 4.36937 1.29736 7.89205V52.5407C1.29736 56.0634 4.15306 58.9191 7.67574 58.9191H33.1893C36.7119 58.9191 39.5676 56.0634 39.5676 52.5407V7.89205C39.5676 4.36937 36.7119 1.51367 33.1893 1.51367Z" fill="white" stroke="#172B3E" stroke-width="2"/>
<path d="M33.189 4.70264H7.67552C5.91418 4.70264 4.48633 6.13049 4.48633 7.89183V52.5405C4.48633 54.3018 5.91418 55.7297 7.67552 55.7297H33.189C34.9504 55.7297 36.3782 54.3018 36.3782 52.5405V7.89183C36.3782 6.13049 34.9504 4.70264 33.189 4.70264Z" fill="#172B3E"/>
<path fill-rule="evenodd" clip-rule="evenodd" d="M29.9998 14.2705C15.9091 14.2705 4.48633 25.6933 4.48633 39.784C4.48633 43.3067 7.34202 46.1624 10.8647 46.1624C24.9554 46.1624 36.3782 34.7396 36.3782 20.6489C36.3782 17.1262 33.5225 14.2705 29.9998 14.2705Z" fill="white"/>
<path d="M20.4324 19.8516L22.027 21.4462L15.6486 27.8245C14.054 29.4191 14.054 32.6083 15.6486 34.2029L18.8378 31.0137L25.2162 24.6353L26.8107 26.2299V19.8516H20.4324Z" fill="#172B3E"/>
<path d="M20.4321 40.5811L18.8375 38.9865L25.2159 32.6081C26.8105 31.0135 26.8105 27.8243 25.2159 26.2297L22.0267 29.4189L15.6483 35.7973L14.0537 34.2027V40.5811H20.4321Z" fill="#172B3E"/>
<path d="M9.27014 6.29736L10.0674 7.09466L6.87825 10.2839C6.08095 11.0811 6.08095 12.6757 6.87825 13.473L8.47284 11.8784L11.662 8.68926L12.4593 9.48655V6.29736H9.27014Z" fill="white"/>
<path d="M9.27024 16.6622L8.47295 15.865L11.6621 12.6758C12.4594 11.8785 12.4594 10.2839 11.6621 9.48657L10.0675 11.0812L6.87835 14.2704L6.08105 13.4731V16.6622H9.27024Z" fill="white"/>
<path d="M31.5944 43.7705L32.3917 44.5678L29.2025 47.757C28.4052 48.5543 28.4052 50.1489 29.2025 50.9462L30.7971 49.3516L33.9863 46.1624L34.7835 46.9597V43.7705H31.5944Z" fill="white"/>
<path d="M31.5945 54.1351L30.7972 53.3379L33.9864 50.1487C34.7837 49.3514 34.7837 47.7568 33.9864 46.9595L32.3918 48.5541L29.2026 51.7433L28.4053 50.946V54.1351H31.5945Z" fill="white"/>
</svg>
