<svg width="42" height="60" viewBox="0 0 42 60" fill="none" xmlns="http://www.w3.org/2000/svg">
<path d="M33.7566 1.51367H8.24313C4.72044 1.51367 1.86475 4.36937 1.86475 7.89205V52.5407C1.86475 56.0634 4.72044 58.9191 8.24313 58.9191H33.7566C37.2793 58.9191 40.135 56.0634 40.135 52.5407V7.89205C40.135 4.36937 37.2793 1.51367 33.7566 1.51367Z" fill="white" stroke="#172B3E" stroke-width="2"/>
<path d="M33.7569 4.70264H8.24339C6.48205 4.70264 5.0542 6.13049 5.0542 7.89183V52.5405C5.0542 54.3018 6.48205 55.7297 8.24339 55.7297H33.7569C35.5182 55.7297 36.9461 54.3018 36.9461 52.5405V7.89183C36.9461 6.13049 35.5182 4.70264 33.7569 4.70264Z" fill="#172B3E"/>
<path fill-rule="evenodd" clip-rule="evenodd" d="M30.5677 14.2705C16.477 14.2705 5.0542 25.6933 5.0542 39.784C5.0542 43.3067 7.9099 46.1624 11.4326 46.1624C25.5233 46.1624 36.9461 34.7396 36.9461 20.6489C36.9461 17.1262 34.0904 14.2705 30.5677 14.2705Z" fill="white"/>
<path fill-rule="evenodd" clip-rule="evenodd" d="M21.0199 20.6485C18.5714 20.6453 16.1135 21.5733 14.2429 23.439C10.5017 27.1705 10.4915 33.2319 14.223 36.9731C17.9545 40.7144 24.0159 40.7245 27.7571 36.993C31.4984 33.2615 31.5085 27.2002 27.777 23.4589C25.9113 21.5883 23.4685 20.6516 21.0199 20.6484V20.6485ZM21 23.8377C22.1162 23.8389 23.2374 24.1311 24.2291 24.7147L15.4987 33.4451C14.0569 30.9972 14.3909 27.7903 16.4953 25.6914C17.7424 24.4476 19.3677 23.8355 21 23.8377ZM26.5014 26.9671C27.9531 29.4168 27.6134 32.6376 25.5048 34.7407C23.3982 36.8418 20.1961 37.1506 17.751 35.6975L26.5014 26.9671Z" fill="#172B3E"/>
<path fill-rule="evenodd" clip-rule="evenodd" d="M11.4421 6.29738C10.2181 6.29547 8.98943 6.75974 8.0543 7.69252C6.18403 9.55808 6.17894 12.5885 8.04433 14.459C9.90972 16.3294 12.9399 16.3345 14.8101 14.4689C16.6804 12.6033 16.6855 9.57292 14.8201 7.70248C13.8874 6.76725 12.6662 6.29896 11.4421 6.29736V6.29738ZM11.4322 7.89182C11.9902 7.89245 12.5507 8.03854 13.0464 8.3303L8.68205 12.6951C7.96131 11.4713 8.12823 9.86799 9.18024 8.8186C9.80367 8.19674 10.6162 7.89075 11.4322 7.89182ZM14.1824 9.45636C14.9081 10.6811 14.7383 12.2914 13.6842 13.3428C12.6311 14.3933 11.0303 14.5477 9.808 13.8212L14.1824 9.45636Z" fill="white"/>
<path fill-rule="evenodd" clip-rule="evenodd" d="M30.5774 44.5676C29.3534 44.5657 28.1247 45.03 27.1895 45.9628C25.3193 47.8283 25.3142 50.8588 27.1796 52.7292C29.045 54.5997 32.0751 54.6047 33.9454 52.7392C35.8157 50.8736 35.8207 47.8432 33.9553 45.9727C33.0226 45.0375 31.8015 44.5692 30.5774 44.5676V44.5676ZM30.5675 46.1621C31.1254 46.1627 31.6859 46.3088 32.1817 46.6006L27.8173 50.9654C27.0966 49.7415 27.2635 48.1383 28.3155 47.0889C28.9389 46.467 29.7514 46.161 30.5675 46.1621ZM33.3176 47.7266C34.0434 48.9514 33.8735 50.5616 32.8194 51.6131C31.7663 52.6636 30.1656 52.818 28.9433 52.0914L33.3176 47.7266Z" fill="white"/>
</svg>
