<svg width="49" height="73" viewBox="0 0 49 73" fill="none" xmlns="http://www.w3.org/2000/svg">
<path d="M39.8888 1.44727H8.77776C4.48222 1.44727 1 4.92949 1 9.22503V63.6694C1 67.9649 4.48222 71.4471 8.77776 71.4471H39.8888C44.1844 71.4471 47.6666 67.9649 47.6666 63.6694V9.22503C47.6666 4.92949 44.1844 1.44727 39.8888 1.44727Z" fill="white" stroke="black" stroke-width="2"/>
<path d="M39.8891 5.33618H8.77804C6.63027 5.33618 4.88916 7.07729 4.88916 9.22506V63.6694C4.88916 65.8172 6.63027 67.5583 8.77804 67.5583H39.8891C42.0369 67.5583 43.778 65.8172 43.778 63.6694V9.22506C43.778 7.07729 42.0369 5.33618 39.8891 5.33618Z" fill="#5555FF"/>
<path fill-rule="evenodd" clip-rule="evenodd" d="M36.0002 17.0027C18.8181 17.0027 4.88916 30.9316 4.88916 48.1137C4.88916 52.4093 8.37138 55.8915 12.6669 55.8915C29.8491 55.8915 43.778 41.9626 43.778 24.7804C43.778 20.4849 40.2958 17.0027 36.0002 17.0027Z" fill="white"/>
<path fill-rule="evenodd" clip-rule="evenodd" d="M24.3334 24.7805C20.0379 24.7805 16.5557 28.2627 16.5557 32.5583V40.336C16.5557 44.6316 20.0379 48.1138 24.3334 48.1138C28.629 48.1138 32.1112 44.6316 32.1112 40.336V32.5583C32.1112 28.2627 28.629 24.7805 24.3334 24.7805ZM24.3334 28.6694C26.4812 28.6694 28.2223 30.4105 28.2223 32.5583V40.336C28.2223 42.4838 26.4812 44.2249 24.3334 44.2249C22.1857 44.2249 20.4445 42.4838 20.4445 40.336V32.5583C20.4445 30.4105 22.1857 28.6694 24.3334 28.6694Z" fill="#5555FF"/>
<path fill-rule="evenodd" clip-rule="evenodd" d="M10.7224 7.28076C8.5746 7.28076 6.8335 9.02187 6.8335 11.1696V15.0585C6.8335 17.2063 8.5746 18.9474 10.7224 18.9474C12.8701 18.9474 14.6113 17.2063 14.6113 15.0585V11.1696C14.6113 9.02187 12.8701 7.28076 10.7224 7.28076ZM10.7224 9.2252C11.7963 9.2252 12.6668 10.0958 12.6668 11.1696V15.0585C12.6668 16.1324 11.7963 17.003 10.7224 17.003C9.64849 17.003 8.77794 16.1324 8.77794 15.0585V11.1696C8.77794 10.0958 9.64849 9.2252 10.7224 9.2252Z" fill="white"/>
<path fill-rule="evenodd" clip-rule="evenodd" d="M37.9445 53.947C35.7968 53.947 34.0557 55.6881 34.0557 57.8359V61.7248C34.0557 63.8726 35.7968 65.6137 37.9445 65.6137C40.0923 65.6137 41.8334 63.8726 41.8334 61.7248V57.8359C41.8334 55.6881 40.0923 53.947 37.9445 53.947ZM37.9445 55.8915C39.0184 55.8915 39.889 56.762 39.889 57.8359V61.7248C39.889 62.7987 39.0184 63.6692 37.9445 63.6692C36.8707 63.6692 36.0001 62.7987 36.0001 61.7248V57.8359C36.0001 56.762 36.8707 55.8915 37.9445 55.8915Z" fill="white"/>
</svg>
