<svg width="49" height="73" viewBox="0 0 49 73" fill="none" xmlns="http://www.w3.org/2000/svg">
<path d="M40.1667 1.44727H9.0556C4.76006 1.44727 1.27783 4.92949 1.27783 9.22503V63.6694C1.27783 67.9649 4.76006 71.4471 9.0556 71.4471H40.1667C44.4622 71.4471 47.9444 67.9649 47.9444 63.6694V9.22503C47.9444 4.92949 44.4622 1.44727 40.1667 1.44727Z" fill="white" stroke="black" stroke-width="2"/>
<path d="M40.1664 5.33618H9.05539C6.90762 5.33618 5.1665 7.07729 5.1665 9.22506V63.6694C5.1665 65.8172 6.90762 67.5583 9.05539 67.5583H40.1664C42.3142 67.5583 44.0553 65.8172 44.0553 63.6694V9.22506C44.0553 7.07729 42.3142 5.33618 40.1664 5.33618Z" fill="#5555FF"/>
<path fill-rule="evenodd" clip-rule="evenodd" d="M36.2776 17.0027C19.0954 17.0027 5.1665 30.9316 5.1665 48.1137C5.1665 52.4093 8.64873 55.8915 12.9443 55.8915C30.1264 55.8915 44.0553 41.9626 44.0553 24.7804C44.0553 20.4849 40.5731 17.0027 36.2776 17.0027Z" fill="white"/>
<path fill-rule="evenodd" clip-rule="evenodd" d="M23.0554 24.7805L19.1665 28.6694V33.3361L23.0554 29.4472V48.1138H26.9443V24.7805H23.0554Z" fill="#5555FF"/>
<path fill-rule="evenodd" clip-rule="evenodd" d="M9.05577 7.28076L7.11133 9.2252V11.5585L9.05577 9.61409V18.9474H11.0002V7.28076H9.05577Z" fill="white"/>
<path fill-rule="evenodd" clip-rule="evenodd" d="M40.1666 65.6137L42.1111 63.6692V61.3359L40.1666 63.2803V53.947H38.2222V65.6137H40.1666Z" fill="white"/>
</svg>
