<svg width="50" height="73" viewBox="0 0 50 73" fill="none" xmlns="http://www.w3.org/2000/svg">
<path d="M40.444 1.44727H9.33294C5.0374 1.44727 1.55518 4.92949 1.55518 9.22503V63.6694C1.55518 67.9649 5.0374 71.4471 9.33294 71.4471H40.444C44.7395 71.4471 48.2218 67.9649 48.2218 63.6694V9.22503C48.2218 4.92949 44.7395 1.44727 40.444 1.44727Z" fill="white" stroke="black" stroke-width="2"/>
<path d="M40.4438 5.33618H9.33273C7.18496 5.33618 5.44385 7.07729 5.44385 9.22506V63.6694C5.44385 65.8172 7.18496 67.5583 9.33273 67.5583H40.4438C42.5916 67.5583 44.3327 65.8172 44.3327 63.6694V9.22506C44.3327 7.07729 42.5916 5.33618 40.4438 5.33618Z" fill="#5555FF"/>
<path fill-rule="evenodd" clip-rule="evenodd" d="M36.5549 17.0027C19.3727 17.0027 5.44385 30.9316 5.44385 48.1137C5.44385 52.4093 8.92607 55.8915 13.2216 55.8915C30.4038 55.8915 44.3327 41.9626 44.3327 24.7804C44.3327 20.4849 40.8504 17.0027 36.5549 17.0027Z" fill="white"/>
<path d="M24.1108 24.7805C19.8019 24.7805 16.333 28.2494 16.333 32.5583V33.3361H20.2219V32.5583C20.2219 30.4038 21.9563 28.6694 24.1108 28.6694C26.2652 28.6694 27.9997 30.4038 27.9997 32.5583C27.9997 33.4352 27.272 35.1562 26.5122 35.7542C22.3862 39.0013 22.4298 38.4651 16.333 42.6694V48.1138H24.1108H31.8885V44.2249V42.6694H27.9997V44.2249H24.1108H20.9997C25.8142 40.8348 26.1662 40.917 29.9387 37.5409C31.1474 36.4592 31.8885 34.3123 31.8885 32.5583C31.8885 28.2494 28.4197 24.7805 24.1108 24.7805Z" fill="#5555FF"/>
<path d="M11.2776 7.28076C9.12311 7.28076 7.38867 9.0152 7.38867 11.1696V11.5585H9.33311V11.1696C9.33311 10.0924 10.2003 9.2252 11.2776 9.2252C12.3548 9.2252 13.222 10.0924 13.222 11.1696C13.222 11.6081 12.8582 12.4686 12.4783 12.7676C10.4153 14.3912 10.4371 14.123 7.38867 16.2252V18.9474H11.2776H15.1664V17.003V16.2252H13.222V17.003H11.2776H9.722C12.1292 15.3079 12.3053 15.349 14.1915 13.661C14.7959 13.1201 15.1664 12.0467 15.1664 11.1696C15.1664 9.0152 13.432 7.28076 11.2776 7.28076Z" fill="white"/>
<path d="M38.4997 65.6137C40.6542 65.6137 42.3886 63.8792 42.3886 61.7248V61.3359H40.4442V61.7248C40.4442 62.802 39.5769 63.6692 38.4997 63.6692C37.4225 63.6692 36.5553 62.802 36.5553 61.7248C36.5553 61.2863 36.9191 60.4258 37.299 60.1268C39.362 58.5032 39.3402 58.7714 42.3886 56.6692V53.947H38.4997H34.6108V55.8915V56.6692H36.5553V55.8915H38.4997H40.0553C37.648 57.5865 37.472 57.5454 35.5858 59.2334C34.9814 59.7743 34.6108 60.8478 34.6108 61.7248C34.6108 63.8792 36.3453 65.6137 38.4997 65.6137Z" fill="white"/>
</svg>
