<svg width="50" height="73" viewBox="0 0 50 73" fill="none" xmlns="http://www.w3.org/2000/svg">
<path d="M40.7218 1.44727H9.61077C5.31523 1.44727 1.83301 4.92949 1.83301 9.22503V63.6694C1.83301 67.9649 5.31523 71.4471 9.61077 71.4471H40.7218C45.0174 71.4471 48.4996 67.9649 48.4996 63.6694V9.22503C48.4996 4.92949 45.0174 1.44727 40.7218 1.44727Z" fill="white" stroke="black" stroke-width="2"/>
<path d="M40.7216 5.33618H9.61056C7.46279 5.33618 5.72168 7.07729 5.72168 9.22506V63.6694C5.72168 65.8172 7.46279 67.5583 9.61056 67.5583H40.7216C42.8694 67.5583 44.6105 65.8172 44.6105 63.6694V9.22506C44.6105 7.07729 42.8694 5.33618 40.7216 5.33618Z" fill="#5555FF"/>
<path fill-rule="evenodd" clip-rule="evenodd" d="M36.8327 17.0027C19.6506 17.0027 5.72168 30.9316 5.72168 48.1137C5.72168 52.4093 9.2039 55.8915 13.4994 55.8915C30.6816 55.8915 44.6105 41.9626 44.6105 24.7804C44.6105 20.4849 41.1283 17.0027 36.8327 17.0027Z" fill="white"/>
<path d="M25.1664 24.7805C21.9448 24.7805 19.3331 27.3922 19.3331 30.6138H23.222C23.222 29.54 24.0926 28.6694 25.1664 28.6694C26.2403 28.6694 27.1109 29.54 27.1109 30.6138C27.1109 31.6877 26.2403 32.5583 25.1664 32.5583H22.8331V36.4472H25.1664C27.3209 36.4472 29.0553 38.1816 29.0553 40.336C29.0553 42.4905 27.3209 44.2249 25.1664 44.2249C23.012 44.2249 21.2776 42.4905 21.2776 40.336H17.3887C17.3887 44.6449 20.8576 48.1138 25.1664 48.1138C29.4753 48.1138 32.9442 44.6449 32.9442 40.336C32.9442 37.7741 31.7088 35.5293 29.8088 34.1138C30.5492 33.1359 30.9998 31.935 30.9998 30.6138C30.9998 27.3922 28.3881 24.7805 25.1664 24.7805Z" fill="#5555FF"/>
<path d="M11.5554 7.28076C9.94456 7.28076 8.63872 8.58659 8.63872 10.1974H10.5832C10.5832 9.66048 11.0184 9.2252 11.5554 9.2252C12.0923 9.2252 12.5276 9.66048 12.5276 10.1974C12.5276 10.7344 12.0923 11.1696 11.5554 11.1696H10.3887V13.1141H11.5554C12.6326 13.1141 13.4998 13.9813 13.4998 15.0585C13.4998 16.1357 12.6326 17.003 11.5554 17.003C10.4782 17.003 9.61095 16.1357 9.61095 15.0585H7.6665C7.6665 17.213 9.40095 18.9474 11.5554 18.9474C13.7098 18.9474 15.4443 17.213 15.4443 15.0585C15.4443 13.7776 14.8266 12.6551 13.8766 11.9474C14.2468 11.4584 14.472 10.858 14.472 10.1974C14.472 8.58659 13.1662 7.28076 11.5554 7.28076Z" fill="white"/>
<path d="M38.7776 65.6137C40.3884 65.6137 41.6942 64.3078 41.6942 62.697H39.7498C39.7498 63.234 39.3145 63.6692 38.7776 63.6692C38.2406 63.6692 37.8053 63.234 37.8053 62.697C37.8053 62.1601 38.2406 61.7248 38.7776 61.7248H39.9442V59.7803H38.7776C37.7003 59.7803 36.8331 58.9131 36.8331 57.8359C36.8331 56.7587 37.7003 55.8915 38.7776 55.8915C39.8548 55.8915 40.722 56.7587 40.722 57.8359H42.6664C42.6664 55.6815 40.932 53.947 38.7776 53.947C36.6231 53.947 34.8887 55.6815 34.8887 57.8359C34.8887 59.1169 35.5063 60.2393 36.4564 60.947C36.0862 61.436 35.8609 62.0364 35.8609 62.697C35.8609 64.3078 37.1667 65.6137 38.7776 65.6137Z" fill="white"/>
</svg>
