<svg width="49" height="73" viewBox="0 0 49 73" fill="none" xmlns="http://www.w3.org/2000/svg">
<path d="M39.9997 1.44727H8.8886C4.59306 1.44727 1.11084 4.92949 1.11084 9.22503V63.6694C1.11084 67.9649 4.59306 71.4471 8.8886 71.4471H39.9997C44.2952 71.4471 47.7774 67.9649 47.7774 63.6694V9.22503C47.7774 4.92949 44.2952 1.44727 39.9997 1.44727Z" fill="white" stroke="black" stroke-width="2"/>
<path d="M39.9999 5.33618H8.88888C6.74111 5.33618 5 7.07729 5 9.22506V63.6694C5 65.8172 6.74111 67.5583 8.88888 67.5583H39.9999C42.1477 67.5583 43.8888 65.8172 43.8888 63.6694V9.22506C43.8888 7.07729 42.1477 5.33618 39.9999 5.33618Z" fill="#5555FF"/>
<path fill-rule="evenodd" clip-rule="evenodd" d="M36.1111 17.0027C18.9289 17.0027 5 30.9316 5 48.1137C5 52.4093 8.48222 55.8915 12.7778 55.8915C29.9599 55.8915 43.8888 41.9626 43.8888 24.7804C43.8888 20.4849 40.4066 17.0027 36.1111 17.0027Z" fill="white"/>
<path d="M23.5109 24.7805L15.8887 40.336V44.2249H25.222V48.1138H29.1109V44.2249H31.4442V40.336H29.1109V32.5583H25.222V40.336H19.9331L27.5553 24.7805H23.5109Z" fill="#5555FF"/>
<path d="M10.6773 7.28076L6.86621 15.0585V17.003H11.5329V18.9474H13.4773V17.003H14.644V15.0585H13.4773V11.1696H11.5329V15.0585H8.88843L12.6995 7.28076H10.6773Z" fill="white"/>
<path d="M38.055 65.6137L41.8661 57.8359V55.8915H37.1995V53.947H35.255V55.8915H34.0884V57.8359H35.255V61.7248H37.1995V57.8359H39.8439L36.0328 65.6137H38.055Z" fill="white"/>
</svg>
