<svg width="50" height="73" viewBox="0 0 50 73" fill="none" xmlns="http://www.w3.org/2000/svg">
<path d="M40.277 1.44727H9.16595C4.87041 1.44727 1.38818 4.92949 1.38818 9.22503V63.6694C1.38818 67.9649 4.87041 71.4471 9.16595 71.4471H40.277C44.5725 71.4471 48.0548 67.9649 48.0548 63.6694V9.22503C48.0548 4.92949 44.5725 1.44727 40.277 1.44727Z" fill="white" stroke="black" stroke-width="2"/>
<path d="M40.2768 5.33618H9.16574C7.01797 5.33618 5.27686 7.07729 5.27686 9.22506V63.6694C5.27686 65.8172 7.01797 67.5583 9.16574 67.5583H40.2768C42.4246 67.5583 44.1657 65.8172 44.1657 63.6694V9.22506C44.1657 7.07729 42.4246 5.33618 40.2768 5.33618Z" fill="#5555FF"/>
<path fill-rule="evenodd" clip-rule="evenodd" d="M36.3879 17.0027C19.2057 17.0027 5.27686 30.9316 5.27686 48.1137C5.27686 52.4093 8.75908 55.8915 13.0546 55.8915C30.2368 55.8915 44.1657 41.9626 44.1657 24.7804C44.1657 20.4849 40.6835 17.0027 36.3879 17.0027Z" fill="white"/>
<path d="M17.7217 24.7805V32.5583V36.4472H25.4994C27.6539 36.4472 29.3883 38.1816 29.3883 40.336C29.3883 42.4905 27.6539 44.2249 25.4994 44.2249C23.345 44.2249 21.6106 42.4905 21.6106 40.336H17.7217C17.7217 44.6449 21.1906 48.1138 25.4994 48.1138C29.8083 48.1138 33.2772 44.6449 33.2772 40.336C33.2772 36.0272 29.8083 32.5583 25.4994 32.5583H21.6106V28.6694H25.4994H32.4994V24.7805H25.4994H21.6106H17.7217Z" fill="#5555FF"/>
<path d="M7.22168 7.28076V11.1696V13.1141H11.1106C12.1878 13.1141 13.055 13.9813 13.055 15.0585C13.055 16.1357 12.1878 17.003 11.1106 17.003C10.0333 17.003 9.16612 16.1357 9.16612 15.0585H7.22168C7.22168 17.213 8.95612 18.9474 11.1106 18.9474C13.265 18.9474 14.9994 17.213 14.9994 15.0585C14.9994 12.9041 13.265 11.1696 11.1106 11.1696H9.16612V9.2252H11.1106H14.6106V7.28076H11.1106H9.16612H7.22168Z" fill="white"/>
<path d="M42.2216 65.6137V61.7248V59.7803H38.3327C37.2555 59.7803 36.3883 58.9131 36.3883 57.8359C36.3883 56.7587 37.2555 55.8915 38.3327 55.8915C39.41 55.8915 40.2772 56.7587 40.2772 57.8359H42.2216C42.2216 55.6815 40.4872 53.947 38.3327 53.947C36.1783 53.947 34.4438 55.6815 34.4438 57.8359C34.4438 59.9903 36.1783 61.7248 38.3327 61.7248H40.2772V63.6692H38.3327H34.8327V65.6137H38.3327H40.2772H42.2216Z" fill="white"/>
</svg>
