<svg width="50" height="73" viewBox="0 0 50 73" fill="none" xmlns="http://www.w3.org/2000/svg">
<path d="M40.5548 1.44727H9.44378C5.14824 1.44727 1.66602 4.92949 1.66602 9.22503V63.6694C1.66602 67.9649 5.14824 71.4471 9.44378 71.4471H40.5548C44.8504 71.4471 48.3326 67.9649 48.3326 63.6694V9.22503C48.3326 4.92949 44.8504 1.44727 40.5548 1.44727Z" fill="white" stroke="black" stroke-width="2"/>
<path d="M40.5546 5.33618H9.44357C7.2958 5.33618 5.55469 7.07729 5.55469 9.22506V63.6694C5.55469 65.8172 7.2958 67.5583 9.44357 67.5583H40.5546C42.7024 67.5583 44.4435 65.8172 44.4435 63.6694V9.22506C44.4435 7.07729 42.7024 5.33618 40.5546 5.33618Z" fill="#5555FF"/>
<path fill-rule="evenodd" clip-rule="evenodd" d="M36.6657 17.0027C19.4836 17.0027 5.55469 30.9316 5.55469 48.1137C5.55469 52.4093 9.03691 55.8915 13.3325 55.8915C30.5146 55.8915 44.4435 41.9626 44.4435 24.7804C44.4435 20.4849 40.9613 17.0027 36.6657 17.0027Z" fill="white"/>
<path fill-rule="evenodd" clip-rule="evenodd" d="M24.9994 24.7805C20.7039 24.7805 17.2217 28.2627 17.2217 32.5583V40.336C17.2217 44.6316 20.7039 48.1138 24.9994 48.1138C29.295 48.1138 32.7772 44.6316 32.7772 40.336C32.7772 36.0405 29.295 32.5583 24.9994 32.5583C23.5862 32.5583 22.2527 32.9446 21.1106 33.6034V32.5583C21.1106 30.4105 22.8517 28.6694 24.9994 28.6694C26.5194 28.6694 27.8112 29.5615 28.4508 30.8326L31.9508 29.0826C30.6758 26.5281 28.0485 24.7805 24.9994 24.7805ZM24.9994 36.4472C27.1472 36.4472 28.8883 38.1883 28.8883 40.336C28.8883 42.4838 27.1472 44.2249 24.9994 44.2249C22.8517 44.2249 21.1106 42.4838 21.1106 40.336C21.1106 38.1883 22.8517 36.4472 24.9994 36.4472ZM21.1106 48.8916V50.4471H28.8883V48.8916H21.1106Z" fill="#5555FF"/>
<path fill-rule="evenodd" clip-rule="evenodd" d="M11.3884 7.28076C9.24062 7.28076 7.49951 9.02188 7.49951 11.1696V15.0585C7.49951 17.2063 9.24062 18.9474 11.3884 18.9474C13.5362 18.9474 15.2773 17.2063 15.2773 15.0585C15.2773 12.9107 13.5362 11.1696 11.3884 11.1696C10.6818 11.1696 10.015 11.3628 9.44395 11.6922V11.1696C9.44395 10.0958 10.3145 9.2252 11.3884 9.2252C12.1484 9.2252 12.7943 9.67127 13.1141 10.3068L14.8641 9.4318C14.2266 8.15455 12.9129 7.28076 11.3884 7.28076ZM11.3884 13.1141C12.4623 13.1141 13.3328 13.9846 13.3328 15.0585C13.3328 16.1324 12.4623 17.003 11.3884 17.003C10.3145 17.003 9.44395 16.1324 9.44395 15.0585C9.44395 13.9846 10.3145 13.1141 11.3884 13.1141Z" fill="white"/>
<path fill-rule="evenodd" clip-rule="evenodd" d="M38.6106 65.6137C40.7583 65.6137 42.4994 63.8725 42.4994 61.7248V57.8359C42.4994 55.6881 40.7583 53.947 38.6106 53.947C36.4628 53.947 34.7217 55.6881 34.7217 57.8359C34.7217 59.9837 36.4628 61.7248 38.6106 61.7248C39.3172 61.7248 39.984 61.5316 40.555 61.2022V61.7248C40.555 62.7986 39.6844 63.6692 38.6106 63.6692C37.8506 63.6692 37.2047 63.2231 36.8849 62.5876L35.1349 63.4626C35.7724 64.7399 37.086 65.6137 38.6106 65.6137ZM38.6106 59.7803C37.5367 59.7803 36.6661 58.9098 36.6661 57.8359C36.6661 56.762 37.5367 55.8915 38.6106 55.8915C39.6844 55.8915 40.555 56.762 40.555 57.8359C40.555 58.9098 39.6844 59.7803 38.6106 59.7803Z" fill="white"/>
</svg>
