<svg width="50" height="73" viewBox="0 0 50 73" fill="none" xmlns="http://www.w3.org/2000/svg">
<path d="M40.8327 1.44727H9.72161C5.42607 1.44727 1.94385 4.92949 1.94385 9.22503V63.6694C1.94385 67.9649 5.42607 71.4471 9.72161 71.4471H40.8327C45.1282 71.4471 48.6104 67.9649 48.6104 63.6694V9.22503C48.6104 4.92949 45.1282 1.44727 40.8327 1.44727Z" fill="white" stroke="black" stroke-width="2"/>
<path d="M40.8329 5.33618H9.72189C7.57412 5.33618 5.83301 7.07729 5.83301 9.22506V63.6694C5.83301 65.8172 7.57412 67.5583 9.72189 67.5583H40.8329C42.9807 67.5583 44.7218 65.8172 44.7218 63.6694V9.22506C44.7218 7.07729 42.9807 5.33618 40.8329 5.33618Z" fill="#5555FF"/>
<path fill-rule="evenodd" clip-rule="evenodd" d="M36.9441 17.0027C19.7619 17.0027 5.83301 30.9316 5.83301 48.1137C5.83301 52.4093 9.31523 55.8915 13.6108 55.8915C30.7929 55.8915 44.7218 41.9626 44.7218 24.7804C44.7218 20.4849 41.2396 17.0027 36.9441 17.0027Z" fill="white"/>
<path fill-rule="evenodd" clip-rule="evenodd" d="M18.666 24.7805V32.5583H22.5549V28.6694H30.3327L22.5549 48.1138H26.4438L34.2215 28.6694V24.7805H22.5549H18.666Z" fill="#5555FF"/>
<path fill-rule="evenodd" clip-rule="evenodd" d="M7.77734 7.28076V11.1696H9.72178V9.2252H13.6107L9.72178 18.9474H11.6662L15.5551 9.2252V7.28076H9.72178H7.77734Z" fill="white"/>
<path fill-rule="evenodd" clip-rule="evenodd" d="M42.7773 65.6137V61.7248H40.8328V63.6692H36.944L40.8328 53.947H38.8884L34.9995 63.6692V65.6137H40.8328H42.7773Z" fill="white"/>
</svg>
