<svg width="49" height="73" viewBox="0 0 49 73" fill="none" xmlns="http://www.w3.org/2000/svg">
<path d="M40.11 1.44727H8.99896C4.70341 1.44727 1.22119 4.92949 1.22119 9.22503V63.6694C1.22119 67.9649 4.70341 71.4471 8.99896 71.4471H40.11C44.4056 71.4471 47.8878 67.9649 47.8878 63.6694V9.22503C47.8878 4.92949 44.4056 1.44727 40.11 1.44727Z" fill="white" stroke="black" stroke-width="2"/>
<path d="M40.1098 5.33618H8.99875C6.85098 5.33618 5.10986 7.07729 5.10986 9.22506V63.6694C5.10986 65.8172 6.85098 67.5583 8.99875 67.5583H40.1098C42.2576 67.5583 43.9987 65.8172 43.9987 63.6694V9.22506C43.9987 7.07729 42.2576 5.33618 40.1098 5.33618Z" fill="#5555FF"/>
<path fill-rule="evenodd" clip-rule="evenodd" d="M36.2209 17.0027C19.0388 17.0027 5.10986 30.9316 5.10986 48.1137C5.10986 52.4093 8.59208 55.8915 12.8876 55.8915C30.0698 55.8915 43.9987 41.9626 43.9987 24.7804C43.9987 20.4849 40.5165 17.0027 36.2209 17.0027Z" fill="white"/>
<path d="M24.5546 24.7805C21.333 24.7805 18.7213 27.3921 18.7213 30.6138C18.7213 31.935 19.1719 33.1359 19.9123 34.1138C18.0122 35.5293 16.7769 37.7741 16.7769 40.336C16.7769 44.6449 20.2457 48.1138 24.5546 48.1138C28.8635 48.1138 32.3324 44.6449 32.3324 40.336C32.3324 37.7741 31.097 35.5293 29.197 34.1138C29.9374 33.1359 30.3879 31.935 30.3879 30.6138C30.3879 27.3921 27.7763 24.7805 24.5546 24.7805ZM24.5546 28.6694C25.6285 28.6694 26.4991 29.54 26.4991 30.6138C26.4991 31.6877 25.6285 32.5583 24.5546 32.5583C23.4807 32.5583 22.6102 31.6877 22.6102 30.6138C22.6102 29.54 23.4807 28.6694 24.5546 28.6694ZM24.1657 36.4472C24.2968 36.4339 24.42 36.4472 24.5546 36.4472C26.7091 36.4472 28.4435 38.1816 28.4435 40.336C28.4435 42.4905 26.7091 44.2249 24.5546 44.2249C22.4002 44.2249 20.6657 42.4905 20.6657 40.336C20.6657 38.3162 22.2 36.6456 24.1657 36.4472Z" fill="#5555FF"/>
<path d="M10.9436 7.28076C9.33274 7.28076 8.02691 8.58656 8.02691 10.1974C8.02691 10.858 8.2522 11.4584 8.62239 11.9474C7.67237 12.6551 7.05469 13.7775 7.05469 15.0585C7.05469 17.213 8.78913 18.9474 10.9436 18.9474C13.098 18.9474 14.8325 17.213 14.8325 15.0585C14.8325 13.7775 14.2148 12.6551 13.2647 11.9474C13.635 11.4584 13.8602 10.858 13.8602 10.1974C13.8602 8.58656 12.5544 7.28076 10.9436 7.28076ZM10.9436 9.2252C11.4805 9.2252 11.9158 9.66049 11.9158 10.1974C11.9158 10.7344 11.4805 11.1696 10.9436 11.1696C10.4066 11.1696 9.97135 10.7344 9.97135 10.1974C9.97135 9.66049 10.4066 9.2252 10.9436 9.2252ZM10.7491 13.1141C10.8146 13.1071 10.8762 13.1141 10.9436 13.1141C12.0208 13.1141 12.888 13.9813 12.888 15.0585C12.888 16.1357 12.0208 17.003 10.9436 17.003C9.86635 17.003 8.99913 16.1357 8.99913 15.0585C8.99913 14.0486 9.76625 13.2133 10.7491 13.1141Z" fill="white"/>
<path d="M38.1657 65.6137C36.5549 65.6137 35.2491 64.3079 35.2491 62.697C35.2491 62.0364 35.4744 61.436 35.8446 60.947C34.8945 60.2393 34.2769 59.1169 34.2769 57.8359C34.2769 55.6815 36.0113 53.947 38.1657 53.947C40.3202 53.947 42.0546 55.6815 42.0546 57.8359C42.0546 59.1169 41.4369 60.2393 40.4869 60.947C40.8571 61.436 41.0824 62.0364 41.0824 62.697C41.0824 64.3079 39.7766 65.6137 38.1657 65.6137ZM38.1657 63.6692C38.7027 63.6692 39.138 63.2339 39.138 62.697C39.138 62.1601 38.7027 61.7248 38.1657 61.7248C37.6288 61.7248 37.1935 62.1601 37.1935 62.697C37.1935 63.2339 37.6288 63.6692 38.1657 63.6692ZM37.9713 59.7803C38.0368 59.7873 38.0984 59.7803 38.1657 59.7803C39.243 59.7803 40.1102 58.9131 40.1102 57.8359C40.1102 56.7587 39.243 55.8915 38.1657 55.8915C37.0885 55.8915 36.2213 56.7587 36.2213 57.8359C36.2213 58.8458 36.9884 59.6811 37.9713 59.7803Z" fill="white"/>
</svg>
