<svg width="50" height="73" viewBox="0 0 50 73" fill="none" xmlns="http://www.w3.org/2000/svg">
<path d="M40.3878 1.44727H9.27679C4.98125 1.44727 1.49902 4.92949 1.49902 9.22503V63.6694C1.49902 67.9649 4.98125 71.4471 9.27679 71.4471H40.3878C44.6834 71.4471 48.1656 67.9649 48.1656 63.6694V9.22503C48.1656 4.92949 44.6834 1.44727 40.3878 1.44727Z" fill="white" stroke="black" stroke-width="2"/>
<path d="M40.3876 5.33618H9.27658C7.12881 5.33618 5.3877 7.07729 5.3877 9.22506V63.6694C5.3877 65.8172 7.12881 67.5583 9.27658 67.5583H40.3876C42.5354 67.5583 44.2765 65.8172 44.2765 63.6694V9.22506C44.2765 7.07729 42.5354 5.33618 40.3876 5.33618Z" fill="#5555FF"/>
<path fill-rule="evenodd" clip-rule="evenodd" d="M36.4988 17.0027C19.3166 17.0027 5.3877 30.9316 5.3877 48.1137C5.3877 52.4093 8.86992 55.8915 13.1655 55.8915C30.3476 55.8915 44.2765 41.9626 44.2765 24.7804C44.2765 20.4849 40.7943 17.0027 36.4988 17.0027Z" fill="white"/>
<path fill-rule="evenodd" clip-rule="evenodd" d="M24.8325 24.7805C20.5369 24.7805 17.0547 28.2627 17.0547 32.5583C17.0547 36.8538 20.5369 40.336 24.8325 40.336C26.2457 40.336 27.5792 39.9497 28.7213 39.2909V40.336C28.7213 42.4838 26.9802 44.2249 24.8325 44.2249C23.3125 44.2249 22.0207 43.3328 21.3811 42.0617L17.8811 43.8117C19.1561 46.3662 21.7834 48.1138 24.8325 48.1138C29.128 48.1138 32.6102 44.6316 32.6102 40.336V32.5583C32.6102 28.2627 29.128 24.7805 24.8325 24.7805ZM24.8325 28.6694C26.9802 28.6694 28.7213 30.4105 28.7213 32.5583C28.7213 34.706 26.9802 36.4472 24.8325 36.4472C22.6847 36.4472 20.9436 34.706 20.9436 32.5583C20.9436 30.4105 22.6847 28.6694 24.8325 28.6694ZM20.9436 48.8916V50.4471H28.7213V48.8916H20.9436Z" fill="#5555FF"/>
<path fill-rule="evenodd" clip-rule="evenodd" d="M11.2214 18.9474C13.3692 18.9474 15.1103 17.2063 15.1103 15.0585V11.1696C15.1103 9.02187 13.3692 7.28076 11.2214 7.28076C9.07363 7.28076 7.33252 9.02187 7.33252 11.1696C7.33252 13.3174 9.07363 15.0585 11.2214 15.0585C11.928 15.0585 12.5948 14.8653 13.1658 14.536V15.0585C13.1658 16.1324 12.2953 17.003 11.2214 17.003C10.4614 17.003 9.81552 16.5569 9.49571 15.9214L7.74571 16.7964C8.38319 18.0736 9.69687 18.9474 11.2214 18.9474ZM11.2214 13.1141C10.1475 13.1141 9.27696 12.2435 9.27696 11.1696C9.27696 10.0958 10.1475 9.2252 11.2214 9.2252C12.2953 9.2252 13.1658 10.0958 13.1658 11.1696C13.1658 12.2435 12.2953 13.1141 11.2214 13.1141Z" fill="white"/>
<path fill-rule="evenodd" clip-rule="evenodd" d="M38.4436 53.947C36.2958 53.947 34.5547 55.6882 34.5547 57.8359V61.7248C34.5547 63.8726 36.2958 65.6137 38.4436 65.6137C40.5913 65.6137 42.3325 63.8726 42.3325 61.7248C42.3325 59.577 40.5913 57.8359 38.4436 57.8359C37.737 57.8359 37.0702 58.0291 36.4991 58.3585V57.8359C36.4991 56.762 37.3697 55.8915 38.4436 55.8915C39.2036 55.8915 39.8494 56.3375 40.1693 56.9731L41.9193 56.0981C41.2818 54.8208 39.9681 53.947 38.4436 53.947ZM38.4436 59.7803C39.5174 59.7803 40.388 60.6509 40.388 61.7248C40.388 62.7987 39.5174 63.6692 38.4436 63.6692C37.3697 63.6692 36.4991 62.7987 36.4991 61.7248C36.4991 60.6509 37.3697 59.7803 38.4436 59.7803Z" fill="white"/>
</svg>
