<svg width="49" height="73" viewBox="0 0 49 73" fill="none" xmlns="http://www.w3.org/2000/svg">
<path d="M40.2209 1.44702H9.1098C4.81425 1.44702 1.33203 4.92924 1.33203 9.22479V63.6691C1.33203 67.9647 4.81425 71.4469 9.1098 71.4469H40.2209C44.5164 71.4469 47.9986 67.9647 47.9986 63.6691V9.22479C47.9986 4.92924 44.5164 1.44702 40.2209 1.44702Z" fill="white" stroke="black" stroke-width="2"/>
<path d="M40.2206 5.33594H9.10959C6.96181 5.33594 5.2207 7.07705 5.2207 9.22482V63.6692C5.2207 65.8169 6.96181 67.5581 9.10959 67.5581H40.2206C42.3684 67.5581 44.1095 65.8169 44.1095 63.6692V9.22482C44.1095 7.07705 42.3684 5.33594 40.2206 5.33594Z" fill="#5555FF"/>
<path fill-rule="evenodd" clip-rule="evenodd" d="M36.3318 17.0024C19.1496 17.0024 5.2207 30.9313 5.2207 48.1135C5.2207 52.409 8.70292 55.8913 12.9985 55.8913C30.1806 55.8913 44.1095 41.9624 44.1095 24.7802C44.1095 20.4847 40.6273 17.0024 36.3318 17.0024Z" fill="white"/>
<path d="M27.1656 30.6135H19.3878C18.3139 30.6135 17.2187 31.3997 16.9417 32.3694L12.945 46.3577C12.6679 47.3274 13.3139 48.1135 14.3878 48.1135H22.1656C23.2394 48.1135 24.3346 47.3274 24.6116 46.3577L28.6083 32.3694C28.8854 31.3997 28.2394 30.6135 27.1656 30.6135Z" fill="white" stroke="black" stroke-width="2.03962"/>
<path d="M24.6654 32.5581H20.7765C19.7026 32.5581 18.6074 33.3442 18.3304 34.3139L15.4448 44.4134C15.1677 45.3831 15.8137 46.1692 16.8876 46.1692H20.7765C21.8503 46.1692 22.9455 45.3831 23.2225 44.4134L26.1081 34.3139C26.3852 33.3442 25.7392 32.5581 24.6654 32.5581Z" fill="#5555FF"/>
<path d="M34.9429 24.7803H27.1651C26.0913 24.7803 24.9961 25.5664 24.719 26.5361L20.7223 40.5245C20.4453 41.4942 21.0912 42.2803 22.1651 42.2803H29.9429C31.0168 42.2803 32.1119 41.4942 32.389 40.5245L36.3857 26.5361C36.6628 25.5664 36.0168 24.7803 34.9429 24.7803Z" fill="white" stroke="black" stroke-width="2.03962"/>
<path d="M32.4432 26.7249H28.5543C27.4804 26.7249 26.3853 27.5109 26.1082 28.4806L23.2226 38.5802C22.9456 39.5499 23.5915 40.336 24.6654 40.336H28.5543C29.6282 40.336 30.7233 39.5499 31.0004 38.5802L33.886 28.4806C34.163 27.5109 33.5171 26.7249 32.4432 26.7249Z" fill="#5555FF"/>
<path fill-rule="evenodd" clip-rule="evenodd" d="M7.94298 11.1692V13.1137H5.99854V15.0581H7.94298V17.0025H9.88742V15.0581H11.8319V13.1137H9.88742V11.1692H7.94298Z" fill="white"/>
<path d="M16.8874 7.28027C14.733 7.28027 12.9985 9.01471 12.9985 11.1692V11.558H14.943V11.1692C14.943 10.0919 15.8102 9.22471 16.8874 9.22471C17.9646 9.22471 18.8319 10.0919 18.8319 11.1692C18.8319 11.6076 18.468 12.4681 18.0881 12.7671C16.0251 14.3907 16.0469 14.1226 12.9985 16.2247V18.9469H16.8874H20.7763V17.0025V16.2247H18.8319V17.0025H16.8874H15.3319C17.7391 15.3074 17.9151 15.3485 19.8014 13.6605C20.4057 13.1196 20.7763 12.0462 20.7763 11.1692C20.7763 9.01471 19.0419 7.28027 16.8874 7.28027Z" fill="white"/>
<path fill-rule="evenodd" clip-rule="evenodd" d="M41.3874 61.7249V59.7805H43.3319V57.8361H41.3874V55.8916H39.443V57.8361H37.4985V59.7805H39.443V61.7249H41.3874Z" fill="white"/>
<path d="M32.4431 65.6137C34.5975 65.6137 36.332 63.8792 36.332 61.7248V61.3359H34.3875V61.7248C34.3875 62.802 33.5203 63.6692 32.4431 63.6692C31.3659 63.6692 30.4986 62.802 30.4986 61.7248C30.4986 61.2864 30.8625 60.4258 31.2424 60.1268C33.3054 58.5033 33.2836 58.7714 36.332 56.6692V53.947H32.4431H28.5542V55.8915V56.6692H30.4986V55.8915H32.4431H33.9986C31.5914 57.5865 31.4154 57.5455 29.5291 59.2335C28.9248 59.7743 28.5542 60.8478 28.5542 61.7248C28.5542 63.8792 30.2886 65.6137 32.4431 65.6137Z" fill="white"/>
</svg>
