<svg width="49" height="73" viewBox="0 0 49 73" fill="none" xmlns="http://www.w3.org/2000/svg">
<path d="M39.9435 1.44727H8.83245C4.53691 1.44727 1.05469 4.92949 1.05469 9.22503V63.6694C1.05469 67.9649 4.53691 71.4471 8.83245 71.4471H39.9435C44.239 71.4471 47.7213 67.9649 47.7213 63.6694V9.22503C47.7213 4.92949 44.239 1.44727 39.9435 1.44727Z" fill="white" stroke="black" stroke-width="2"/>
<path d="M39.9433 5.33618H8.83224C6.68447 5.33618 4.94336 7.07729 4.94336 9.22506V63.6694C4.94336 65.8172 6.68447 67.5583 8.83224 67.5583H39.9433C42.0911 67.5583 43.8322 65.8172 43.8322 63.6694V9.22506C43.8322 7.07729 42.0911 5.33618 39.9433 5.33618Z" fill="#5555FF"/>
<path fill-rule="evenodd" clip-rule="evenodd" d="M36.0544 17.0027C18.8723 17.0027 4.94336 30.9316 4.94336 48.1137C4.94336 52.4093 8.42558 55.8915 12.7211 55.8915C29.9033 55.8915 43.8322 41.9626 43.8322 24.7804C43.8322 20.4849 40.35 17.0027 36.0544 17.0027Z" fill="white"/>
<path d="M24.3878 23.8081L26.3323 25.7525L18.5545 33.5303C16.6101 35.4748 16.6101 39.3636 18.5545 41.3081L22.4434 37.4192L30.2212 29.6414L32.1656 31.5859V23.8081H24.3878Z" fill="#5555FF"/>
<path d="M24.3881 49.0859L22.4437 47.1415L30.2214 39.3637C32.1659 37.4193 32.1659 33.5304 30.2214 31.5859L26.3326 35.4748L18.5548 43.2526L16.6104 41.3081V49.0859H24.3881Z" fill="#5555FF"/>
<path d="M10.7767 7.28052L11.7489 8.25274L7.86002 12.1416C6.8878 13.1138 6.8878 15.0583 7.86002 16.0305L9.80447 14.0861L13.6933 10.1972L14.6656 11.1694V7.28052H10.7767Z" fill="white"/>
<path d="M10.7771 19.9192L9.80485 18.947L13.6937 15.0581C14.6659 14.0859 14.6659 12.1414 13.6937 11.1692L11.7493 13.1136L7.8604 17.0025L6.88818 16.0303V19.9192H10.7771Z" fill="white"/>
<path d="M37.9993 52.9749L38.9716 53.9471L35.0827 57.836C34.1105 58.8082 34.1105 60.7526 35.0827 61.7248L37.0271 59.7804L40.916 55.8915L41.8882 56.8637V52.9749H37.9993Z" fill="white"/>
<path d="M37.9992 65.6138L37.027 64.6415L40.9159 60.7527C41.8881 59.7804 41.8881 57.836 40.9159 56.8638L38.9715 58.8082L35.0826 62.6971L34.1104 61.7249V65.6138H37.9992Z" fill="white"/>
</svg>
