<svg width="50" height="73" viewBox="0 0 50 73" fill="none" xmlns="http://www.w3.org/2000/svg">
<path d="M40.6657 1.44727H9.55462C5.25908 1.44727 1.77686 4.92949 1.77686 9.22503V63.6694C1.77686 67.9649 5.25908 71.4471 9.55462 71.4471H40.6657C44.9612 71.4471 48.4434 67.9649 48.4434 63.6694V9.22503C48.4434 4.92949 44.9612 1.44727 40.6657 1.44727Z" fill="white" stroke="black" stroke-width="2"/>
<path d="M40.6655 5.33618H9.55441C7.40664 5.33618 5.66553 7.07729 5.66553 9.22506V63.6694C5.66553 65.8172 7.40664 67.5583 9.55441 67.5583H40.6655C42.8132 67.5583 44.5543 65.8172 44.5543 63.6694V9.22506C44.5543 7.07729 42.8132 5.33618 40.6655 5.33618Z" fill="#5555FF"/>
<path fill-rule="evenodd" clip-rule="evenodd" d="M36.7766 17.0027C19.5944 17.0027 5.66553 30.9316 5.66553 48.1137C5.66553 52.4093 9.14775 55.8915 13.4433 55.8915C30.6255 55.8915 44.5543 41.9626 44.5543 24.7804C44.5543 20.4849 41.0721 17.0027 36.7766 17.0027Z" fill="white"/>
<path fill-rule="evenodd" clip-rule="evenodd" d="M25.1345 24.7803C22.1488 24.7764 19.1517 25.908 16.8706 28.1831C12.3086 32.7333 12.2962 40.1245 16.8464 44.6865C21.3965 49.2486 28.7878 49.261 33.3498 44.7108C37.9119 40.1606 37.9242 32.7694 33.3741 28.2074C31.099 25.9263 28.1203 24.7842 25.1345 24.7803V24.7803ZM25.1102 28.6692C26.4713 28.6708 27.8385 29.0271 29.0477 29.7386L18.4019 40.3845C16.6439 37.3995 17.0511 33.4891 19.6172 30.9296C21.1379 29.4129 23.1197 28.6666 25.1102 28.6692ZM31.8186 32.4852C33.5888 35.4724 33.1745 39.3998 30.6033 41.9643C28.0345 44.5264 24.1299 44.903 21.1484 43.131L31.8186 32.4852Z" fill="#5555FF"/>
<path fill-rule="evenodd" clip-rule="evenodd" d="M13.4558 7.28054C11.9632 7.27821 10.4649 7.84433 9.32465 8.98176C7.04406 11.2566 7.03785 14.9519 9.3125 17.2327C11.5871 19.5135 15.2821 19.5197 17.5627 17.2449C19.8433 14.97 19.8495 11.2747 17.5748 8.99391C16.4375 7.8535 14.9484 7.28247 13.4558 7.28052V7.28054ZM13.4437 9.22479C14.124 9.22556 14.8075 9.4037 15.412 9.75947L10.0901 15.0819C9.21126 13.5895 9.4148 11.6345 10.6976 10.3549C11.4578 9.59661 12.4486 9.22349 13.4437 9.22479ZM16.7972 11.1326C17.6821 12.6261 17.4751 14.5896 16.1897 15.8717C14.9055 17.1527 12.9536 17.3409 11.4631 16.455L16.7972 11.1326Z" fill="white"/>
<path fill-rule="evenodd" clip-rule="evenodd" d="M36.7888 53.947C35.2962 53.9447 33.798 54.5108 32.6577 55.6483C30.3771 57.9231 30.3709 61.6184 32.6455 63.8992C34.9202 66.18 38.6151 66.1862 40.8957 63.9114C43.1763 61.6365 43.1825 57.9412 40.9078 55.6604C39.7705 54.52 38.2814 53.949 36.7888 53.947V53.947ZM36.7767 55.8913C37.4571 55.8921 38.1405 56.0702 38.745 56.426L33.4231 61.7484C32.5443 60.256 32.7478 58.301 34.0306 57.0214C34.7908 56.2631 35.7816 55.89 36.7767 55.8913ZM40.1302 57.7991C41.0152 59.2926 40.8081 61.2561 39.5227 62.5382C38.2385 63.8192 36.2866 64.0074 34.7961 63.1215L40.1302 57.7991Z" fill="white"/>
</svg>
