<svg width="49" height="73" viewBox="0 0 49 73" fill="none" xmlns="http://www.w3.org/2000/svg">
<path d="M39.8889 1.48242H8.77778C4.48223 1.48242 1 4.96465 1 9.2602V63.7046C1 68.0002 4.48223 71.4824 8.77778 71.4824H39.8889C44.1844 71.4824 47.6667 68.0002 47.6667 63.7046V9.2602C47.6667 4.96465 44.1844 1.48242 39.8889 1.48242Z" fill="white" stroke="black" stroke-width="2"/>
<path d="M39.8892 5.37109H8.77805C6.63027 5.37109 4.88916 7.11221 4.88916 9.25998V63.7044C4.88916 65.8522 6.63027 67.5933 8.77805 67.5933H39.8892C42.0369 67.5933 43.778 65.8522 43.778 63.7044V9.25998C43.778 7.11221 42.0369 5.37109 39.8892 5.37109Z" fill="#FFAA00"/>
<path fill-rule="evenodd" clip-rule="evenodd" d="M36.0003 17.0378C18.8181 17.0378 4.88916 30.9668 4.88916 48.149C4.88916 52.4445 8.37139 55.9267 12.6669 55.9267C29.8491 55.9267 43.778 41.9978 43.778 24.8156C43.778 20.5201 40.2958 17.0378 36.0003 17.0378Z" fill="white"/>
<path fill-rule="evenodd" clip-rule="evenodd" d="M24.3334 24.8157C20.0379 24.8157 16.5557 28.2979 16.5557 32.5935V40.3712C16.5557 44.6668 20.0379 48.149 24.3334 48.149C28.629 48.149 32.1112 44.6668 32.1112 40.3712V32.5935C32.1112 28.2979 28.629 24.8157 24.3334 24.8157ZM24.3334 28.7046C26.4812 28.7046 28.2223 30.4457 28.2223 32.5935V40.3712C28.2223 42.519 26.4812 44.2601 24.3334 44.2601C22.1857 44.2601 20.4446 42.519 20.4446 40.3712V32.5935C20.4446 30.4457 22.1857 28.7046 24.3334 28.7046Z" fill="#FFAA00"/>
<path fill-rule="evenodd" clip-rule="evenodd" d="M10.7224 7.31567C8.57461 7.31567 6.8335 9.05678 6.8335 11.2046V15.0935C6.8335 17.2412 8.57461 18.9823 10.7224 18.9823C12.8702 18.9823 14.6113 17.2412 14.6113 15.0935V11.2046C14.6113 9.05678 12.8702 7.31567 10.7224 7.31567ZM10.7224 9.26012C11.7963 9.26012 12.6668 10.1307 12.6668 11.2046V15.0935C12.6668 16.1673 11.7963 17.0379 10.7224 17.0379C9.6485 17.0379 8.77794 16.1673 8.77794 15.0935V11.2046C8.77794 10.1307 9.6485 9.26012 10.7224 9.26012Z" fill="white"/>
<path fill-rule="evenodd" clip-rule="evenodd" d="M37.9446 53.9822C35.7968 53.9822 34.0557 55.7233 34.0557 57.8711V61.76C34.0557 63.9077 35.7968 65.6488 37.9446 65.6488C40.0923 65.6488 41.8334 63.9077 41.8334 61.76V57.8711C41.8334 55.7233 40.0923 53.9822 37.9446 53.9822ZM37.9446 55.9266C39.0184 55.9266 39.889 56.7972 39.889 57.8711V61.76C39.889 62.8338 39.0184 63.7044 37.9446 63.7044C36.8707 63.7044 36.0001 62.8338 36.0001 61.76V57.8711C36.0001 56.7972 36.8707 55.9266 37.9446 55.9266Z" fill="white"/>
</svg>
