<svg width="49" height="73" viewBox="0 0 49 73" fill="none" xmlns="http://www.w3.org/2000/svg">
<path d="M40.1667 1.48242H9.05561C4.76006 1.48242 1.27783 4.96465 1.27783 9.2602V63.7046C1.27783 68.0002 4.76006 71.4824 9.05561 71.4824H40.1667C44.4623 71.4824 47.9445 68.0002 47.9445 63.7046V9.2602C47.9445 4.96465 44.4623 1.48242 40.1667 1.48242Z" fill="white" stroke="black" stroke-width="2"/>
<path d="M40.1665 5.37109H9.05539C6.90762 5.37109 5.1665 7.11221 5.1665 9.25998V63.7044C5.1665 65.8522 6.90762 67.5933 9.05539 67.5933H40.1665C42.3143 67.5933 44.0554 65.8522 44.0554 63.7044V9.25998C44.0554 7.11221 42.3143 5.37109 40.1665 5.37109Z" fill="#FFAA00"/>
<path fill-rule="evenodd" clip-rule="evenodd" d="M36.2776 17.0378C19.0954 17.0378 5.1665 30.9668 5.1665 48.149C5.1665 52.4445 8.64873 55.9267 12.9443 55.9267C30.1265 55.9267 44.0554 41.9978 44.0554 24.8156C44.0554 20.5201 40.5732 17.0378 36.2776 17.0378Z" fill="white"/>
<path fill-rule="evenodd" clip-rule="evenodd" d="M23.0554 24.8157L19.1665 28.7046V33.3712L23.0554 29.4823V48.149H26.9443V24.8157H23.0554Z" fill="#FFAA00"/>
<path fill-rule="evenodd" clip-rule="evenodd" d="M9.05577 7.31567L7.11133 9.26012V11.5935L9.05577 9.64901V18.9823H11.0002V7.31567H9.05577Z" fill="white"/>
<path fill-rule="evenodd" clip-rule="evenodd" d="M40.1666 65.6488L42.1111 63.7044V61.3711L40.1666 63.3155V53.9822H38.2222V65.6488H40.1666Z" fill="white"/>
</svg>
