<svg width="50" height="73" viewBox="0 0 50 73" fill="none" xmlns="http://www.w3.org/2000/svg">
<path d="M40.4446 1.48242H9.33344C5.03789 1.48242 1.55566 4.96465 1.55566 9.2602V63.7046C1.55566 68.0002 5.03789 71.4824 9.33344 71.4824H40.4446C44.7401 71.4824 48.2223 68.0002 48.2223 63.7046V9.2602C48.2223 4.96465 44.7401 1.48242 40.4446 1.48242Z" fill="white" stroke="black" stroke-width="2"/>
<path d="M40.4443 5.37109H9.33322C7.18545 5.37109 5.44434 7.11221 5.44434 9.25998V63.7044C5.44434 65.8522 7.18545 67.5933 9.33322 67.5933H40.4443C42.5921 67.5933 44.3332 65.8522 44.3332 63.7044V9.25998C44.3332 7.11221 42.5921 5.37109 40.4443 5.37109Z" fill="#FFAA00"/>
<path fill-rule="evenodd" clip-rule="evenodd" d="M36.5554 17.0378C19.3733 17.0378 5.44434 30.9668 5.44434 48.149C5.44434 52.4445 8.92656 55.9267 13.2221 55.9267C30.4043 55.9267 44.3332 41.9978 44.3332 24.8156C44.3332 20.5201 40.851 17.0378 36.5554 17.0378Z" fill="white"/>
<path d="M24.1113 24.8157C19.8024 24.8157 16.3335 28.2846 16.3335 32.5935V33.3712H20.2224V32.5935C20.2224 30.439 21.9568 28.7046 24.1113 28.7046C26.2657 28.7046 28.0002 30.439 28.0002 32.5935C28.0002 33.4704 27.2725 35.1913 26.5127 35.7893C22.3867 39.0365 22.4303 38.5003 16.3335 42.7046V48.149H24.1113H31.8891V44.2601V42.7046H28.0002V44.2601H24.1113H21.0002C25.8147 40.87 26.1667 40.9521 29.9392 37.5761C31.1479 36.4944 31.8891 34.3475 31.8891 32.5935C31.8891 28.2846 28.4202 24.8157 24.1113 24.8157Z" fill="#FFAA00"/>
<path d="M11.278 7.31567C9.1236 7.31567 7.38916 9.05012 7.38916 11.2046V11.5935H9.3336V11.2046C9.3336 10.1273 10.2008 9.26012 11.278 9.26012C12.3553 9.26012 13.2225 10.1273 13.2225 11.2046C13.2225 11.643 12.8587 12.5035 12.4788 12.8025C10.4158 14.4261 10.4376 14.158 7.38916 16.2601V18.9823H11.278H15.1669V17.0379V16.2601H13.2225V17.0379H11.278H9.72249C12.1297 15.3428 12.3058 15.3839 14.192 13.6959C14.7964 13.155 15.1669 12.0816 15.1669 11.2046C15.1669 9.05012 13.4325 7.31567 11.278 7.31567Z" fill="white"/>
<path d="M38.5002 65.6488C40.6547 65.6488 42.3891 63.9144 42.3891 61.76V61.3711H40.4447V61.76C40.4447 62.8372 39.5774 63.7044 38.5002 63.7044C37.423 63.7044 36.5558 62.8372 36.5558 61.76C36.5558 61.3215 36.9196 60.461 37.2995 60.162C39.3625 58.5384 39.3407 58.8066 42.3891 56.7044V53.9822H38.5002H34.6113V55.9266V56.7044H36.5558V55.9266H38.5002H40.0558C37.6485 57.6217 37.4725 57.5806 35.5862 59.2686C34.9819 59.8095 34.6113 60.8829 34.6113 61.76C34.6113 63.9144 36.3458 65.6488 38.5002 65.6488Z" fill="white"/>
</svg>
