<svg width="50" height="73" viewBox="0 0 50 73" fill="none" xmlns="http://www.w3.org/2000/svg">
<path d="M40.7224 1.48242H9.61127C5.31573 1.48242 1.8335 4.96465 1.8335 9.2602V63.7046C1.8335 68.0002 5.31573 71.4824 9.61127 71.4824H40.7224C45.0179 71.4824 48.5002 68.0002 48.5002 63.7046V9.2602C48.5002 4.96465 45.0179 1.48242 40.7224 1.48242Z" fill="white" stroke="black" stroke-width="2"/>
<path d="M40.7222 5.37109H9.61106C7.46328 5.37109 5.72217 7.11221 5.72217 9.25998V63.7044C5.72217 65.8522 7.46328 67.5933 9.61106 67.5933H40.7222C42.8699 67.5933 44.6111 65.8522 44.6111 63.7044V9.25998C44.6111 7.11221 42.8699 5.37109 40.7222 5.37109Z" fill="#FFAA00"/>
<path fill-rule="evenodd" clip-rule="evenodd" d="M36.8333 17.0378C19.6511 17.0378 5.72217 30.9668 5.72217 48.149C5.72217 52.4445 9.2044 55.9267 13.4999 55.9267C30.6821 55.9267 44.6111 41.9978 44.6111 24.8156C44.6111 20.5201 41.1288 17.0378 36.8333 17.0378Z" fill="white"/>
<path d="M25.1669 24.8157C21.9453 24.8157 19.3336 27.4273 19.3336 30.649H23.2225C23.2225 29.5751 24.0931 28.7046 25.1669 28.7046C26.2408 28.7046 27.1114 29.5751 27.1114 30.649C27.1114 31.7229 26.2408 32.5935 25.1669 32.5935H22.8336V36.4823H25.1669C27.3214 36.4823 29.0558 38.2168 29.0558 40.3712C29.0558 42.5257 27.3214 44.2601 25.1669 44.2601C23.0125 44.2601 21.278 42.5257 21.278 40.3712H17.3892C17.3892 44.6801 20.858 48.149 25.1669 48.149C29.4758 48.149 32.9447 44.6801 32.9447 40.3712C32.9447 37.8093 31.7094 35.5645 29.8093 34.149C30.5497 33.171 31.0003 31.9702 31.0003 30.649C31.0003 27.4273 28.3886 24.8157 25.1669 24.8157Z" fill="#FFAA00"/>
<path d="M11.5559 7.31567C9.94505 7.31567 8.63921 8.62151 8.63921 10.2323H10.5837C10.5837 9.69539 11.0189 9.26012 11.5559 9.26012C12.0928 9.26012 12.5281 9.69539 12.5281 10.2323C12.5281 10.7693 12.0928 11.2046 11.5559 11.2046H10.3892V13.149H11.5559C12.6331 13.149 13.5003 14.0162 13.5003 15.0935C13.5003 16.1707 12.6331 17.0379 11.5559 17.0379C10.4787 17.0379 9.61144 16.1707 9.61144 15.0935H7.66699C7.66699 17.2479 9.40144 18.9823 11.5559 18.9823C13.7103 18.9823 15.4448 17.2479 15.4448 15.0935C15.4448 13.8125 14.8271 12.6901 13.8771 11.9823C14.2473 11.4934 14.4725 10.8929 14.4725 10.2323C14.4725 8.62151 13.1667 7.31567 11.5559 7.31567Z" fill="white"/>
<path d="M38.778 65.6488C40.3889 65.6488 41.6947 64.343 41.6947 62.7322H39.7503C39.7503 63.2691 39.315 63.7044 38.778 63.7044C38.2411 63.7044 37.8058 63.2691 37.8058 62.7322C37.8058 62.1952 38.2411 61.76 38.778 61.76H39.9447V59.8155H38.778C37.7008 59.8155 36.8336 58.9483 36.8336 57.8711C36.8336 56.7938 37.7008 55.9266 38.778 55.9266C39.8553 55.9266 40.7225 56.7938 40.7225 57.8711H42.6669C42.6669 55.7166 40.9325 53.9822 38.778 53.9822C36.6236 53.9822 34.8892 55.7166 34.8892 57.8711C34.8892 59.152 35.5068 60.2744 36.4569 60.9822C36.0867 61.4712 35.8614 62.0716 35.8614 62.7322C35.8614 64.343 37.1672 65.6488 38.778 65.6488Z" fill="white"/>
</svg>
