<svg width="49" height="73" viewBox="0 0 49 73" fill="none" xmlns="http://www.w3.org/2000/svg">
<path d="M40.0002 1.48242H8.88911C4.59356 1.48242 1.11133 4.96465 1.11133 9.2602V63.7046C1.11133 68.0002 4.59356 71.4824 8.88911 71.4824H40.0002C44.2958 71.4824 47.778 68.0002 47.778 63.7046V9.2602C47.778 4.96465 44.2958 1.48242 40.0002 1.48242Z" fill="white" stroke="black" stroke-width="2"/>
<path d="M40 5.37109H8.88889C6.74111 5.37109 5 7.11221 5 9.25998V63.7044C5 65.8522 6.74111 67.5933 8.88889 67.5933H40C42.1478 67.5933 43.8889 65.8522 43.8889 63.7044V9.25998C43.8889 7.11221 42.1478 5.37109 40 5.37109Z" fill="#FFAA00"/>
<path fill-rule="evenodd" clip-rule="evenodd" d="M36.1111 17.0378C18.9289 17.0378 5 30.9668 5 48.149C5 52.4445 8.48223 55.9267 12.7778 55.9267C29.96 55.9267 43.8889 41.9978 43.8889 24.8156C43.8889 20.5201 40.4067 17.0378 36.1111 17.0378Z" fill="white"/>
<path d="M23.5114 24.8157L15.8892 40.3712V44.2601H25.2225V48.149H29.1114V44.2601H31.4447V40.3712H29.1114V32.5935H25.2225V40.3712H19.9336L27.5558 24.8157H23.5114Z" fill="#FFAA00"/>
<path d="M10.6778 7.31567L6.8667 15.0935V17.0379H11.5334V18.9823H13.4778V17.0379H14.6445V15.0935H13.4778V11.2046H11.5334V15.0935H8.88893L12.7 7.31567H10.6778Z" fill="white"/>
<path d="M38.056 65.6489L41.8671 57.8711V55.9266H37.2005V53.9822H35.256V55.9266H34.0894V57.8711H35.256V61.76H37.2005V57.8711H39.8449L36.0338 65.6489H38.056Z" fill="white"/>
</svg>
