<svg width="50" height="73" viewBox="0 0 50 73" fill="none" xmlns="http://www.w3.org/2000/svg">
<path d="M40.2776 1.48242H9.16645C4.8709 1.48242 1.38867 4.96465 1.38867 9.2602V63.7046C1.38867 68.0002 4.8709 71.4824 9.16645 71.4824H40.2776C44.5731 71.4824 48.0553 68.0002 48.0553 63.7046V9.2602C48.0553 4.96465 44.5731 1.48242 40.2776 1.48242Z" fill="white" stroke="black" stroke-width="2"/>
<path d="M40.2773 5.37109H9.16623C7.01846 5.37109 5.27734 7.11221 5.27734 9.25998V63.7044C5.27734 65.8522 7.01846 67.5933 9.16623 67.5933H40.2773C42.4251 67.5933 44.1662 65.8522 44.1662 63.7044V9.25998C44.1662 7.11221 42.4251 5.37109 40.2773 5.37109Z" fill="#FFAA00"/>
<path fill-rule="evenodd" clip-rule="evenodd" d="M36.3885 17.0378C19.2063 17.0378 5.27734 30.9668 5.27734 48.149C5.27734 52.4445 8.75957 55.9267 13.0551 55.9267C30.2373 55.9267 44.1662 41.9978 44.1662 24.8156C44.1662 20.5201 40.684 17.0378 36.3885 17.0378Z" fill="white"/>
<path d="M17.7222 24.8157V32.5935V36.4823H25.4999C27.6544 36.4823 29.3888 38.2168 29.3888 40.3712C29.3888 42.5257 27.6544 44.2601 25.4999 44.2601C23.3455 44.2601 21.6111 42.5257 21.6111 40.3712H17.7222C17.7222 44.6801 21.1911 48.149 25.4999 48.149C29.8088 48.149 33.2777 44.6801 33.2777 40.3712C33.2777 36.0623 29.8088 32.5935 25.4999 32.5935H21.6111V28.7046H25.4999H32.4999V24.8157H25.4999H21.6111H17.7222Z" fill="#FFAA00"/>
<path d="M7.22168 7.31567V11.2046V13.149H11.1106C12.1878 13.149 13.055 14.0162 13.055 15.0935C13.055 16.1707 12.1878 17.0379 11.1106 17.0379C10.0333 17.0379 9.16612 16.1707 9.16612 15.0935H7.22168C7.22168 17.2479 8.95612 18.9823 11.1106 18.9823C13.265 18.9823 14.9995 17.2479 14.9995 15.0935C14.9995 12.939 13.265 11.2046 11.1106 11.2046H9.16612V9.26012H11.1106H14.6106V7.31567H11.1106H9.16612H7.22168Z" fill="white"/>
<path d="M42.2221 65.6488V61.76V59.8155H38.3332C37.256 59.8155 36.3888 58.9483 36.3888 57.8711C36.3888 56.7938 37.256 55.9266 38.3332 55.9266C39.4104 55.9266 40.2777 56.7938 40.2777 57.8711H42.2221C42.2221 55.7166 40.4877 53.9822 38.3332 53.9822C36.1788 53.9822 34.4443 55.7166 34.4443 57.8711C34.4443 60.0255 36.1788 61.76 38.3332 61.76H40.2777V63.7044H38.3332H34.8332V65.6488H38.3332H40.2777H42.2221Z" fill="white"/>
</svg>
