<svg width="50" height="73" viewBox="0 0 50 73" fill="none" xmlns="http://www.w3.org/2000/svg">
<path d="M40.5554 1.48242H9.44428C5.14873 1.48242 1.6665 4.96465 1.6665 9.2602V63.7046C1.6665 68.0002 5.14873 71.4824 9.44428 71.4824H40.5554C44.8509 71.4824 48.3332 68.0002 48.3332 63.7046V9.2602C48.3332 4.96465 44.8509 1.48242 40.5554 1.48242Z" fill="white" stroke="black" stroke-width="2"/>
<path d="M40.5552 5.37109H9.44406C7.29629 5.37109 5.55518 7.11221 5.55518 9.25998V63.7044C5.55518 65.8522 7.29629 67.5933 9.44406 67.5933H40.5552C42.7029 67.5933 44.4441 65.8522 44.4441 63.7044V9.25998C44.4441 7.11221 42.7029 5.37109 40.5552 5.37109Z" fill="#FFAA00"/>
<path fill-rule="evenodd" clip-rule="evenodd" d="M36.6663 17.0378C19.4841 17.0378 5.55518 30.9668 5.55518 48.149C5.55518 52.4445 9.0374 55.9267 13.333 55.9267C30.5151 55.9267 44.4441 41.9978 44.4441 24.8156C44.4441 20.5201 40.9618 17.0378 36.6663 17.0378Z" fill="white"/>
<path fill-rule="evenodd" clip-rule="evenodd" d="M24.9995 24.8157C20.7039 24.8157 17.2217 28.2979 17.2217 32.5935V40.3712C17.2217 44.6668 20.7039 48.149 24.9995 48.149C29.295 48.149 32.7772 44.6668 32.7772 40.3712C32.7772 36.0757 29.295 32.5935 24.9995 32.5935C23.5862 32.5935 22.2527 32.9798 21.1106 33.6386V32.5935C21.1106 30.4457 22.8517 28.7046 24.9995 28.7046C26.5194 28.7046 27.8112 29.5967 28.4508 30.8678L31.9508 29.1178C30.6759 26.5633 28.0485 24.8157 24.9995 24.8157ZM24.9995 36.4823C27.1472 36.4823 28.8883 38.2235 28.8883 40.3712C28.8883 42.519 27.1472 44.2601 24.9995 44.2601C22.8517 44.2601 21.1106 42.519 21.1106 40.3712C21.1106 38.2235 22.8517 36.4823 24.9995 36.4823ZM21.1106 48.9268V50.4823H28.8883V48.9268H21.1106Z" fill="#FFAA00"/>
<path fill-rule="evenodd" clip-rule="evenodd" d="M11.3889 7.31567C9.24111 7.31567 7.5 9.05679 7.5 11.2046V15.0934C7.5 17.2412 9.24111 18.9823 11.3889 18.9823C13.5367 18.9823 15.2778 17.2412 15.2778 15.0934C15.2778 12.9457 13.5367 11.2046 11.3889 11.2046C10.6823 11.2046 10.0155 11.3977 9.44444 11.7271V11.2046C9.44444 10.1307 10.315 9.26012 11.3889 9.26012C12.1489 9.26012 12.7948 9.70619 13.1146 10.3417L14.8646 9.46672C14.2271 8.18946 12.9134 7.31567 11.3889 7.31567ZM11.3889 13.149C12.4628 13.149 13.3333 14.0195 13.3333 15.0934C13.3333 16.1673 12.4628 17.0379 11.3889 17.0379C10.315 17.0379 9.44444 16.1673 9.44444 15.0934C9.44444 14.0195 10.315 13.149 11.3889 13.149Z" fill="white"/>
<path fill-rule="evenodd" clip-rule="evenodd" d="M38.6111 65.6488C40.7588 65.6488 42.4999 63.9077 42.4999 61.7599V57.8711C42.4999 55.7233 40.7588 53.9822 38.6111 53.9822C36.4633 53.9822 34.7222 55.7233 34.7222 57.8711C34.7222 60.0188 36.4633 61.7599 38.6111 61.7599C39.3177 61.7599 39.9844 61.5668 40.5555 61.2374V61.7599C40.5555 62.8338 39.6849 63.7044 38.6111 63.7044C37.8511 63.7044 37.2052 63.2583 36.8854 62.6228L35.1354 63.4978C35.7728 64.775 37.0865 65.6488 38.6111 65.6488ZM38.6111 59.8155C37.5372 59.8155 36.6666 58.945 36.6666 57.8711C36.6666 56.7972 37.5372 55.9266 38.6111 55.9266C39.6849 55.9266 40.5555 56.7972 40.5555 57.8711C40.5555 58.945 39.6849 59.8155 38.6111 59.8155Z" fill="white"/>
</svg>
