<svg width="50" height="73" viewBox="0 0 50 73" fill="none" xmlns="http://www.w3.org/2000/svg">
<path d="M40.8332 1.48242H9.72211C5.42657 1.48242 1.94434 4.96465 1.94434 9.2602V63.7046C1.94434 68.0002 5.42657 71.4824 9.72211 71.4824H40.8332C45.1288 71.4824 48.611 68.0002 48.611 63.7046V9.2602C48.611 4.96465 45.1288 1.48242 40.8332 1.48242Z" fill="white" stroke="black" stroke-width="2"/>
<path d="M40.833 5.37109H9.7219C7.57412 5.37109 5.83301 7.11221 5.83301 9.25998V63.7044C5.83301 65.8522 7.57412 67.5933 9.7219 67.5933H40.833C42.9808 67.5933 44.7219 65.8522 44.7219 63.7044V9.25998C44.7219 7.11221 42.9808 5.37109 40.833 5.37109Z" fill="#FFAA00"/>
<path fill-rule="evenodd" clip-rule="evenodd" d="M36.9441 17.0378C19.7619 17.0378 5.83301 30.9668 5.83301 48.149C5.83301 52.4445 9.31524 55.9267 13.6108 55.9267C30.793 55.9267 44.7219 41.9978 44.7219 24.8156C44.7219 20.5201 41.2397 17.0378 36.9441 17.0378Z" fill="white"/>
<path fill-rule="evenodd" clip-rule="evenodd" d="M18.6665 24.8157V32.5935H22.5554V28.7046H30.3332L22.5554 48.149H26.4443L34.2221 28.7046V24.8157H22.5554H18.6665Z" fill="#FFAA00"/>
<path fill-rule="evenodd" clip-rule="evenodd" d="M7.77783 7.31567V11.2046H9.72228V9.26012H13.6112L9.72228 18.9823H11.6667L15.5556 9.26012V7.31567H9.72228H7.77783Z" fill="white"/>
<path fill-rule="evenodd" clip-rule="evenodd" d="M42.7778 65.6488V61.76H40.8333V63.7044H36.9444L40.8333 53.9822H38.8889L35 63.7044V65.6488H40.8333H42.7778Z" fill="white"/>
</svg>
