<svg width="49" height="73" viewBox="0 0 49 73" fill="none" xmlns="http://www.w3.org/2000/svg">
<path d="M40.1111 1.48242H8.99995C4.7044 1.48242 1.22217 4.96465 1.22217 9.2602V63.7046C1.22217 68.0002 4.7044 71.4824 8.99995 71.4824H40.1111C44.4066 71.4824 47.8888 68.0002 47.8888 63.7046V9.2602C47.8888 4.96465 44.4066 1.48242 40.1111 1.48242Z" fill="white" stroke="black" stroke-width="2"/>
<path d="M40.1113 5.37109H9.00022C6.85244 5.37109 5.11133 7.11221 5.11133 9.25998V63.7044C5.11133 65.8522 6.85244 67.5933 9.00022 67.5933H40.1113C42.2591 67.5933 44.0002 65.8522 44.0002 63.7044V9.25998C44.0002 7.11221 42.2591 5.37109 40.1113 5.37109Z" fill="#FFAA00"/>
<path fill-rule="evenodd" clip-rule="evenodd" d="M36.2224 17.0378C19.0402 17.0378 5.11133 30.9668 5.11133 48.149C5.11133 52.4445 8.59356 55.9267 12.8891 55.9267C30.0713 55.9267 44.0002 41.9978 44.0002 24.8156C44.0002 20.5201 40.518 17.0378 36.2224 17.0378Z" fill="white"/>
<path d="M24.5556 24.8157C21.3339 24.8157 18.7223 27.4273 18.7223 30.649C18.7223 31.9702 19.1729 33.171 19.9132 34.149C18.0132 35.5645 16.7778 37.8092 16.7778 40.3712C16.7778 44.6801 20.2467 48.149 24.5556 48.149C28.8645 48.149 32.3334 44.6801 32.3334 40.3712C32.3334 37.8092 31.098 35.5645 29.198 34.149C29.9384 33.171 30.3889 31.9702 30.3889 30.649C30.3889 27.4273 27.7773 24.8157 24.5556 24.8157ZM24.5556 28.7046C25.6295 28.7046 26.5001 29.5751 26.5001 30.649C26.5001 31.7229 25.6295 32.5935 24.5556 32.5935C23.4817 32.5935 22.6112 31.7229 22.6112 30.649C22.6112 29.5751 23.4817 28.7046 24.5556 28.7046ZM24.1667 36.4823C24.2978 36.4691 24.421 36.4823 24.5556 36.4823C26.7101 36.4823 28.4445 38.2168 28.4445 40.3712C28.4445 42.5257 26.7101 44.2601 24.5556 44.2601C22.4012 44.2601 20.6667 42.5257 20.6667 40.3712C20.6667 38.3514 22.201 36.6808 24.1667 36.4823Z" fill="#FFAA00"/>
<path d="M10.9446 7.31567C9.33372 7.31567 8.02789 8.62148 8.02789 10.2323C8.02789 10.8929 8.25317 11.4934 8.62337 11.9823C7.67335 12.6901 7.05566 13.8125 7.05566 15.0935C7.05566 17.2479 8.79011 18.9823 10.9446 18.9823C13.099 18.9823 14.8334 17.2479 14.8334 15.0935C14.8334 13.8125 14.2158 12.6901 13.2657 11.9823C13.6359 11.4934 13.8612 10.8929 13.8612 10.2323C13.8612 8.62148 12.5554 7.31567 10.9446 7.31567ZM10.9446 9.26012C11.4815 9.26012 11.9168 9.6954 11.9168 10.2323C11.9168 10.7693 11.4815 11.2046 10.9446 11.2046C10.4076 11.2046 9.97233 10.7693 9.97233 10.2323C9.97233 9.6954 10.4076 9.26012 10.9446 9.26012ZM10.7501 13.149C10.8156 13.142 10.8772 13.149 10.9446 13.149C12.0218 13.149 12.889 14.0162 12.889 15.0935C12.889 16.1707 12.0218 17.0379 10.9446 17.0379C9.86733 17.0379 9.00011 16.1707 9.00011 15.0935C9.00011 14.0835 9.76723 13.2482 10.7501 13.149Z" fill="white"/>
<path d="M38.1667 65.6488C36.5559 65.6488 35.2501 64.343 35.2501 62.7322C35.2501 62.0716 35.4753 61.4712 35.8455 60.9822C34.8955 60.2744 34.2778 59.1521 34.2778 57.8711C34.2778 55.7166 36.0123 53.9822 38.1667 53.9822C40.3212 53.9822 42.0556 55.7166 42.0556 57.8711C42.0556 59.1521 41.4379 60.2744 40.4879 60.9822C40.8581 61.4712 41.0834 62.0716 41.0834 62.7322C41.0834 64.343 39.7776 65.6488 38.1667 65.6488ZM38.1667 63.7044C38.7037 63.7044 39.1389 63.2691 39.1389 62.7322C39.1389 62.1952 38.7037 61.76 38.1667 61.76C37.6298 61.76 37.1945 62.1952 37.1945 62.7322C37.1945 63.2691 37.6298 63.7044 38.1667 63.7044ZM37.9723 59.8155C38.0378 59.8225 38.0994 59.8155 38.1667 59.8155C39.2439 59.8155 40.1112 58.9483 40.1112 57.8711C40.1112 56.7938 39.2439 55.9266 38.1667 55.9266C37.0895 55.9266 36.2223 56.7938 36.2223 57.8711C36.2223 58.881 36.9894 59.7163 37.9723 59.8155Z" fill="white"/>
</svg>
