<svg width="50" height="73" viewBox="0 0 50 73" fill="none" xmlns="http://www.w3.org/2000/svg">
<path d="M40.3889 1.48242H9.27778C4.98223 1.48242 1.5 4.96465 1.5 9.2602V63.7046C1.5 68.0002 4.98223 71.4824 9.27778 71.4824H40.3889C44.6844 71.4824 48.1667 68.0002 48.1667 63.7046V9.2602C48.1667 4.96465 44.6844 1.48242 40.3889 1.48242Z" fill="white" stroke="black" stroke-width="2"/>
<path d="M40.3892 5.37109H9.27805C7.13027 5.37109 5.38916 7.11221 5.38916 9.25998V63.7044C5.38916 65.8522 7.13027 67.5933 9.27805 67.5933H40.3892C42.5369 67.5933 44.278 65.8522 44.278 63.7044V9.25998C44.278 7.11221 42.5369 5.37109 40.3892 5.37109Z" fill="#FFAA00"/>
<path fill-rule="evenodd" clip-rule="evenodd" d="M36.5003 17.0378C19.3181 17.0378 5.38916 30.9668 5.38916 48.149C5.38916 52.4445 8.87139 55.9267 13.1669 55.9267C30.3491 55.9267 44.278 41.9978 44.278 24.8156C44.278 20.5201 40.7958 17.0378 36.5003 17.0378Z" fill="white"/>
<path fill-rule="evenodd" clip-rule="evenodd" d="M24.8334 24.8157C20.5379 24.8157 17.0557 28.2979 17.0557 32.5935C17.0557 36.889 20.5379 40.3712 24.8334 40.3712C26.2467 40.3712 27.5802 39.9849 28.7223 39.3261V40.3712C28.7223 42.519 26.9812 44.2601 24.8334 44.2601C23.3135 44.2601 22.0217 43.368 21.3821 42.0969L17.8821 43.8469C19.157 46.4014 21.7844 48.149 24.8334 48.149C29.129 48.149 32.6112 44.6668 32.6112 40.3712V32.5935C32.6112 28.2979 29.129 24.8157 24.8334 24.8157ZM24.8334 28.7046C26.9812 28.7046 28.7223 30.4457 28.7223 32.5935C28.7223 34.7412 26.9812 36.4823 24.8334 36.4823C22.6857 36.4823 20.9446 34.7412 20.9446 32.5935C20.9446 30.4457 22.6857 28.7046 24.8334 28.7046ZM20.9446 48.9268V50.4823H28.7223V48.9268H20.9446Z" fill="#FFAA00"/>
<path fill-rule="evenodd" clip-rule="evenodd" d="M11.2224 18.9823C13.3702 18.9823 15.1113 17.2412 15.1113 15.0935V11.2046C15.1113 9.05678 13.3702 7.31567 11.2224 7.31567C9.07461 7.31567 7.3335 9.05678 7.3335 11.2046C7.3335 13.3523 9.07461 15.0935 11.2224 15.0935C11.929 15.0935 12.5958 14.9003 13.1668 14.5709V15.0935C13.1668 16.1673 12.2963 17.0379 11.2224 17.0379C10.4624 17.0379 9.8165 16.5918 9.49669 15.9563L7.74669 16.8313C8.38417 18.1086 9.69785 18.9823 11.2224 18.9823ZM11.2224 13.149C10.1485 13.149 9.27794 12.2784 9.27794 11.2046C9.27794 10.1307 10.1485 9.26012 11.2224 9.26012C12.2963 9.26012 13.1668 10.1307 13.1668 11.2046C13.1668 12.2784 12.2963 13.149 11.2224 13.149Z" fill="white"/>
<path fill-rule="evenodd" clip-rule="evenodd" d="M38.4446 53.9822C36.2968 53.9822 34.5557 55.7233 34.5557 57.8711V61.76C34.5557 63.9077 36.2968 65.6488 38.4446 65.6488C40.5923 65.6488 42.3334 63.9077 42.3334 61.76C42.3334 59.6122 40.5923 57.8711 38.4446 57.8711C37.7379 57.8711 37.0712 58.0642 36.5001 58.3936V57.8711C36.5001 56.7972 37.3707 55.9266 38.4446 55.9266C39.2045 55.9266 39.8504 56.3727 40.1702 57.0082L41.9202 56.1332C41.2828 54.856 39.9691 53.9822 38.4446 53.9822ZM38.4446 59.8155C39.5184 59.8155 40.389 60.6861 40.389 61.76C40.389 62.8338 39.5184 63.7044 38.4446 63.7044C37.3707 63.7044 36.5001 62.8338 36.5001 61.76C36.5001 60.6861 37.3707 59.8155 38.4446 59.8155Z" fill="white"/>
</svg>
