<svg width="49" height="73" viewBox="0 0 49 73" fill="none" xmlns="http://www.w3.org/2000/svg">
<path d="M40.2224 1.48242H9.11127C4.81573 1.48242 1.3335 4.96465 1.3335 9.2602V63.7046C1.3335 68.0002 4.81573 71.4824 9.11127 71.4824H40.2224C44.5179 71.4824 48.0002 68.0002 48.0002 63.7046V9.2602C48.0002 4.96465 44.5179 1.48242 40.2224 1.48242Z" fill="white" stroke="black" stroke-width="2"/>
<path d="M40.2222 5.37109H9.11106C6.96328 5.37109 5.22217 7.11221 5.22217 9.25998V63.7044C5.22217 65.8522 6.96328 67.5933 9.11106 67.5933H40.2222C42.3699 67.5933 44.1111 65.8522 44.1111 63.7044V9.25998C44.1111 7.11221 42.3699 5.37109 40.2222 5.37109Z" fill="#FFAA00"/>
<path fill-rule="evenodd" clip-rule="evenodd" d="M36.3333 17.0378C19.1511 17.0378 5.22217 30.9668 5.22217 48.149C5.22217 52.4445 8.7044 55.9267 12.9999 55.9267C30.1821 55.9267 44.1111 41.9978 44.1111 24.8156C44.1111 20.5201 40.6288 17.0378 36.3333 17.0378Z" fill="white"/>
<path d="M27.167 30.6489H19.3893C18.3154 30.6489 17.2202 31.435 16.9432 32.4047L12.9465 46.3931C12.6694 47.3628 13.3154 48.1489 14.3892 48.1489H22.167C23.2409 48.1489 24.3361 47.3628 24.6131 46.3931L28.6098 32.4047C28.8869 31.435 28.2409 30.6489 27.167 30.6489Z" fill="white" stroke="black" stroke-width="2.03962"/>
<path d="M24.6668 32.5935H20.7779C19.7041 32.5935 18.6089 33.3796 18.3318 34.3493L15.4463 44.4488C15.1692 45.4185 15.8152 46.2046 16.889 46.2046H20.7779C21.8518 46.2046 22.947 45.4185 23.224 44.4488L26.1096 34.3493C26.3867 33.3796 25.7407 32.5935 24.6668 32.5935Z" fill="#FFAA00"/>
<path d="M34.9444 24.8157H27.1666C26.0927 24.8157 24.9976 25.6018 24.7205 26.5715L20.7238 40.5599C20.4468 41.5296 21.0927 42.3157 22.1666 42.3157H29.9444C31.0183 42.3157 32.1134 41.5296 32.3905 40.5599L36.3872 26.5715C36.6642 25.6018 36.0183 24.8157 34.9444 24.8157Z" fill="white" stroke="black" stroke-width="2.03962"/>
<path d="M32.4447 26.76H28.5558C27.4819 26.76 26.3867 27.5461 26.1097 28.5158L23.2241 38.6153C22.947 39.585 23.593 40.3711 24.6669 40.3711H28.5558C29.6296 40.3711 30.7248 39.585 31.0019 38.6153L33.8874 28.5158C34.1645 27.5461 33.5185 26.76 32.4447 26.76Z" fill="#FFAA00"/>
<path fill-rule="evenodd" clip-rule="evenodd" d="M7.94444 11.2046V13.1491H6V15.0935H7.94444V17.0379H9.88889V15.0935H11.8333V13.1491H9.88889V11.2046H7.94444Z" fill="white"/>
<path d="M16.8889 7.31567C14.7344 7.31567 13 9.05012 13 11.2046V11.5935H14.9444V11.2046C14.9444 10.1273 15.8117 9.26012 16.8889 9.26012C17.9661 9.26012 18.8333 10.1273 18.8333 11.2046C18.8333 11.643 18.4695 12.5035 18.0896 12.8025C16.0266 14.4261 16.0484 14.158 13 16.2601V18.9823H16.8889H20.7778V17.0379V16.2601H18.8333V17.0379H16.8889H15.3333C17.7406 15.3428 17.9166 15.3839 19.8028 13.6959C20.4072 13.155 20.7778 12.0816 20.7778 11.2046C20.7778 9.05012 19.0433 7.31567 16.8889 7.31567Z" fill="white"/>
<path fill-rule="evenodd" clip-rule="evenodd" d="M41.3889 61.7603V59.8159H43.3333V57.8715H41.3889V55.927H39.4444V57.8715H37.5V59.8159H39.4444V61.7603H41.3889Z" fill="white"/>
<path d="M32.4446 65.6491C34.599 65.6491 36.3334 63.9146 36.3334 61.7602V61.3713H34.389V61.7602C34.389 62.8374 33.5218 63.7046 32.4446 63.7046C31.3673 63.7046 30.5001 62.8374 30.5001 61.7602C30.5001 61.3218 30.8639 60.4613 31.2438 60.1623C33.3068 58.5387 33.285 58.8068 36.3334 56.7046V53.9824H32.4446H28.5557V55.9269V56.7046H30.5001V55.9269H32.4446H34.0001C31.5929 57.622 31.4169 57.5809 29.5306 59.2689C28.9262 59.8097 28.5557 60.8832 28.5557 61.7602C28.5557 63.9146 30.2901 65.6491 32.4446 65.6491Z" fill="white"/>
</svg>
