<svg width="49" height="73" viewBox="0 0 49 73" fill="none" xmlns="http://www.w3.org/2000/svg">
<path d="M39.9446 1.48242H8.83344C4.53789 1.48242 1.05566 4.96465 1.05566 9.2602V63.7046C1.05566 68.0002 4.53789 71.4824 8.83344 71.4824H39.9446C44.2401 71.4824 47.7223 68.0002 47.7223 63.7046V9.2602C47.7223 4.96465 44.2401 1.48242 39.9446 1.48242Z" fill="white" stroke="black" stroke-width="2"/>
<path d="M39.9443 5.37109H8.83322C6.68545 5.37109 4.94434 7.11221 4.94434 9.25998V63.7044C4.94434 65.8522 6.68545 67.5933 8.83322 67.5933H39.9443C42.0921 67.5933 43.8332 65.8522 43.8332 63.7044V9.25998C43.8332 7.11221 42.0921 5.37109 39.9443 5.37109Z" fill="#FFAA00"/>
<path fill-rule="evenodd" clip-rule="evenodd" d="M36.0554 17.0378C18.8733 17.0378 4.94434 30.9668 4.94434 48.149C4.94434 52.4445 8.42656 55.9267 12.7221 55.9267C29.9043 55.9267 43.8332 41.9978 43.8332 24.8156C43.8332 20.5201 40.351 17.0378 36.0554 17.0378Z" fill="white"/>
<path d="M24.3888 23.8435L26.3333 25.788L18.5555 33.5657C16.6111 35.5102 16.6111 39.3991 18.5555 41.3435L22.4444 37.4546L30.2222 29.6768L32.1666 31.6213V23.8435H24.3888Z" fill="#FFAA00"/>
<path d="M24.3891 49.1213L22.4447 47.1769L30.2224 39.3991C32.1669 37.4547 32.1669 33.5658 30.2224 31.6213L26.3336 35.5102L18.5558 43.288L16.6113 41.3436V49.1213H24.3891Z" fill="#FFAA00"/>
<path d="M10.7777 7.31567L11.7499 8.2879L7.861 12.1768C6.88878 13.149 6.88878 15.0935 7.861 16.0657L9.80545 14.1212L13.6943 10.2323L14.6666 11.2046V7.31567H10.7777Z" fill="white"/>
<path d="M10.778 19.9546L9.80583 18.9824L13.6947 15.0935C14.6669 14.1213 14.6669 12.1768 13.6947 11.2046L11.7503 13.149L7.86138 17.0379L6.88916 16.0657V19.9546H10.778Z" fill="white"/>
<path d="M37.9998 53.0103L38.9721 53.9825L35.0832 57.8714C34.1109 58.8436 34.1109 60.788 35.0832 61.7603L37.0276 59.8158L40.9165 55.9269L41.8887 56.8991V53.0103H37.9998Z" fill="white"/>
<path d="M38.0002 65.6492L37.028 64.6769L40.9169 60.7881C41.8891 59.8158 41.8891 57.8714 40.9169 56.8992L38.9724 58.8436L35.0836 62.7325L34.1113 61.7603V65.6492H38.0002Z" fill="white"/>
</svg>
