<svg width="50" height="73" viewBox="0 0 50 73" fill="none" xmlns="http://www.w3.org/2000/svg">
<path d="M40.6667 1.48242H9.55561C5.26006 1.48242 1.77783 4.96465 1.77783 9.2602V63.7046C1.77783 68.0002 5.26006 71.4824 9.55561 71.4824H40.6667C44.9623 71.4824 48.4445 68.0002 48.4445 63.7046V9.2602C48.4445 4.96465 44.9623 1.48242 40.6667 1.48242Z" fill="white" stroke="black" stroke-width="2"/>
<path d="M40.6665 5.37109H9.55539C7.40762 5.37109 5.6665 7.11221 5.6665 9.25998V63.7044C5.6665 65.8522 7.40762 67.5933 9.55539 67.5933H40.6665C42.8143 67.5933 44.5554 65.8522 44.5554 63.7044V9.25998C44.5554 7.11221 42.8143 5.37109 40.6665 5.37109Z" fill="#FFAA00"/>
<path fill-rule="evenodd" clip-rule="evenodd" d="M36.7776 17.0378C19.5954 17.0378 5.6665 30.9668 5.6665 48.149C5.6665 52.4445 9.14873 55.9267 13.4443 55.9267C30.6265 55.9267 44.5554 41.9978 44.5554 24.8156C44.5554 20.5201 41.0732 17.0378 36.7776 17.0378Z" fill="white"/>
<path fill-rule="evenodd" clip-rule="evenodd" d="M25.1355 24.8157C22.1497 24.8118 19.1526 25.9434 16.8716 28.2185C12.3096 32.7687 12.2972 40.1599 16.8474 44.722C21.3975 49.284 28.7888 49.2964 33.3508 44.7462C37.9129 40.1961 37.9253 32.8048 33.3751 28.2428C31.1 25.9617 28.1213 24.8196 25.1355 24.8157V24.8157ZM25.1112 28.7046C26.4723 28.7062 27.8395 29.0625 29.0487 29.7741L18.4029 40.4199C16.6449 37.4349 17.0521 33.5245 19.6182 30.965C21.1389 29.4483 23.1207 28.702 25.1112 28.7046ZM31.8196 32.5206C33.5898 35.5078 33.1756 39.4352 30.6043 41.9998C28.0355 44.5618 24.1309 44.9384 21.1494 43.1664L31.8196 32.5206Z" fill="#FFAA00"/>
<path fill-rule="evenodd" clip-rule="evenodd" d="M13.4568 7.3157C11.9642 7.31336 10.4659 7.87949 9.32563 9.01692C7.04504 11.2918 7.03882 14.9871 9.31347 17.2679C11.5881 19.5487 15.2831 19.5549 17.5637 17.28C19.8443 15.0052 19.8505 11.3099 17.5758 9.02907C16.4385 7.88866 14.9494 7.31763 13.4568 7.31567V7.3157ZM13.4447 9.25995C14.125 9.26072 14.8085 9.43886 15.413 9.79463L10.0911 15.117C9.21224 13.6247 9.41578 11.6697 10.6986 10.3901C11.4588 9.63177 12.4496 9.25865 13.4447 9.25995ZM16.7982 11.1677C17.6831 12.6612 17.4761 14.6247 16.1907 15.9069C14.9065 17.1878 12.9546 17.3761 11.4641 16.4902L16.7982 11.1677Z" fill="white"/>
<path fill-rule="evenodd" clip-rule="evenodd" d="M36.7898 53.9822C35.2972 53.9799 33.7989 54.546 32.6586 55.6834C30.378 57.9583 30.3718 61.6536 32.6465 63.9344C34.9211 66.2152 38.6161 66.2214 40.8967 63.9465C43.1773 61.6717 43.1835 57.9764 40.9088 55.6956C39.7715 54.5552 38.2824 53.9841 36.7898 53.9822V53.9822ZM36.7777 55.9265C37.458 55.9272 38.1415 56.1054 38.746 56.4611L33.4241 61.7835C32.5452 60.2912 32.7488 58.3362 34.0316 57.0566C34.7918 56.2983 35.7826 55.9251 36.7777 55.9265ZM40.1312 57.8343C41.0161 59.3277 40.8091 61.2912 39.5237 62.5734C38.2395 63.8543 36.2876 64.0426 34.7971 63.1567L40.1312 57.8343Z" fill="white"/>
</svg>
