<svg width="49" height="73" viewBox="0 0 49 73" fill="none" xmlns="http://www.w3.org/2000/svg">
<path d="M40.1667 1.92944H9.05561C4.76006 1.92944 1.27783 5.41167 1.27783 9.70722V64.1517C1.27783 68.4472 4.76006 71.9294 9.05561 71.9294H40.1667C44.4623 71.9294 47.9445 68.4472 47.9445 64.1517V9.70722C47.9445 5.41167 44.4623 1.92944 40.1667 1.92944Z" fill="white" stroke="black" stroke-width="2"/>
<path d="M40.1665 5.81836H9.05539C6.90762 5.81836 5.1665 7.55947 5.1665 9.70725V64.1517C5.1665 66.2995 6.90762 68.0406 9.05539 68.0406H40.1665C42.3143 68.0406 44.0554 66.2995 44.0554 64.1517V9.70725C44.0554 7.55947 42.3143 5.81836 40.1665 5.81836Z" fill="black"/>
<path fill-rule="evenodd" clip-rule="evenodd" d="M36.2776 17.4851C19.0954 17.4851 5.1665 31.414 5.1665 48.5962C5.1665 52.8918 8.64873 56.374 12.9443 56.374C30.1265 56.374 44.0554 42.4451 44.0554 25.2629C44.0554 20.9673 40.5732 17.4851 36.2776 17.4851Z" fill="white"/>
<path fill-rule="evenodd" clip-rule="evenodd" d="M7.45123 36.9294C5.99042 40.5348 5.1665 44.4668 5.1665 48.5961C5.1665 52.8917 8.64873 56.3739 12.9443 56.3739L24.6109 36.9294H7.45123Z" fill="#FFAA00"/>
<path fill-rule="evenodd" clip-rule="evenodd" d="M24.611 36.9294L12.9443 56.3739C25.9972 56.3739 37.1531 48.326 41.7707 36.9294H24.611Z" fill="#00AA00"/>
<path fill-rule="evenodd" clip-rule="evenodd" d="M36.278 17.4851C23.2252 17.4851 12.0692 25.533 7.45166 36.9296H24.6114L36.278 17.4851Z" fill="#FF5555"/>
<path fill-rule="evenodd" clip-rule="evenodd" d="M36.278 17.4851L24.6113 36.9296H41.771C43.2319 33.3242 44.0558 29.3922 44.0558 25.2629C44.0558 20.9673 40.5735 17.4851 36.278 17.4851Z" fill="#5555FF"/>
<path fill-rule="evenodd" clip-rule="evenodd" d="M7.68251 12.624C7.3173 13.5254 7.11133 14.5084 7.11133 15.5407C7.11133 16.6146 7.98189 17.4851 9.05577 17.4851L11.9724 12.624H7.68251Z" fill="#FFAA00"/>
<path fill-rule="evenodd" clip-rule="evenodd" d="M11.9723 12.624L9.05566 17.4851C12.3189 17.4851 15.1079 15.4732 16.2623 12.624H11.9723Z" fill="#00AA00"/>
<path fill-rule="evenodd" clip-rule="evenodd" d="M14.8892 7.7627C11.626 7.7627 8.83701 9.77467 7.68262 12.6238H11.9725L14.8892 7.7627Z" fill="#FF5555"/>
<path fill-rule="evenodd" clip-rule="evenodd" d="M14.8888 7.7627L11.9722 12.6238H16.2621C16.6273 11.7225 16.8333 10.7395 16.8333 9.70714C16.8333 8.63325 15.9627 7.7627 14.8888 7.7627Z" fill="#5555FF"/>
<path fill-rule="evenodd" clip-rule="evenodd" d="M32.9603 61.235C32.5951 62.1363 32.3892 63.1193 32.3892 64.1517C32.3892 65.2255 33.2597 66.0961 34.3336 66.0961L37.2503 61.235H32.9603Z" fill="#FFAA00"/>
<path fill-rule="evenodd" clip-rule="evenodd" d="M37.2502 61.235L34.3335 66.0961C37.5967 66.0961 40.3857 64.0841 41.5401 61.235H37.2502Z" fill="#00AA00"/>
<path fill-rule="evenodd" clip-rule="evenodd" d="M40.1666 56.3738C36.9034 56.3738 34.1144 58.3858 32.96 61.2349H37.2499L40.1666 56.3738Z" fill="#FF5555"/>
<path fill-rule="evenodd" clip-rule="evenodd" d="M40.1667 56.3738L37.25 61.2349H41.5399C41.9051 60.3335 42.1111 59.3506 42.1111 58.3182C42.1111 57.2443 41.2405 56.3738 40.1667 56.3738Z" fill="#5555FF"/>
<path d="M36.2776 17.4851C23.2248 17.4851 12.0688 25.533 7.45123 36.9296C5.99042 40.5349 5.1665 44.4669 5.1665 48.5962C5.1665 52.8918 8.64873 56.374 12.9443 56.374C25.9971 56.374 37.1531 48.3261 41.7707 36.9296C43.2315 33.3242 44.0554 29.3922 44.0554 25.2629C44.0554 20.9673 40.5732 17.4851 36.2776 17.4851Z" stroke="white" stroke-width="4"/>
<path d="M14.8891 7.7627C11.6259 7.7627 8.83691 9.77467 7.68251 12.6238C7.3173 13.5251 7.11133 14.5081 7.11133 15.5405C7.11133 16.6144 7.98189 17.4849 9.05577 17.4849C12.319 17.4849 15.108 15.4729 16.2624 12.6238C16.6276 11.7225 16.8335 10.7395 16.8335 9.70714C16.8335 8.63325 15.963 7.7627 14.8891 7.7627Z" stroke="white" stroke-width="4"/>
<path d="M40.1669 56.3738C36.9037 56.3738 34.1147 58.3858 32.9603 61.2349C32.5951 62.1362 32.3892 63.1192 32.3892 64.1516C32.3892 65.2254 33.2597 66.096 34.3336 66.096C37.5968 66.096 40.3858 64.084 41.5402 61.2349C41.9054 60.3335 42.1114 59.3506 42.1114 58.3182C42.1114 57.2443 41.2408 56.3738 40.1669 56.3738Z" stroke="white" stroke-width="4"/>
</svg>
