<svg width="49" height="73" viewBox="0 0 49 73" fill="none" xmlns="http://www.w3.org/2000/svg">
<path d="M39.8889 1.92944H8.77778C4.48223 1.92944 1 5.41167 1 9.70722V64.1517C1 68.4472 4.48223 71.9294 8.77778 71.9294H39.8889C44.1844 71.9294 47.6667 68.4472 47.6667 64.1517V9.70722C47.6667 5.41167 44.1844 1.92944 39.8889 1.92944Z" fill="white" stroke="black" stroke-width="2"/>
<path d="M39.8887 5.81836H8.77756C6.62979 5.81836 4.88867 7.55947 4.88867 9.70725V64.1517C4.88867 66.2995 6.62979 68.0406 8.77756 68.0406H39.8887C42.0364 68.0406 43.7776 66.2995 43.7776 64.1517V9.70725C43.7776 7.55947 42.0364 5.81836 39.8887 5.81836Z" fill="black"/>
<path fill-rule="evenodd" clip-rule="evenodd" d="M35.9998 17.4851C18.8176 17.4851 4.88867 31.414 4.88867 48.5962C4.88867 52.8918 8.3709 56.374 12.6664 56.374C29.8486 56.374 43.7776 42.4451 43.7776 25.2629C43.7776 20.9673 40.2953 17.4851 35.9998 17.4851Z" fill="white"/>
<path d="M16.4776 7.7627L12.6665 15.5405V17.4849H17.3332V19.4294H19.2776V17.4849H20.4443V15.5405H19.2776V11.6516H17.3332V15.5405H14.6887L18.4998 7.7627H16.4776Z" fill="white"/>
<path fill-rule="evenodd" clip-rule="evenodd" d="M7.61095 11.6516V13.5961H5.6665V15.5405H7.61095V17.4849H9.55539V15.5405H11.4998V13.5961H9.55539V11.6516H7.61095Z" fill="white"/>
<path d="M32.1888 66.0961L35.9999 58.3183V56.3739H31.3333V54.4294H29.3888V56.3739H28.2222V58.3183H29.3888V62.2072H31.3333V58.3183H33.9777L30.1666 66.0961H32.1888Z" fill="white"/>
<path fill-rule="evenodd" clip-rule="evenodd" d="M41.0554 62.2072V60.2628H42.9998V58.3184H41.0554V56.3739H39.1109V58.3184H37.1665V60.2628H39.1109V62.2072H41.0554Z" fill="white"/>
<path d="M24.8887 27.2073H17.1109C16.0371 27.2073 14.9419 27.9934 14.6648 28.9631L10.6681 42.9515C10.3911 43.9212 11.037 44.7073 12.1109 44.7073H19.8887C20.9626 44.7073 22.0578 43.9212 22.3348 42.9515L26.3315 28.9631C26.6086 27.9934 25.9626 27.2073 24.8887 27.2073Z" fill="white" stroke="black" stroke-width="2.03962"/>
<path d="M22.3885 29.1516H18.4996C17.4257 29.1516 16.3306 29.9377 16.0535 30.9074L13.1679 41.0069C12.8909 41.9766 13.5368 42.7627 14.6107 42.7627H18.4996C19.5735 42.7627 20.6687 41.9766 20.9457 41.0069L23.8313 30.9074C24.1084 29.9377 23.4624 29.1516 22.3885 29.1516Z" fill="#FF5555"/>
<path d="M32.6666 21.3738H24.8888C23.8149 21.3738 22.7197 22.1599 22.4427 23.1296L18.446 37.118C18.1689 38.0877 18.8149 38.8738 19.8888 38.8738H27.6665C28.7404 38.8738 29.8356 38.0877 30.1126 37.118L34.1093 23.1296C34.3864 22.1599 33.7404 21.3738 32.6666 21.3738Z" fill="white" stroke="black" stroke-width="2.03962"/>
<path d="M30.1663 23.3184H26.2775C25.2036 23.3184 24.1084 24.1044 23.8314 25.0741L20.9458 35.1737C20.6687 36.1434 21.3147 36.9295 22.3886 36.9295H26.2774C27.3513 36.9295 28.4465 36.1434 28.7235 35.1737L31.6091 25.0741C31.8862 24.1044 31.2402 23.3184 30.1663 23.3184Z" fill="#5555FF"/>
<path d="M30.7222 33.0405H22.9444C21.8706 33.0405 20.7754 33.8266 20.4983 34.7963L16.5016 48.7847C16.2246 49.7544 16.8705 50.5405 17.9444 50.5405H25.7222C26.7961 50.5405 27.8912 49.7544 28.1683 48.7847L32.165 34.7963C32.4421 33.8266 31.7961 33.0405 30.7222 33.0405Z" fill="white" stroke="black" stroke-width="2.03962"/>
<path d="M28.222 34.9849H24.3331C23.2592 34.9849 22.1641 35.771 21.887 36.7407L19.0014 46.8402C18.7244 47.8099 19.3703 48.596 20.4442 48.596H24.3331C25.407 48.596 26.5022 47.8099 26.7792 46.8402L29.6648 36.7407C29.9419 35.771 29.2959 34.9849 28.222 34.9849Z" fill="#FFAA00"/>
<path d="M38.5001 27.2073H30.7223C29.6484 27.2073 28.5532 27.9934 28.2762 28.9631L24.2795 42.9515C24.0024 43.9212 24.6484 44.7073 25.7223 44.7073H33.5C34.5739 44.7073 35.6691 43.9212 35.9461 42.9515L39.9428 28.9631C40.2199 27.9934 39.5739 27.2073 38.5001 27.2073Z" fill="white" stroke="black" stroke-width="2.03962"/>
<path d="M35.9998 29.1516H32.1109C31.0371 29.1516 29.9419 29.9377 29.6648 30.9074L26.7793 41.0069C26.5022 41.9766 27.1482 42.7627 28.222 42.7627H32.1109C33.1848 42.7627 34.28 41.9766 34.557 41.0069L37.4426 30.9074C37.7197 29.9377 37.0737 29.1516 35.9998 29.1516Z" fill="#55AA55"/>
</svg>
