<svg width="49" height="72" viewBox="0 0 49 72" fill="none" xmlns="http://www.w3.org/2000/svg">
<path d="M39.8889 1H8.77778C4.48223 1 1 4.48223 1 8.77778V63.2222C1 67.5178 4.48223 71 8.77778 71H39.8889C44.1844 71 47.6667 67.5178 47.6667 63.2222V8.77778C47.6667 4.48223 44.1844 1 39.8889 1Z" fill="white" stroke="black" stroke-width="2"/>
<path d="M39.8892 4.88892H8.77805C6.63027 4.88892 4.88916 6.63003 4.88916 8.7778V63.2223C4.88916 65.37 6.63027 67.1111 8.77805 67.1111H39.8892C42.0369 67.1111 43.778 65.37 43.778 63.2223V8.7778C43.778 6.63003 42.0369 4.88892 39.8892 4.88892Z" fill="#55AA55"/>
<path fill-rule="evenodd" clip-rule="evenodd" d="M36.0003 16.5557C18.8181 16.5557 4.88916 30.4846 4.88916 47.6668C4.88916 51.9623 8.37139 55.4446 12.6669 55.4446C29.8491 55.4446 43.778 41.5156 43.778 24.3334C43.778 20.0379 40.2958 16.5557 36.0003 16.5557Z" fill="white"/>
<path fill-rule="evenodd" clip-rule="evenodd" d="M24.3334 24.3333C20.0379 24.3333 16.5557 27.8155 16.5557 32.111V39.8888C16.5557 44.1844 20.0379 47.6666 24.3334 47.6666C28.629 47.6666 32.1112 44.1844 32.1112 39.8888V32.111C32.1112 27.8155 28.629 24.3333 24.3334 24.3333ZM24.3334 28.2221C26.4812 28.2221 28.2223 29.9633 28.2223 32.111V39.8888C28.2223 42.0366 26.4812 43.7777 24.3334 43.7777C22.1857 43.7777 20.4446 42.0366 20.4446 39.8888V32.111C20.4446 29.9633 22.1857 28.2221 24.3334 28.2221Z" fill="#55AA55"/>
<path fill-rule="evenodd" clip-rule="evenodd" d="M10.7224 6.83325C8.57461 6.83325 6.8335 8.57436 6.8335 10.7221V14.611C6.8335 16.7588 8.57461 18.4999 10.7224 18.4999C12.8702 18.4999 14.6113 16.7588 14.6113 14.611V10.7221C14.6113 8.57436 12.8702 6.83325 10.7224 6.83325ZM10.7224 8.7777C11.7963 8.7777 12.6668 9.64826 12.6668 10.7221V14.611C12.6668 15.6849 11.7963 16.5555 10.7224 16.5555C9.6485 16.5555 8.77794 15.6849 8.77794 14.611V10.7221C8.77794 9.64826 9.6485 8.7777 10.7224 8.7777Z" fill="white"/>
<path fill-rule="evenodd" clip-rule="evenodd" d="M37.9446 53.5C35.7968 53.5 34.0557 55.2411 34.0557 57.3889V61.2778C34.0557 63.4256 35.7968 65.1667 37.9446 65.1667C40.0923 65.1667 41.8334 63.4256 41.8334 61.2778V57.3889C41.8334 55.2411 40.0923 53.5 37.9446 53.5ZM37.9446 55.4444C39.0184 55.4444 39.889 56.315 39.889 57.3889V61.2778C39.889 62.3517 39.0184 63.2222 37.9446 63.2222C36.8707 63.2222 36.0001 62.3517 36.0001 61.2778V57.3889C36.0001 56.315 36.8707 55.4444 37.9446 55.4444Z" fill="white"/>
</svg>
