<svg width="49" height="72" viewBox="0 0 49 72" fill="none" xmlns="http://www.w3.org/2000/svg">
<path d="M40.1667 1H9.05561C4.76006 1 1.27783 4.48223 1.27783 8.77778V63.2222C1.27783 67.5178 4.76006 71 9.05561 71H40.1667C44.4623 71 47.9445 67.5178 47.9445 63.2222V8.77778C47.9445 4.48223 44.4623 1 40.1667 1Z" fill="white" stroke="black" stroke-width="2"/>
<path d="M40.1665 4.88892H9.05539C6.90762 4.88892 5.1665 6.63003 5.1665 8.7778V63.2223C5.1665 65.37 6.90762 67.1111 9.05539 67.1111H40.1665C42.3143 67.1111 44.0554 65.37 44.0554 63.2223V8.7778C44.0554 6.63003 42.3143 4.88892 40.1665 4.88892Z" fill="#55AA55"/>
<path fill-rule="evenodd" clip-rule="evenodd" d="M36.2776 16.5557C19.0954 16.5557 5.1665 30.4846 5.1665 47.6668C5.1665 51.9623 8.64873 55.4446 12.9443 55.4446C30.1265 55.4446 44.0554 41.5156 44.0554 24.3334C44.0554 20.0379 40.5732 16.5557 36.2776 16.5557Z" fill="white"/>
<path fill-rule="evenodd" clip-rule="evenodd" d="M23.0554 24.3333L19.1665 28.2221V32.8888L23.0554 28.9999V47.6666H26.9443V24.3333H23.0554Z" fill="#55AA55"/>
<path fill-rule="evenodd" clip-rule="evenodd" d="M9.05577 6.83325L7.11133 8.7777V11.111L9.05577 9.16659V18.4999H11.0002V6.83325H9.05577Z" fill="white"/>
<path fill-rule="evenodd" clip-rule="evenodd" d="M40.1666 65.1667L42.1111 63.2222V60.8889L40.1666 62.8333V53.5H38.2222V65.1667H40.1666Z" fill="white"/>
</svg>
