<svg width="50" height="72" viewBox="0 0 50 72" fill="none" xmlns="http://www.w3.org/2000/svg">
<path d="M40.4446 1H9.33344C5.03789 1 1.55566 4.48223 1.55566 8.77778V63.2222C1.55566 67.5178 5.03789 71 9.33344 71H40.4446C44.7401 71 48.2223 67.5178 48.2223 63.2222V8.77778C48.2223 4.48223 44.7401 1 40.4446 1Z" fill="white" stroke="black" stroke-width="2"/>
<path d="M40.4443 4.88892H9.33322C7.18545 4.88892 5.44434 6.63003 5.44434 8.7778V63.2223C5.44434 65.37 7.18545 67.1111 9.33322 67.1111H40.4443C42.5921 67.1111 44.3332 65.37 44.3332 63.2223V8.7778C44.3332 6.63003 42.5921 4.88892 40.4443 4.88892Z" fill="#55AA55"/>
<path fill-rule="evenodd" clip-rule="evenodd" d="M36.5554 16.5557C19.3733 16.5557 5.44434 30.4846 5.44434 47.6668C5.44434 51.9623 8.92656 55.4446 13.2221 55.4446C30.4043 55.4446 44.3332 41.5156 44.3332 24.3334C44.3332 20.0379 40.851 16.5557 36.5554 16.5557Z" fill="white"/>
<path d="M24.1113 24.3333C19.8024 24.3333 16.3335 27.8021 16.3335 32.111V32.8888H20.2224V32.111C20.2224 29.9566 21.9568 28.2221 24.1113 28.2221C26.2657 28.2221 28.0002 29.9566 28.0002 32.111C28.0002 32.988 27.2725 34.7089 26.5127 35.3069C22.3867 38.5541 22.4303 38.0178 16.3335 42.2221V47.6666H24.1113H31.8891V43.7777V42.2221H28.0002V43.7777H24.1113H21.0002C25.8147 40.3876 26.1667 40.4697 29.9392 37.0937C31.1479 36.012 31.8891 33.8651 31.8891 32.111C31.8891 27.8021 28.4202 24.3333 24.1113 24.3333Z" fill="#55AA55"/>
<path d="M11.278 6.83325C9.1236 6.83325 7.38916 8.5677 7.38916 10.7221V11.111H9.3336V10.7221C9.3336 9.64492 10.2008 8.7777 11.278 8.7777C12.3553 8.7777 13.2225 9.64492 13.2225 10.7221C13.2225 11.1606 12.8587 12.0211 12.4788 12.3201C10.4158 13.9437 10.4376 13.6755 7.38916 15.7777V18.4999H11.278H15.1669V16.5555V15.7777H13.2225V16.5555H11.278H9.72249C12.1297 14.8604 12.3058 14.9015 14.192 13.2135C14.7964 12.6726 15.1669 11.5992 15.1669 10.7221C15.1669 8.5677 13.4325 6.83325 11.278 6.83325Z" fill="white"/>
<path d="M38.5002 65.1667C40.6547 65.1667 42.3891 63.4322 42.3891 61.2778V60.8889H40.4447V61.2778C40.4447 62.355 39.5774 63.2222 38.5002 63.2222C37.423 63.2222 36.5558 62.355 36.5558 61.2778C36.5558 60.8393 36.9196 59.9788 37.2995 59.6798C39.3625 58.0562 39.3407 58.3244 42.3891 56.2222V53.5H38.5002H34.6113V55.4444V56.2222H36.5558V55.4444H38.5002H40.0558C37.6485 57.1395 37.4725 57.0984 35.5862 58.7864C34.9819 59.3273 34.6113 60.4008 34.6113 61.2778C34.6113 63.4322 36.3458 65.1667 38.5002 65.1667Z" fill="white"/>
</svg>
