<svg width="50" height="72" viewBox="0 0 50 72" fill="none" xmlns="http://www.w3.org/2000/svg">
<path d="M40.7224 1H9.61127C5.31573 1 1.8335 4.48223 1.8335 8.77778V63.2222C1.8335 67.5178 5.31573 71 9.61127 71H40.7224C45.0179 71 48.5002 67.5178 48.5002 63.2222V8.77778C48.5002 4.48223 45.0179 1 40.7224 1Z" fill="white" stroke="black" stroke-width="2"/>
<path d="M40.7222 4.88892H9.61106C7.46328 4.88892 5.72217 6.63003 5.72217 8.7778V63.2223C5.72217 65.37 7.46328 67.1111 9.61106 67.1111H40.7222C42.8699 67.1111 44.6111 65.37 44.6111 63.2223V8.7778C44.6111 6.63003 42.8699 4.88892 40.7222 4.88892Z" fill="#55AA55"/>
<path fill-rule="evenodd" clip-rule="evenodd" d="M36.8333 16.5557C19.6511 16.5557 5.72217 30.4846 5.72217 47.6668C5.72217 51.9623 9.2044 55.4446 13.4999 55.4446C30.6821 55.4446 44.6111 41.5156 44.6111 24.3334C44.6111 20.0379 41.1288 16.5557 36.8333 16.5557Z" fill="white"/>
<path d="M25.1669 24.3333C21.9453 24.3333 19.3336 26.9449 19.3336 30.1666H23.2225C23.2225 29.0927 24.0931 28.2221 25.1669 28.2221C26.2408 28.2221 27.1114 29.0927 27.1114 30.1666C27.1114 31.2405 26.2408 32.111 25.1669 32.111H22.8336V35.9999H25.1669C27.3214 35.9999 29.0558 37.7344 29.0558 39.8888C29.0558 42.0433 27.3214 43.7777 25.1669 43.7777C23.0125 43.7777 21.278 42.0433 21.278 39.8888H17.3892C17.3892 44.1977 20.858 47.6666 25.1669 47.6666C29.4758 47.6666 32.9447 44.1977 32.9447 39.8888C32.9447 37.3269 31.7094 35.0821 29.8093 33.6666C30.5497 32.6886 31.0003 31.4878 31.0003 30.1666C31.0003 26.9449 28.3886 24.3333 25.1669 24.3333Z" fill="#55AA55"/>
<path d="M11.5559 6.83325C9.94505 6.83325 8.63921 8.13909 8.63921 9.74992H10.5837C10.5837 9.21297 11.0189 8.7777 11.5559 8.7777C12.0928 8.7777 12.5281 9.21297 12.5281 9.74992C12.5281 10.2869 12.0928 10.7221 11.5559 10.7221H10.3892V12.6666H11.5559C12.6331 12.6666 13.5003 13.5338 13.5003 14.611C13.5003 15.6883 12.6331 16.5555 11.5559 16.5555C10.4787 16.5555 9.61144 15.6883 9.61144 14.611H7.66699C7.66699 16.7655 9.40144 18.4999 11.5559 18.4999C13.7103 18.4999 15.4448 16.7655 15.4448 14.611C15.4448 13.3301 14.8271 12.2077 13.8771 11.4999C14.2473 11.0109 14.4725 10.4105 14.4725 9.74992C14.4725 8.13909 13.1667 6.83325 11.5559 6.83325Z" fill="white"/>
<path d="M38.778 65.1667C40.3889 65.1667 41.6947 63.8608 41.6947 62.25H39.7503C39.7503 62.7869 39.315 63.2222 38.778 63.2222C38.2411 63.2222 37.8058 62.7869 37.8058 62.25C37.8058 61.7131 38.2411 61.2778 38.778 61.2778H39.9447V59.3333H38.778C37.7008 59.3333 36.8336 58.4661 36.8336 57.3889C36.8336 56.3117 37.7008 55.4444 38.778 55.4444C39.8553 55.4444 40.7225 56.3117 40.7225 57.3889H42.6669C42.6669 55.2344 40.9325 53.5 38.778 53.5C36.6236 53.5 34.8892 55.2344 34.8892 57.3889C34.8892 58.6699 35.5068 59.7923 36.4569 60.5C36.0867 60.989 35.8614 61.5894 35.8614 62.25C35.8614 63.8608 37.1672 65.1667 38.778 65.1667Z" fill="white"/>
</svg>
