<svg width="49" height="72" viewBox="0 0 49 72" fill="none" xmlns="http://www.w3.org/2000/svg">
<path d="M40.0002 1H8.88911C4.59356 1 1.11133 4.48223 1.11133 8.77778V63.2222C1.11133 67.5178 4.59356 71 8.88911 71H40.0002C44.2958 71 47.778 67.5178 47.778 63.2222V8.77778C47.778 4.48223 44.2958 1 40.0002 1Z" fill="white" stroke="black" stroke-width="2"/>
<path d="M40 4.88892H8.88889C6.74111 4.88892 5 6.63003 5 8.7778V63.2223C5 65.37 6.74111 67.1111 8.88889 67.1111H40C42.1478 67.1111 43.8889 65.37 43.8889 63.2223V8.7778C43.8889 6.63003 42.1478 4.88892 40 4.88892Z" fill="#55AA55"/>
<path fill-rule="evenodd" clip-rule="evenodd" d="M36.1111 16.5557C18.9289 16.5557 5 30.4846 5 47.6668C5 51.9623 8.48223 55.4446 12.7778 55.4446C29.96 55.4446 43.8889 41.5156 43.8889 24.3334C43.8889 20.0379 40.4067 16.5557 36.1111 16.5557Z" fill="white"/>
<path d="M23.5114 24.3333L15.8892 39.8888V43.7777H25.2225V47.6666H29.1114V43.7777H31.4447V39.8888H29.1114V32.1111H25.2225V39.8888H19.9336L27.5558 24.3333H23.5114Z" fill="#55AA55"/>
<path d="M10.6778 6.83325L6.8667 14.611V16.5555H11.5334V18.4999H13.4778V16.5555H14.6445V14.611H13.4778V10.7221H11.5334V14.611H8.88893L12.7 6.83325H10.6778Z" fill="white"/>
<path d="M38.056 65.1667L41.8671 57.3889V55.4444H37.2005V53.5H35.256V55.4444H34.0894V57.3889H35.256V61.2778H37.2005V57.3889H39.8449L36.0338 65.1667H38.056Z" fill="white"/>
</svg>
