<svg width="50" height="72" viewBox="0 0 50 72" fill="none" xmlns="http://www.w3.org/2000/svg">
<path d="M40.2776 1H9.16645C4.8709 1 1.38867 4.48223 1.38867 8.77778V63.2222C1.38867 67.5178 4.8709 71 9.16645 71H40.2776C44.5731 71 48.0553 67.5178 48.0553 63.2222V8.77778C48.0553 4.48223 44.5731 1 40.2776 1Z" fill="white" stroke="black" stroke-width="2"/>
<path d="M40.2773 4.88892H9.16623C7.01846 4.88892 5.27734 6.63003 5.27734 8.7778V63.2223C5.27734 65.37 7.01846 67.1111 9.16623 67.1111H40.2773C42.4251 67.1111 44.1662 65.37 44.1662 63.2223V8.7778C44.1662 6.63003 42.4251 4.88892 40.2773 4.88892Z" fill="#55AA55"/>
<path fill-rule="evenodd" clip-rule="evenodd" d="M36.3885 16.5557C19.2063 16.5557 5.27734 30.4846 5.27734 47.6668C5.27734 51.9623 8.75957 55.4446 13.0551 55.4446C30.2373 55.4446 44.1662 41.5156 44.1662 24.3334C44.1662 20.0379 40.684 16.5557 36.3885 16.5557Z" fill="white"/>
<path d="M17.7222 24.3333V32.111V35.9999H25.4999C27.6544 35.9999 29.3888 37.7344 29.3888 39.8888C29.3888 42.0433 27.6544 43.7777 25.4999 43.7777C23.3455 43.7777 21.6111 42.0433 21.6111 39.8888H17.7222C17.7222 44.1977 21.1911 47.6666 25.4999 47.6666C29.8088 47.6666 33.2777 44.1977 33.2777 39.8888C33.2777 35.5799 29.8088 32.111 25.4999 32.111H21.6111V28.2221H25.4999H32.4999V24.3333H25.4999H21.6111H17.7222Z" fill="#55AA55"/>
<path d="M7.22168 6.83325V10.7221V12.6666H11.1106C12.1878 12.6666 13.055 13.5338 13.055 14.611C13.055 15.6883 12.1878 16.5555 11.1106 16.5555C10.0333 16.5555 9.16612 15.6883 9.16612 14.611H7.22168C7.22168 16.7655 8.95612 18.4999 11.1106 18.4999C13.265 18.4999 14.9995 16.7655 14.9995 14.611C14.9995 12.4566 13.265 10.7221 11.1106 10.7221H9.16612V8.7777H11.1106H14.6106V6.83325H11.1106H9.16612H7.22168Z" fill="white"/>
<path d="M42.2221 65.1667V61.2778V59.3333H38.3332C37.256 59.3333 36.3888 58.4661 36.3888 57.3889C36.3888 56.3117 37.256 55.4444 38.3332 55.4444C39.4104 55.4444 40.2777 56.3117 40.2777 57.3889H42.2221C42.2221 55.2344 40.4877 53.5 38.3332 53.5C36.1788 53.5 34.4443 55.2344 34.4443 57.3889C34.4443 59.5433 36.1788 61.2778 38.3332 61.2778H40.2777V63.2222H38.3332H34.8332V65.1667H38.3332H40.2777H42.2221Z" fill="white"/>
</svg>
