<svg width="50" height="72" viewBox="0 0 50 72" fill="none" xmlns="http://www.w3.org/2000/svg">
<path d="M40.5554 1H9.44428C5.14873 1 1.6665 4.48223 1.6665 8.77778V63.2222C1.6665 67.5178 5.14873 71 9.44428 71H40.5554C44.8509 71 48.3332 67.5178 48.3332 63.2222V8.77778C48.3332 4.48223 44.8509 1 40.5554 1Z" fill="white" stroke="black" stroke-width="2"/>
<path d="M40.5552 4.88892H9.44406C7.29629 4.88892 5.55518 6.63003 5.55518 8.7778V63.2223C5.55518 65.37 7.29629 67.1111 9.44406 67.1111H40.5552C42.7029 67.1111 44.4441 65.37 44.4441 63.2223V8.7778C44.4441 6.63003 42.7029 4.88892 40.5552 4.88892Z" fill="#55AA55"/>
<path fill-rule="evenodd" clip-rule="evenodd" d="M36.6663 16.5557C19.4841 16.5557 5.55518 30.4846 5.55518 47.6668C5.55518 51.9623 9.0374 55.4446 13.333 55.4446C30.5151 55.4446 44.4441 41.5156 44.4441 24.3334C44.4441 20.0379 40.9618 16.5557 36.6663 16.5557Z" fill="white"/>
<path fill-rule="evenodd" clip-rule="evenodd" d="M24.9995 24.3333C20.7039 24.3333 17.2217 27.8155 17.2217 32.111V39.8888C17.2217 44.1844 20.7039 47.6666 24.9995 47.6666C29.295 47.6666 32.7772 44.1844 32.7772 39.8888C32.7772 35.5933 29.295 32.111 24.9995 32.111C23.5862 32.111 22.2527 32.4974 21.1106 33.1562V32.111C21.1106 29.9633 22.8517 28.2221 24.9995 28.2221C26.5194 28.2221 27.8112 29.1143 28.4508 30.3853L31.9508 28.6353C30.6759 26.0808 28.0485 24.3333 24.9995 24.3333ZM24.9995 35.9999C27.1472 35.9999 28.8883 37.741 28.8883 39.8888C28.8883 42.0366 27.1472 43.7777 24.9995 43.7777C22.8517 43.7777 21.1106 42.0366 21.1106 39.8888C21.1106 37.741 22.8517 35.9999 24.9995 35.9999ZM21.1106 48.4444V49.9999H28.8883V48.4444H21.1106Z" fill="#55AA55"/>
<path fill-rule="evenodd" clip-rule="evenodd" d="M11.3889 6.83325C9.24111 6.83325 7.5 8.57437 7.5 10.7221V14.611C7.5 16.7588 9.24111 18.4999 11.3889 18.4999C13.5367 18.4999 15.2778 16.7588 15.2778 14.611C15.2778 12.4632 13.5367 10.7221 11.3889 10.7221C10.6823 10.7221 10.0155 10.9153 9.44444 11.2447V10.7221C9.44444 9.64826 10.315 8.7777 11.3889 8.7777C12.1489 8.7777 12.7948 9.22376 13.1146 9.85929L14.8646 8.98429C14.2271 7.70704 12.9134 6.83325 11.3889 6.83325ZM11.3889 12.6666C12.4628 12.6666 13.3333 13.5371 13.3333 14.611C13.3333 15.6849 12.4628 16.5555 11.3889 16.5555C10.315 16.5555 9.44444 15.6849 9.44444 14.611C9.44444 13.5371 10.315 12.6666 11.3889 12.6666Z" fill="white"/>
<path fill-rule="evenodd" clip-rule="evenodd" d="M38.6111 65.1667C40.7588 65.1667 42.4999 63.4255 42.4999 61.2778V57.3889C42.4999 55.2411 40.7588 53.5 38.6111 53.5C36.4633 53.5 34.7222 55.2411 34.7222 57.3889C34.7222 59.5367 36.4633 61.2778 38.6111 61.2778C39.3177 61.2778 39.9844 61.0846 40.5555 60.7552V61.2778C40.5555 62.3516 39.6849 63.2222 38.6111 63.2222C37.8511 63.2222 37.2052 62.7761 36.8854 62.1406L35.1354 63.0156C35.7728 64.2929 37.0865 65.1667 38.6111 65.1667ZM38.6111 59.3333C37.5372 59.3333 36.6666 58.4628 36.6666 57.3889C36.6666 56.315 37.5372 55.4444 38.6111 55.4444C39.6849 55.4444 40.5555 56.315 40.5555 57.3889C40.5555 58.4628 39.6849 59.3333 38.6111 59.3333Z" fill="white"/>
</svg>
