<svg width="50" height="72" viewBox="0 0 50 72" fill="none" xmlns="http://www.w3.org/2000/svg">
<path d="M40.8332 1H9.72211C5.42657 1 1.94434 4.48223 1.94434 8.77778V63.2222C1.94434 67.5178 5.42657 71 9.72211 71H40.8332C45.1288 71 48.611 67.5178 48.611 63.2222V8.77778C48.611 4.48223 45.1288 1 40.8332 1Z" fill="white" stroke="black" stroke-width="2"/>
<path d="M40.833 4.88892H9.7219C7.57412 4.88892 5.83301 6.63003 5.83301 8.7778V63.2223C5.83301 65.37 7.57412 67.1111 9.7219 67.1111H40.833C42.9808 67.1111 44.7219 65.37 44.7219 63.2223V8.7778C44.7219 6.63003 42.9808 4.88892 40.833 4.88892Z" fill="#55AA55"/>
<path fill-rule="evenodd" clip-rule="evenodd" d="M36.9441 16.5557C19.7619 16.5557 5.83301 30.4846 5.83301 47.6668C5.83301 51.9623 9.31524 55.4446 13.6108 55.4446C30.793 55.4446 44.7219 41.5156 44.7219 24.3334C44.7219 20.0379 41.2397 16.5557 36.9441 16.5557Z" fill="white"/>
<path fill-rule="evenodd" clip-rule="evenodd" d="M18.6665 24.3333V32.111H22.5554V28.2221H30.3332L22.5554 47.6666H26.4443L34.2221 28.2221V24.3333H22.5554H18.6665Z" fill="#55AA55"/>
<path fill-rule="evenodd" clip-rule="evenodd" d="M7.77783 6.83325V10.7221H9.72228V8.7777H13.6112L9.72228 18.4999H11.6667L15.5556 8.7777V6.83325H9.72228H7.77783Z" fill="white"/>
<path fill-rule="evenodd" clip-rule="evenodd" d="M42.7778 65.1667V61.2778H40.8333V63.2222H36.9444L40.8333 53.5H38.8889L35 63.2222V65.1667H40.8333H42.7778Z" fill="white"/>
</svg>
