<svg width="49" height="72" viewBox="0 0 49 72" fill="none" xmlns="http://www.w3.org/2000/svg">
<path d="M40.1111 1H8.99995C4.7044 1 1.22217 4.48223 1.22217 8.77778V63.2222C1.22217 67.5178 4.7044 71 8.99995 71H40.1111C44.4066 71 47.8888 67.5178 47.8888 63.2222V8.77778C47.8888 4.48223 44.4066 1 40.1111 1Z" fill="white" stroke="black" stroke-width="2"/>
<path d="M40.1113 4.88892H9.00022C6.85244 4.88892 5.11133 6.63003 5.11133 8.7778V63.2223C5.11133 65.37 6.85244 67.1111 9.00022 67.1111H40.1113C42.2591 67.1111 44.0002 65.37 44.0002 63.2223V8.7778C44.0002 6.63003 42.2591 4.88892 40.1113 4.88892Z" fill="#55AA55"/>
<path fill-rule="evenodd" clip-rule="evenodd" d="M36.2224 16.5557C19.0402 16.5557 5.11133 30.4846 5.11133 47.6668C5.11133 51.9623 8.59356 55.4446 12.8891 55.4446C30.0713 55.4446 44.0002 41.5156 44.0002 24.3334C44.0002 20.0379 40.518 16.5557 36.2224 16.5557Z" fill="white"/>
<path d="M24.5556 24.3333C21.3339 24.3333 18.7223 26.9449 18.7223 30.1666C18.7223 31.4878 19.1729 32.6886 19.9132 33.6666C18.0132 35.0821 16.7778 37.3268 16.7778 39.8888C16.7778 44.1977 20.2467 47.6666 24.5556 47.6666C28.8645 47.6666 32.3334 44.1977 32.3334 39.8888C32.3334 37.3268 31.098 35.0821 29.198 33.6666C29.9384 32.6886 30.3889 31.4878 30.3889 30.1666C30.3889 26.9449 27.7773 24.3333 24.5556 24.3333ZM24.5556 28.2221C25.6295 28.2221 26.5001 29.0927 26.5001 30.1666C26.5001 31.2405 25.6295 32.111 24.5556 32.111C23.4817 32.111 22.6112 31.2405 22.6112 30.1666C22.6112 29.0927 23.4817 28.2221 24.5556 28.2221ZM24.1667 35.9999C24.2978 35.9867 24.421 35.9999 24.5556 35.9999C26.7101 35.9999 28.4445 37.7344 28.4445 39.8888C28.4445 42.0433 26.7101 43.7777 24.5556 43.7777C22.4012 43.7777 20.6667 42.0433 20.6667 39.8888C20.6667 37.869 22.201 36.1983 24.1667 35.9999Z" fill="#55AA55"/>
<path d="M10.9446 6.83325C9.33372 6.83325 8.02789 8.13906 8.02789 9.74992C8.02789 10.4105 8.25317 11.0109 8.62337 11.4999C7.67335 12.2077 7.05566 13.33 7.05566 14.611C7.05566 16.7655 8.79011 18.4999 10.9446 18.4999C13.099 18.4999 14.8334 16.7655 14.8334 14.611C14.8334 13.33 14.2158 12.2077 13.2657 11.4999C13.6359 11.0109 13.8612 10.4105 13.8612 9.74992C13.8612 8.13906 12.5554 6.83325 10.9446 6.83325ZM10.9446 8.7777C11.4815 8.7777 11.9168 9.21298 11.9168 9.74992C11.9168 10.2868 11.4815 10.7221 10.9446 10.7221C10.4076 10.7221 9.97233 10.2868 9.97233 9.74992C9.97233 9.21298 10.4076 8.7777 10.9446 8.7777ZM10.7501 12.6666C10.8156 12.6596 10.8772 12.6666 10.9446 12.6666C12.0218 12.6666 12.889 13.5338 12.889 14.611C12.889 15.6883 12.0218 16.5555 10.9446 16.5555C9.86733 16.5555 9.00011 15.6883 9.00011 14.611C9.00011 13.6011 9.76723 12.7658 10.7501 12.6666Z" fill="white"/>
<path d="M38.1667 65.1667C36.5559 65.1667 35.2501 63.8609 35.2501 62.25C35.2501 61.5894 35.4753 60.989 35.8455 60.5C34.8955 59.7923 34.2778 58.6699 34.2778 57.3889C34.2778 55.2344 36.0123 53.5 38.1667 53.5C40.3212 53.5 42.0556 55.2344 42.0556 57.3889C42.0556 58.6699 41.4379 59.7923 40.4879 60.5C40.8581 60.989 41.0834 61.5894 41.0834 62.25C41.0834 63.8609 39.7776 65.1667 38.1667 65.1667ZM38.1667 63.2222C38.7037 63.2222 39.1389 62.7869 39.1389 62.25C39.1389 61.7131 38.7037 61.2778 38.1667 61.2778C37.6298 61.2778 37.1945 61.7131 37.1945 62.25C37.1945 62.7869 37.6298 63.2222 38.1667 63.2222ZM37.9723 59.3333C38.0378 59.3403 38.0994 59.3333 38.1667 59.3333C39.2439 59.3333 40.1112 58.4661 40.1112 57.3889C40.1112 56.3117 39.2439 55.4444 38.1667 55.4444C37.0895 55.4444 36.2223 56.3117 36.2223 57.3889C36.2223 58.3988 36.9894 59.2341 37.9723 59.3333Z" fill="white"/>
</svg>
