<svg width="50" height="72" viewBox="0 0 50 72" fill="none" xmlns="http://www.w3.org/2000/svg">
<path d="M40.3889 1H9.27778C4.98223 1 1.5 4.48223 1.5 8.77778V63.2222C1.5 67.5178 4.98223 71 9.27778 71H40.3889C44.6844 71 48.1667 67.5178 48.1667 63.2222V8.77778C48.1667 4.48223 44.6844 1 40.3889 1Z" fill="white" stroke="black" stroke-width="2"/>
<path d="M40.3892 4.88892H9.27805C7.13027 4.88892 5.38916 6.63003 5.38916 8.7778V63.2223C5.38916 65.37 7.13027 67.1111 9.27805 67.1111H40.3892C42.5369 67.1111 44.278 65.37 44.278 63.2223V8.7778C44.278 6.63003 42.5369 4.88892 40.3892 4.88892Z" fill="#55AA55"/>
<path fill-rule="evenodd" clip-rule="evenodd" d="M36.5003 16.5557C19.3181 16.5557 5.38916 30.4846 5.38916 47.6668C5.38916 51.9623 8.87139 55.4446 13.1669 55.4446C30.3491 55.4446 44.278 41.5156 44.278 24.3334C44.278 20.0379 40.7958 16.5557 36.5003 16.5557Z" fill="white"/>
<path fill-rule="evenodd" clip-rule="evenodd" d="M24.8334 24.3333C20.5379 24.3333 17.0557 27.8155 17.0557 32.111C17.0557 36.4066 20.5379 39.8888 24.8334 39.8888C26.2467 39.8888 27.5802 39.5025 28.7223 38.8437V39.8888C28.7223 42.0366 26.9812 43.7777 24.8334 43.7777C23.3135 43.7777 22.0217 42.8856 21.3821 41.6145L17.8821 43.3645C19.157 45.919 21.7844 47.6666 24.8334 47.6666C29.129 47.6666 32.6112 44.1844 32.6112 39.8888V32.111C32.6112 27.8155 29.129 24.3333 24.8334 24.3333ZM24.8334 28.2221C26.9812 28.2221 28.7223 29.9633 28.7223 32.111C28.7223 34.2588 26.9812 35.9999 24.8334 35.9999C22.6857 35.9999 20.9446 34.2588 20.9446 32.111C20.9446 29.9633 22.6857 28.2221 24.8334 28.2221ZM20.9446 48.4444V49.9999H28.7223V48.4444H20.9446Z" fill="#55AA55"/>
<path fill-rule="evenodd" clip-rule="evenodd" d="M11.2224 18.4999C13.3702 18.4999 15.1113 16.7588 15.1113 14.611V10.7221C15.1113 8.57436 13.3702 6.83325 11.2224 6.83325C9.07461 6.83325 7.3335 8.57436 7.3335 10.7221C7.3335 12.8699 9.07461 14.611 11.2224 14.611C11.929 14.611 12.5958 14.4179 13.1668 14.0885V14.611C13.1668 15.6849 12.2963 16.5555 11.2224 16.5555C10.4624 16.5555 9.8165 16.1094 9.49669 15.4739L7.74669 16.3489C8.38417 17.6261 9.69785 18.4999 11.2224 18.4999ZM11.2224 12.6666C10.1485 12.6666 9.27794 11.796 9.27794 10.7221C9.27794 9.64826 10.1485 8.7777 11.2224 8.7777C12.2963 8.7777 13.1668 9.64826 13.1668 10.7221C13.1668 11.796 12.2963 12.6666 11.2224 12.6666Z" fill="white"/>
<path fill-rule="evenodd" clip-rule="evenodd" d="M38.4446 53.5C36.2968 53.5 34.5557 55.2411 34.5557 57.3889V61.2778C34.5557 63.4256 36.2968 65.1667 38.4446 65.1667C40.5923 65.1667 42.3334 63.4256 42.3334 61.2778C42.3334 59.13 40.5923 57.3889 38.4446 57.3889C37.7379 57.3889 37.0712 57.5821 36.5001 57.9115V57.3889C36.5001 56.315 37.3707 55.4445 38.4446 55.4445C39.2045 55.4445 39.8504 55.8905 40.1702 56.526L41.9202 55.651C41.2828 54.3738 39.9691 53.5 38.4446 53.5ZM38.4446 59.3333C39.5184 59.3333 40.389 60.2039 40.389 61.2778C40.389 62.3517 39.5184 63.2222 38.4446 63.2222C37.3707 63.2222 36.5001 62.3517 36.5001 61.2778C36.5001 60.2039 37.3707 59.3333 38.4446 59.3333Z" fill="white"/>
</svg>
