<svg width="49" height="72" viewBox="0 0 49 72" fill="none" xmlns="http://www.w3.org/2000/svg">
<path d="M40.2224 1H9.11127C4.81573 1 1.3335 4.48223 1.3335 8.77778V63.2222C1.3335 67.5178 4.81573 71 9.11127 71H40.2224C44.5179 71 48.0002 67.5178 48.0002 63.2222V8.77778C48.0002 4.48223 44.5179 1 40.2224 1Z" fill="white" stroke="black" stroke-width="2"/>
<path d="M40.2222 4.88892H9.11106C6.96328 4.88892 5.22217 6.63003 5.22217 8.7778V63.2223C5.22217 65.37 6.96328 67.1111 9.11106 67.1111H40.2222C42.3699 67.1111 44.1111 65.37 44.1111 63.2223V8.7778C44.1111 6.63003 42.3699 4.88892 40.2222 4.88892Z" fill="#55AA55"/>
<path fill-rule="evenodd" clip-rule="evenodd" d="M36.3333 16.5557C19.1511 16.5557 5.22217 30.4846 5.22217 47.6668C5.22217 51.9623 8.7044 55.4446 12.9999 55.4446C30.1821 55.4446 44.1111 41.5156 44.1111 24.3334C44.1111 20.0379 40.6288 16.5557 36.3333 16.5557Z" fill="white"/>
<path d="M27.167 30.1665H19.3893C18.3154 30.1665 17.2202 30.9526 16.9432 31.9223L12.9465 45.9107C12.6694 46.8804 13.3154 47.6665 14.3892 47.6665H22.167C23.2409 47.6665 24.3361 46.8804 24.6131 45.9107L28.6098 31.9223C28.8869 30.9526 28.2409 30.1665 27.167 30.1665Z" fill="white" stroke="black" stroke-width="2.03962"/>
<path d="M24.6668 32.1113H20.7779C19.7041 32.1113 18.6089 32.8974 18.3318 33.8671L15.4463 43.9666C15.1692 44.9363 15.8152 45.7224 16.889 45.7224H20.7779C21.8518 45.7224 22.947 44.9363 23.224 43.9666L26.1096 33.8671C26.3867 32.8974 25.7407 32.1113 24.6668 32.1113Z" fill="#55AA55"/>
<path d="M34.9444 24.3333H27.1666C26.0927 24.3333 24.9976 25.1193 24.7205 26.089L20.7238 40.0774C20.4468 41.0471 21.0927 41.8333 22.1666 41.8333H29.9444C31.0183 41.8333 32.1134 41.0471 32.3905 40.0774L36.3872 26.089C36.6642 25.1193 36.0183 24.3333 34.9444 24.3333Z" fill="white" stroke="black" stroke-width="2.03962"/>
<path d="M32.4447 26.2776H28.5558C27.4819 26.2776 26.3867 27.0637 26.1097 28.0334L23.2241 38.1329C22.947 39.1026 23.593 39.8887 24.6669 39.8887H28.5558C29.6296 39.8887 30.7248 39.1026 31.0019 38.1329L33.8874 28.0334C34.1645 27.0637 33.5185 26.2776 32.4447 26.2776Z" fill="#55AA55"/>
<path fill-rule="evenodd" clip-rule="evenodd" d="M7.94444 10.7222V12.6667H6V14.6111H7.94444V16.5555H9.88889V14.6111H11.8333V12.6667H9.88889V10.7222H7.94444Z" fill="white"/>
<path d="M16.8889 6.83325C14.7344 6.83325 13 8.5677 13 10.7221V11.111H14.9444V10.7221C14.9444 9.64492 15.8117 8.7777 16.8889 8.7777C17.9661 8.7777 18.8333 9.64492 18.8333 10.7221C18.8333 11.1606 18.4695 12.0211 18.0896 12.3201C16.0266 13.9437 16.0484 13.6755 13 15.7777V18.4999H16.8889H20.7778V16.5555V15.7777H18.8333V16.5555H16.8889H15.3333C17.7406 14.8604 17.9166 14.9015 19.8028 13.2135C20.4072 12.6726 20.7778 11.5992 20.7778 10.7221C20.7778 8.5677 19.0433 6.83325 16.8889 6.83325Z" fill="white"/>
<path fill-rule="evenodd" clip-rule="evenodd" d="M41.3889 61.2779V59.3335H43.3333V57.3891H41.3889V55.4446H39.4444V57.3891H37.5V59.3335H39.4444V61.2779H41.3889Z" fill="white"/>
<path d="M32.4446 65.1669C34.599 65.1669 36.3334 63.4325 36.3334 61.278V60.8891H34.389V61.278C34.389 62.3552 33.5218 63.2225 32.4446 63.2225C31.3673 63.2225 30.5001 62.3552 30.5001 61.278C30.5001 60.8396 30.8639 59.9791 31.2438 59.6801C33.3068 58.0565 33.285 58.3246 36.3334 56.2225V53.5002H32.4446H28.5557V55.4447V56.2225H30.5001V55.4447H32.4446H34.0001C31.5929 57.1398 31.4169 57.0987 29.5306 58.7867C28.9262 59.3276 28.5557 60.401 28.5557 61.278C28.5557 63.4325 30.2901 65.1669 32.4446 65.1669Z" fill="white"/>
</svg>
