<svg width="49" height="72" viewBox="0 0 49 72" fill="none" xmlns="http://www.w3.org/2000/svg">
<path d="M39.9446 1H8.83344C4.53789 1 1.05566 4.48223 1.05566 8.77778V63.2222C1.05566 67.5178 4.53789 71 8.83344 71H39.9446C44.2401 71 47.7223 67.5178 47.7223 63.2222V8.77778C47.7223 4.48223 44.2401 1 39.9446 1Z" fill="white" stroke="black" stroke-width="2"/>
<path d="M39.9443 4.88892H8.83322C6.68545 4.88892 4.94434 6.63003 4.94434 8.7778V63.2223C4.94434 65.37 6.68545 67.1111 8.83322 67.1111H39.9443C42.0921 67.1111 43.8332 65.37 43.8332 63.2223V8.7778C43.8332 6.63003 42.0921 4.88892 39.9443 4.88892Z" fill="#55AA55"/>
<path fill-rule="evenodd" clip-rule="evenodd" d="M36.0554 16.5557C18.8733 16.5557 4.94434 30.4846 4.94434 47.6668C4.94434 51.9623 8.42656 55.4446 12.7221 55.4446C29.9043 55.4446 43.8332 41.5156 43.8332 24.3334C43.8332 20.0379 40.351 16.5557 36.0554 16.5557Z" fill="white"/>
<path d="M24.3888 23.3613L26.3333 25.3058L18.5555 33.0836C16.6111 35.028 16.6111 38.9169 18.5555 40.8613L22.4444 36.9724L30.2222 29.1947L32.1666 31.1391V23.3613H24.3888Z" fill="#55AA55"/>
<path d="M24.3891 48.6389L22.4447 46.6945L30.2224 38.9167C32.1669 36.9722 32.1669 33.0834 30.2224 31.1389L26.3336 35.0278L18.5558 42.8056L16.6113 40.8611V48.6389H24.3891Z" fill="#55AA55"/>
<path d="M10.7777 6.83325L11.7499 7.80547L7.861 11.6944C6.88878 12.6666 6.88878 14.611 7.861 15.5833L9.80545 13.6388L13.6943 9.74992L14.6666 10.7221V6.83325H10.7777Z" fill="white"/>
<path d="M10.778 19.4722L9.80583 18.4999L13.6947 14.6111C14.6669 13.6388 14.6669 11.6944 13.6947 10.7222L11.7503 12.6666L7.86138 16.5555L6.88916 15.5833V19.4722H10.778Z" fill="white"/>
<path d="M37.9998 52.5278L38.9721 53.5001L35.0832 57.3889C34.1109 58.3612 34.1109 60.3056 35.0832 61.2778L37.0276 59.3334L40.9165 55.4445L41.8887 56.4167V52.5278H37.9998Z" fill="white"/>
<path d="M38.0002 65.1667L37.028 64.1945L40.9169 60.3056C41.8891 59.3334 41.8891 57.389 40.9169 56.4167L38.9724 58.3612L35.0836 62.2501L34.1113 61.2779V65.1667H38.0002Z" fill="white"/>
</svg>
