<svg width="50" height="72" viewBox="0 0 50 72" fill="none" xmlns="http://www.w3.org/2000/svg">
<path d="M40.6667 1H9.55561C5.26006 1 1.77783 4.48223 1.77783 8.77778V63.2222C1.77783 67.5178 5.26006 71 9.55561 71H40.6667C44.9623 71 48.4445 67.5178 48.4445 63.2222V8.77778C48.4445 4.48223 44.9623 1 40.6667 1Z" fill="white" stroke="black" stroke-width="2"/>
<path d="M40.6665 4.88892H9.55539C7.40762 4.88892 5.6665 6.63003 5.6665 8.7778V63.2223C5.6665 65.37 7.40762 67.1111 9.55539 67.1111H40.6665C42.8143 67.1111 44.5554 65.37 44.5554 63.2223V8.7778C44.5554 6.63003 42.8143 4.88892 40.6665 4.88892Z" fill="#55AA55"/>
<path fill-rule="evenodd" clip-rule="evenodd" d="M36.7776 16.5557C19.5954 16.5557 5.6665 30.4846 5.6665 47.6668C5.6665 51.9623 9.14873 55.4446 13.4443 55.4446C30.6265 55.4446 44.5554 41.5156 44.5554 24.3334C44.5554 20.0379 41.0732 16.5557 36.7776 16.5557Z" fill="white"/>
<path fill-rule="evenodd" clip-rule="evenodd" d="M25.1355 24.3333C22.1497 24.3294 19.1526 25.461 16.8716 27.7361C12.3096 32.2862 12.2972 39.6775 16.8474 44.2395C21.3975 48.8016 28.7888 48.814 33.3508 44.2638C37.9129 39.7136 37.9253 32.3224 33.3751 27.7603C31.1 25.4793 28.1213 24.3371 25.1355 24.3333V24.3333ZM25.1112 28.2222C26.4723 28.2237 27.8395 28.58 29.0487 29.2916L18.4029 39.9375C16.6449 36.9525 17.0521 33.0421 19.6182 30.4826C21.1389 28.9659 23.1207 28.2196 25.1112 28.2222ZM31.8196 32.0382C33.5898 35.0254 33.1756 38.9528 30.6043 41.5173C28.0355 44.0794 24.1309 44.456 21.1494 42.684L31.8196 32.0382Z" fill="#55AA55"/>
<path fill-rule="evenodd" clip-rule="evenodd" d="M13.4568 6.83328C11.9642 6.83094 10.4659 7.39707 9.32563 8.5345C7.04504 10.8094 7.03882 14.5047 9.31347 16.7855C11.5881 19.0663 15.2831 19.0725 17.5637 16.7976C19.8443 14.5227 19.8505 10.8275 17.5758 8.54665C16.4385 7.40623 14.9494 6.8352 13.4568 6.83325V6.83328ZM13.4447 8.77753C14.125 8.7783 14.8085 8.95644 15.413 9.31221L10.0911 14.6346C9.21224 13.1423 9.41578 11.1873 10.6986 9.90764C11.4588 9.14935 12.4496 8.77622 13.4447 8.77753ZM16.7982 10.6853C17.6831 12.1788 17.4761 14.1423 16.1907 15.4245C14.9065 16.7054 12.9546 16.8937 11.4641 16.0078L16.7982 10.6853Z" fill="white"/>
<path fill-rule="evenodd" clip-rule="evenodd" d="M36.7898 53.5C35.2972 53.4977 33.7989 54.0638 32.6586 55.2012C30.378 57.4761 30.3718 61.1714 32.6465 63.4522C34.9211 65.733 38.6161 65.7392 40.8967 63.4644C43.1773 61.1895 43.1835 57.4942 40.9088 55.2134C39.7715 54.073 38.2824 53.502 36.7898 53.5V53.5ZM36.7777 55.4443C37.458 55.445 38.1415 55.6232 38.746 55.979L33.4241 61.3014C32.5452 59.809 32.7488 57.854 34.0316 56.5744C34.7918 55.8161 35.7826 55.443 36.7777 55.4443ZM40.1312 57.3521C41.0161 58.8456 40.8091 60.8091 39.5237 62.0912C38.2395 63.3722 36.2876 63.5604 34.7971 62.6745L40.1312 57.3521Z" fill="white"/>
</svg>
