<svg width="49" height="73" viewBox="0 0 49 73" fill="none" xmlns="http://www.w3.org/2000/svg">
<path d="M39.8889 1.9646H8.77778C4.48223 1.9646 1 5.44683 1 9.74238V64.1868C1 68.4824 4.48223 71.9646 8.77778 71.9646H39.8889C44.1844 71.9646 47.6667 68.4824 47.6667 64.1868V9.74238C47.6667 5.44683 44.1844 1.9646 39.8889 1.9646Z" fill="white" stroke="black" stroke-width="2"/>
<path d="M39.8892 5.85352H8.77805C6.63027 5.85352 4.88916 7.59463 4.88916 9.7424V64.1869C4.88916 66.3346 6.63027 68.0757 8.77805 68.0757H39.8892C42.0369 68.0757 43.778 66.3346 43.778 64.1869V9.7424C43.778 7.59463 42.0369 5.85352 39.8892 5.85352Z" fill="#FF5555"/>
<path fill-rule="evenodd" clip-rule="evenodd" d="M36.0003 17.5203C18.8181 17.5203 4.88916 31.4492 4.88916 48.6314C4.88916 52.9269 8.37139 56.4092 12.6669 56.4092C29.8491 56.4092 43.778 42.4802 43.778 25.298C43.778 21.0025 40.2958 17.5203 36.0003 17.5203Z" fill="white"/>
<path fill-rule="evenodd" clip-rule="evenodd" d="M24.3334 25.2981C20.0379 25.2981 16.5557 28.7803 16.5557 33.0759V40.8537C16.5557 45.1492 20.0379 48.6314 24.3334 48.6314C28.629 48.6314 32.1112 45.1492 32.1112 40.8537V33.0759C32.1112 28.7803 28.629 25.2981 24.3334 25.2981ZM24.3334 29.187C26.4812 29.187 28.2223 30.9281 28.2223 33.0759V40.8537C28.2223 43.0014 26.4812 44.7425 24.3334 44.7425C22.1857 44.7425 20.4446 43.0014 20.4446 40.8537V33.0759C20.4446 30.9281 22.1857 29.187 24.3334 29.187Z" fill="#FF5555"/>
<path fill-rule="evenodd" clip-rule="evenodd" d="M10.7224 7.79785C8.57461 7.79785 6.8335 9.53896 6.8335 11.6867V15.5756C6.8335 17.7234 8.57461 19.4645 10.7224 19.4645C12.8702 19.4645 14.6113 17.7234 14.6113 15.5756V11.6867C14.6113 9.53896 12.8702 7.79785 10.7224 7.79785ZM10.7224 9.7423C11.7963 9.7423 12.6668 10.6129 12.6668 11.6867V15.5756C12.6668 16.6495 11.7963 17.5201 10.7224 17.5201C9.6485 17.5201 8.77794 16.6495 8.77794 15.5756V11.6867C8.77794 10.6129 9.6485 9.7423 10.7224 9.7423Z" fill="white"/>
<path fill-rule="evenodd" clip-rule="evenodd" d="M37.9446 54.4646C35.7968 54.4646 34.0557 56.2057 34.0557 58.3535V62.2424C34.0557 64.3902 35.7968 66.1313 37.9446 66.1313C40.0923 66.1313 41.8334 64.3902 41.8334 62.2424V58.3535C41.8334 56.2057 40.0923 54.4646 37.9446 54.4646ZM37.9446 56.409C39.0184 56.409 39.889 57.2796 39.889 58.3535V62.2424C39.889 63.3163 39.0184 64.1868 37.9446 64.1868C36.8707 64.1868 36.0001 63.3163 36.0001 62.2424V58.3535C36.0001 57.2796 36.8707 56.409 37.9446 56.409Z" fill="white"/>
</svg>
