<svg width="49" height="73" viewBox="0 0 49 73" fill="none" xmlns="http://www.w3.org/2000/svg">
<path d="M40.1667 1.9646H9.05561C4.76006 1.9646 1.27783 5.44683 1.27783 9.74238V64.1868C1.27783 68.4824 4.76006 71.9646 9.05561 71.9646H40.1667C44.4623 71.9646 47.9445 68.4824 47.9445 64.1868V9.74238C47.9445 5.44683 44.4623 1.9646 40.1667 1.9646Z" fill="white" stroke="black" stroke-width="2"/>
<path d="M40.1665 5.85352H9.05539C6.90762 5.85352 5.1665 7.59463 5.1665 9.7424V64.1869C5.1665 66.3346 6.90762 68.0757 9.05539 68.0757H40.1665C42.3143 68.0757 44.0554 66.3346 44.0554 64.1869V9.7424C44.0554 7.59463 42.3143 5.85352 40.1665 5.85352Z" fill="#FF5555"/>
<path fill-rule="evenodd" clip-rule="evenodd" d="M36.2776 17.5203C19.0954 17.5203 5.1665 31.4492 5.1665 48.6314C5.1665 52.9269 8.64873 56.4092 12.9443 56.4092C30.1265 56.4092 44.0554 42.4802 44.0554 25.298C44.0554 21.0025 40.5732 17.5203 36.2776 17.5203Z" fill="white"/>
<path fill-rule="evenodd" clip-rule="evenodd" d="M23.0554 25.2981L19.1665 29.187V33.8537L23.0554 29.9648V48.6314H26.9443V25.2981H23.0554Z" fill="#FF5555"/>
<path fill-rule="evenodd" clip-rule="evenodd" d="M9.05577 7.79785L7.11133 9.7423V12.0756L9.05577 10.1312V19.4645H11.0002V7.79785H9.05577Z" fill="white"/>
<path fill-rule="evenodd" clip-rule="evenodd" d="M40.1666 66.1313L42.1111 64.1868V61.8535L40.1666 63.7979V54.4646H38.2222V66.1313H40.1666Z" fill="white"/>
</svg>
