<svg width="50" height="73" viewBox="0 0 50 73" fill="none" xmlns="http://www.w3.org/2000/svg">
<path d="M40.4446 1.9646H9.33344C5.03789 1.9646 1.55566 5.44683 1.55566 9.74238V64.1868C1.55566 68.4824 5.03789 71.9646 9.33344 71.9646H40.4446C44.7401 71.9646 48.2223 68.4824 48.2223 64.1868V9.74238C48.2223 5.44683 44.7401 1.9646 40.4446 1.9646Z" fill="white" stroke="black" stroke-width="2"/>
<path d="M40.4443 5.85352H9.33322C7.18545 5.85352 5.44434 7.59463 5.44434 9.7424V64.1869C5.44434 66.3346 7.18545 68.0757 9.33322 68.0757H40.4443C42.5921 68.0757 44.3332 66.3346 44.3332 64.1869V9.7424C44.3332 7.59463 42.5921 5.85352 40.4443 5.85352Z" fill="#FF5555"/>
<path fill-rule="evenodd" clip-rule="evenodd" d="M36.5554 17.5203C19.3733 17.5203 5.44434 31.4492 5.44434 48.6314C5.44434 52.9269 8.92656 56.4092 13.2221 56.4092C30.4043 56.4092 44.3332 42.4802 44.3332 25.298C44.3332 21.0025 40.851 17.5203 36.5554 17.5203Z" fill="white"/>
<path d="M24.1113 25.2981C19.8024 25.2981 16.3335 28.767 16.3335 33.0759V33.8537H20.2224V33.0759C20.2224 30.9214 21.9568 29.187 24.1113 29.187C26.2657 29.187 28.0002 30.9214 28.0002 33.0759C28.0002 33.9528 27.2725 35.6738 26.5127 36.2718C22.3867 39.5189 22.4303 38.9827 16.3335 43.187V48.6314H24.1113H31.8891V44.7425V43.187H28.0002V44.7425H24.1113H21.0002C25.8147 41.3524 26.1667 41.4346 29.9392 38.0585C31.1479 36.9768 31.8891 34.8299 31.8891 33.0759C31.8891 28.767 28.4202 25.2981 24.1113 25.2981Z" fill="#FF5555"/>
<path d="M11.278 7.79785C9.1236 7.79785 7.38916 9.5323 7.38916 11.6867V12.0756H9.3336V11.6867C9.3336 10.6095 10.2008 9.7423 11.278 9.7423C12.3553 9.7423 13.2225 10.6095 13.2225 11.6867C13.2225 12.1252 12.8587 12.9857 12.4788 13.2847C10.4158 14.9083 10.4376 14.6401 7.38916 16.7423V19.4645H11.278H15.1669V17.5201V16.7423H13.2225V17.5201H11.278H9.72249C12.1297 15.825 12.3058 15.8661 14.192 14.1781C14.7964 13.6372 15.1669 12.5638 15.1669 11.6867C15.1669 9.5323 13.4325 7.79785 11.278 7.79785Z" fill="white"/>
<path d="M38.5002 66.1313C40.6547 66.1313 42.3891 64.3968 42.3891 62.2424V61.8535H40.4447V62.2424C40.4447 63.3196 39.5774 64.1868 38.5002 64.1868C37.423 64.1868 36.5558 63.3196 36.5558 62.2424C36.5558 61.8039 36.9196 60.9434 37.2995 60.6444C39.3625 59.0208 39.3407 59.289 42.3891 57.1868V54.4646H38.5002H34.6113V56.409V57.1868H36.5558V56.409H38.5002H40.0558C37.6485 58.1041 37.4725 58.063 35.5862 59.751C34.9819 60.2919 34.6113 61.3654 34.6113 62.2424C34.6113 64.3968 36.3458 66.1313 38.5002 66.1313Z" fill="white"/>
</svg>
