<svg width="50" height="73" viewBox="0 0 50 73" fill="none" xmlns="http://www.w3.org/2000/svg">
<path d="M40.7224 1.9646H9.61127C5.31573 1.9646 1.8335 5.44683 1.8335 9.74238V64.1868C1.8335 68.4824 5.31573 71.9646 9.61127 71.9646H40.7224C45.0179 71.9646 48.5002 68.4824 48.5002 64.1868V9.74238C48.5002 5.44683 45.0179 1.9646 40.7224 1.9646Z" fill="white" stroke="black" stroke-width="2"/>
<path d="M40.7222 5.85352H9.61106C7.46328 5.85352 5.72217 7.59463 5.72217 9.7424V64.1869C5.72217 66.3346 7.46328 68.0757 9.61106 68.0757H40.7222C42.8699 68.0757 44.6111 66.3346 44.6111 64.1869V9.7424C44.6111 7.59463 42.8699 5.85352 40.7222 5.85352Z" fill="#FF5555"/>
<path fill-rule="evenodd" clip-rule="evenodd" d="M36.8333 17.5203C19.6511 17.5203 5.72217 31.4492 5.72217 48.6314C5.72217 52.9269 9.2044 56.4092 13.4999 56.4092C30.6821 56.4092 44.6111 42.4802 44.6111 25.298C44.6111 21.0025 41.1288 17.5203 36.8333 17.5203Z" fill="white"/>
<path d="M25.1669 25.2981C21.9453 25.2981 19.3336 27.9098 19.3336 31.1314H23.2225C23.2225 30.0575 24.0931 29.187 25.1669 29.187C26.2408 29.187 27.1114 30.0575 27.1114 31.1314C27.1114 32.2053 26.2408 33.0759 25.1669 33.0759H22.8336V36.9648H25.1669C27.3214 36.9648 29.0558 38.6992 29.0558 40.8537C29.0558 43.0081 27.3214 44.7425 25.1669 44.7425C23.0125 44.7425 21.278 43.0081 21.278 40.8537H17.3892C17.3892 45.1625 20.858 48.6314 25.1669 48.6314C29.4758 48.6314 32.9447 45.1625 32.9447 40.8537C32.9447 38.2917 31.7094 36.0469 29.8093 34.6314C30.5497 33.6535 31.0003 32.4526 31.0003 31.1314C31.0003 27.9098 28.3886 25.2981 25.1669 25.2981Z" fill="#FF5555"/>
<path d="M11.5559 7.79785C9.94505 7.79785 8.63921 9.10369 8.63921 10.7145H10.5837C10.5837 10.1776 11.0189 9.7423 11.5559 9.7423C12.0928 9.7423 12.5281 10.1776 12.5281 10.7145C12.5281 11.2515 12.0928 11.6867 11.5559 11.6867H10.3892V13.6312H11.5559C12.6331 13.6312 13.5003 14.4984 13.5003 15.5756C13.5003 16.6529 12.6331 17.5201 11.5559 17.5201C10.4787 17.5201 9.61144 16.6529 9.61144 15.5756H7.66699C7.66699 17.7301 9.40144 19.4645 11.5559 19.4645C13.7103 19.4645 15.4448 17.7301 15.4448 15.5756C15.4448 14.2947 14.8271 13.1722 13.8771 12.4645C14.2473 11.9755 14.4725 11.3751 14.4725 10.7145C14.4725 9.10369 13.1667 7.79785 11.5559 7.79785Z" fill="white"/>
<path d="M38.778 66.1313C40.3889 66.1313 41.6947 64.8254 41.6947 63.2146H39.7503C39.7503 63.7515 39.315 64.1868 38.778 64.1868C38.2411 64.1868 37.8058 63.7515 37.8058 63.2146C37.8058 62.6777 38.2411 62.2424 38.778 62.2424H39.9447V60.2979H38.778C37.7008 60.2979 36.8336 59.4307 36.8336 58.3535C36.8336 57.2763 37.7008 56.409 38.778 56.409C39.8553 56.409 40.7225 57.2763 40.7225 58.3535H42.6669C42.6669 56.199 40.9325 54.4646 38.778 54.4646C36.6236 54.4646 34.8892 56.199 34.8892 58.3535C34.8892 59.6345 35.5068 60.7569 36.4569 61.4646C36.0867 61.9536 35.8614 62.554 35.8614 63.2146C35.8614 64.8254 37.1672 66.1313 38.778 66.1313Z" fill="white"/>
</svg>
