<svg width="49" height="73" viewBox="0 0 49 73" fill="none" xmlns="http://www.w3.org/2000/svg">
<path d="M40.0002 1.9646H8.88911C4.59356 1.9646 1.11133 5.44683 1.11133 9.74238V64.1868C1.11133 68.4824 4.59356 71.9646 8.88911 71.9646H40.0002C44.2958 71.9646 47.778 68.4824 47.778 64.1868V9.74238C47.778 5.44683 44.2958 1.9646 40.0002 1.9646Z" fill="white" stroke="black" stroke-width="2"/>
<path d="M40 5.85352H8.88889C6.74111 5.85352 5 7.59463 5 9.7424V64.1869C5 66.3346 6.74111 68.0757 8.88889 68.0757H40C42.1478 68.0757 43.8889 66.3346 43.8889 64.1869V9.7424C43.8889 7.59463 42.1478 5.85352 40 5.85352Z" fill="#FF5555"/>
<path fill-rule="evenodd" clip-rule="evenodd" d="M36.1111 17.5203C18.9289 17.5203 5 31.4492 5 48.6314C5 52.9269 8.48223 56.4092 12.7778 56.4092C29.96 56.4092 43.8889 42.4802 43.8889 25.298C43.8889 21.0025 40.4067 17.5203 36.1111 17.5203Z" fill="white"/>
<path d="M23.5114 25.2981L15.8892 40.8537V44.7425H25.2225V48.6314H29.1114V44.7425H31.4447V40.8537H29.1114V33.0759H25.2225V40.8537H19.9336L27.5558 25.2981H23.5114Z" fill="#FF5555"/>
<path d="M10.6778 7.79785L6.8667 15.5756V17.5201H11.5334V19.4645H13.4778V17.5201H14.6445V15.5756H13.4778V11.6867H11.5334V15.5756H8.88893L12.7 7.79785H10.6778Z" fill="white"/>
<path d="M38.056 66.1313L41.8671 58.3535V56.409H37.2005V54.4646H35.256V56.409H34.0894V58.3535H35.256V62.2424H37.2005V58.3535H39.8449L36.0338 66.1313H38.056Z" fill="white"/>
</svg>
