<svg width="50" height="73" viewBox="0 0 50 73" fill="none" xmlns="http://www.w3.org/2000/svg">
<path d="M40.2776 1.9646H9.16645C4.8709 1.9646 1.38867 5.44683 1.38867 9.74238V64.1868C1.38867 68.4824 4.8709 71.9646 9.16645 71.9646H40.2776C44.5731 71.9646 48.0553 68.4824 48.0553 64.1868V9.74238C48.0553 5.44683 44.5731 1.9646 40.2776 1.9646Z" fill="white" stroke="black" stroke-width="2"/>
<path d="M40.2773 5.85352H9.16623C7.01846 5.85352 5.27734 7.59463 5.27734 9.7424V64.1869C5.27734 66.3346 7.01846 68.0757 9.16623 68.0757H40.2773C42.4251 68.0757 44.1662 66.3346 44.1662 64.1869V9.7424C44.1662 7.59463 42.4251 5.85352 40.2773 5.85352Z" fill="#FF5555"/>
<path fill-rule="evenodd" clip-rule="evenodd" d="M36.3885 17.5203C19.2063 17.5203 5.27734 31.4492 5.27734 48.6314C5.27734 52.9269 8.75957 56.4092 13.0551 56.4092C30.2373 56.4092 44.1662 42.4802 44.1662 25.298C44.1662 21.0025 40.684 17.5203 36.3885 17.5203Z" fill="white"/>
<path d="M17.7222 25.2981V33.0759V36.9648H25.4999C27.6544 36.9648 29.3888 38.6992 29.3888 40.8537C29.3888 43.0081 27.6544 44.7425 25.4999 44.7425C23.3455 44.7425 21.6111 43.0081 21.6111 40.8537H17.7222C17.7222 45.1625 21.1911 48.6314 25.4999 48.6314C29.8088 48.6314 33.2777 45.1625 33.2777 40.8537C33.2777 36.5448 29.8088 33.0759 25.4999 33.0759H21.6111V29.187H25.4999H32.4999V25.2981H25.4999H21.6111H17.7222Z" fill="#FF5555"/>
<path d="M7.22168 7.79785V11.6867V13.6312H11.1106C12.1878 13.6312 13.055 14.4984 13.055 15.5756C13.055 16.6529 12.1878 17.5201 11.1106 17.5201C10.0333 17.5201 9.16612 16.6529 9.16612 15.5756H7.22168C7.22168 17.7301 8.95612 19.4645 11.1106 19.4645C13.265 19.4645 14.9995 17.7301 14.9995 15.5756C14.9995 13.4212 13.265 11.6867 11.1106 11.6867H9.16612V9.7423H11.1106H14.6106V7.79785H11.1106H9.16612H7.22168Z" fill="white"/>
<path d="M42.2221 66.1313V62.2424V60.2979H38.3332C37.256 60.2979 36.3888 59.4307 36.3888 58.3535C36.3888 57.2763 37.256 56.409 38.3332 56.409C39.4104 56.409 40.2777 57.2763 40.2777 58.3535H42.2221C42.2221 56.199 40.4877 54.4646 38.3332 54.4646C36.1788 54.4646 34.4443 56.199 34.4443 58.3535C34.4443 60.5079 36.1788 62.2424 38.3332 62.2424H40.2777V64.1868H38.3332H34.8332V66.1313H38.3332H40.2777H42.2221Z" fill="white"/>
</svg>
