<svg width="50" height="73" viewBox="0 0 50 73" fill="none" xmlns="http://www.w3.org/2000/svg">
<path d="M40.5554 1.9646H9.44428C5.14873 1.9646 1.6665 5.44683 1.6665 9.74238V64.1868C1.6665 68.4824 5.14873 71.9646 9.44428 71.9646H40.5554C44.8509 71.9646 48.3332 68.4824 48.3332 64.1868V9.74238C48.3332 5.44683 44.8509 1.9646 40.5554 1.9646Z" fill="white" stroke="black" stroke-width="2"/>
<path d="M40.5552 5.85352H9.44406C7.29629 5.85352 5.55518 7.59463 5.55518 9.7424V64.1869C5.55518 66.3346 7.29629 68.0757 9.44406 68.0757H40.5552C42.7029 68.0757 44.4441 66.3346 44.4441 64.1869V9.7424C44.4441 7.59463 42.7029 5.85352 40.5552 5.85352Z" fill="#FF5555"/>
<path fill-rule="evenodd" clip-rule="evenodd" d="M36.6663 17.5203C19.4841 17.5203 5.55518 31.4492 5.55518 48.6314C5.55518 52.9269 9.0374 56.4092 13.333 56.4092C30.5151 56.4092 44.4441 42.4802 44.4441 25.298C44.4441 21.0025 40.9618 17.5203 36.6663 17.5203Z" fill="white"/>
<path fill-rule="evenodd" clip-rule="evenodd" d="M24.9995 25.2981C20.7039 25.2981 17.2217 28.7803 17.2217 33.0759V40.8537C17.2217 45.1492 20.7039 48.6314 24.9995 48.6314C29.295 48.6314 32.7772 45.1492 32.7772 40.8537C32.7772 36.5581 29.295 33.0759 24.9995 33.0759C23.5862 33.0759 22.2527 33.4622 21.1106 34.121V33.0759C21.1106 30.9281 22.8517 29.187 24.9995 29.187C26.5194 29.187 27.8112 30.0791 28.4508 31.3502L31.9508 29.6002C30.6759 27.0457 28.0485 25.2981 24.9995 25.2981ZM24.9995 36.9648C27.1472 36.9648 28.8883 38.7059 28.8883 40.8537C28.8883 43.0014 27.1472 44.7425 24.9995 44.7425C22.8517 44.7425 21.1106 43.0014 21.1106 40.8537C21.1106 38.7059 22.8517 36.9648 24.9995 36.9648ZM21.1106 49.4092V50.9648H28.8883V49.4092H21.1106Z" fill="#FF5555"/>
<path fill-rule="evenodd" clip-rule="evenodd" d="M11.3889 7.79785C9.24111 7.79785 7.5 9.53897 7.5 11.6867V15.5756C7.5 17.7234 9.24111 19.4645 11.3889 19.4645C13.5367 19.4645 15.2778 17.7234 15.2778 15.5756C15.2778 13.4278 13.5367 11.6867 11.3889 11.6867C10.6823 11.6867 10.0155 11.8799 9.44444 12.2093V11.6867C9.44444 10.6129 10.315 9.7423 11.3889 9.7423C12.1489 9.7423 12.7948 10.1884 13.1146 10.8239L14.8646 9.94889C14.2271 8.67164 12.9134 7.79785 11.3889 7.79785ZM11.3889 13.6312C12.4628 13.6312 13.3333 14.5017 13.3333 15.5756C13.3333 16.6495 12.4628 17.5201 11.3889 17.5201C10.315 17.5201 9.44444 16.6495 9.44444 15.5756C9.44444 14.5017 10.315 13.6312 11.3889 13.6312Z" fill="white"/>
<path fill-rule="evenodd" clip-rule="evenodd" d="M38.6111 66.1313C40.7588 66.1313 42.4999 64.3901 42.4999 62.2424V58.3535C42.4999 56.2057 40.7588 54.4646 38.6111 54.4646C36.4633 54.4646 34.7222 56.2057 34.7222 58.3535C34.7222 60.5013 36.4633 62.2424 38.6111 62.2424C39.3177 62.2424 39.9844 62.0492 40.5555 61.7198V62.2424C40.5555 63.3162 39.6849 64.1868 38.6111 64.1868C37.8511 64.1868 37.2052 63.7407 36.8854 63.1052L35.1354 63.9802C35.7728 65.2575 37.0865 66.1313 38.6111 66.1313ZM38.6111 60.2979C37.5372 60.2979 36.6666 59.4274 36.6666 58.3535C36.6666 57.2796 37.5372 56.409 38.6111 56.409C39.6849 56.409 40.5555 57.2796 40.5555 58.3535C40.5555 59.4274 39.6849 60.2979 38.6111 60.2979Z" fill="white"/>
</svg>
