<svg width="50" height="73" viewBox="0 0 50 73" fill="none" xmlns="http://www.w3.org/2000/svg">
<path d="M40.8332 1.9646H9.72211C5.42657 1.9646 1.94434 5.44683 1.94434 9.74238V64.1868C1.94434 68.4824 5.42657 71.9646 9.72211 71.9646H40.8332C45.1288 71.9646 48.611 68.4824 48.611 64.1868V9.74238C48.611 5.44683 45.1288 1.9646 40.8332 1.9646Z" fill="white" stroke="black" stroke-width="2"/>
<path d="M40.833 5.85352H9.7219C7.57412 5.85352 5.83301 7.59463 5.83301 9.7424V64.1869C5.83301 66.3346 7.57412 68.0757 9.7219 68.0757H40.833C42.9808 68.0757 44.7219 66.3346 44.7219 64.1869V9.7424C44.7219 7.59463 42.9808 5.85352 40.833 5.85352Z" fill="#FF5555"/>
<path fill-rule="evenodd" clip-rule="evenodd" d="M36.9441 17.5203C19.7619 17.5203 5.83301 31.4492 5.83301 48.6314C5.83301 52.9269 9.31524 56.4092 13.6108 56.4092C30.793 56.4092 44.7219 42.4802 44.7219 25.298C44.7219 21.0025 41.2397 17.5203 36.9441 17.5203Z" fill="white"/>
<path fill-rule="evenodd" clip-rule="evenodd" d="M18.6665 25.2981V33.0759H22.5554V29.187H30.3332L22.5554 48.6314H26.4443L34.2221 29.187V25.2981H22.5554H18.6665Z" fill="#FF5555"/>
<path fill-rule="evenodd" clip-rule="evenodd" d="M7.77783 7.79785V11.6867H9.72228V9.7423H13.6112L9.72228 19.4645H11.6667L15.5556 9.7423V7.79785H9.72228H7.77783Z" fill="white"/>
<path fill-rule="evenodd" clip-rule="evenodd" d="M42.7778 66.1313V62.2424H40.8333V64.1868H36.9444L40.8333 54.4646H38.8889L35 64.1868V66.1313H40.8333H42.7778Z" fill="white"/>
</svg>
