<svg width="49" height="73" viewBox="0 0 49 73" fill="none" xmlns="http://www.w3.org/2000/svg">
<path d="M40.1111 1.9646H8.99995C4.7044 1.9646 1.22217 5.44683 1.22217 9.74238V64.1868C1.22217 68.4824 4.7044 71.9646 8.99995 71.9646H40.1111C44.4066 71.9646 47.8888 68.4824 47.8888 64.1868V9.74238C47.8888 5.44683 44.4066 1.9646 40.1111 1.9646Z" fill="white" stroke="black" stroke-width="2"/>
<path d="M40.1113 5.85352H9.00022C6.85244 5.85352 5.11133 7.59463 5.11133 9.7424V64.1869C5.11133 66.3346 6.85244 68.0757 9.00022 68.0757H40.1113C42.2591 68.0757 44.0002 66.3346 44.0002 64.1869V9.7424C44.0002 7.59463 42.2591 5.85352 40.1113 5.85352Z" fill="#FF5555"/>
<path fill-rule="evenodd" clip-rule="evenodd" d="M36.2224 17.5203C19.0402 17.5203 5.11133 31.4492 5.11133 48.6314C5.11133 52.9269 8.59356 56.4092 12.8891 56.4092C30.0713 56.4092 44.0002 42.4802 44.0002 25.298C44.0002 21.0025 40.518 17.5203 36.2224 17.5203Z" fill="white"/>
<path d="M24.5556 25.2981C21.3339 25.2981 18.7223 27.9097 18.7223 31.1314C18.7223 32.4526 19.1729 33.6535 19.9132 34.6314C18.0132 36.0469 16.7778 38.2917 16.7778 40.8537C16.7778 45.1625 20.2467 48.6314 24.5556 48.6314C28.8645 48.6314 32.3334 45.1625 32.3334 40.8537C32.3334 38.2917 31.098 36.0469 29.198 34.6314C29.9384 33.6535 30.3889 32.4526 30.3889 31.1314C30.3889 27.9097 27.7773 25.2981 24.5556 25.2981ZM24.5556 29.187C25.6295 29.187 26.5001 30.0576 26.5001 31.1314C26.5001 32.2053 25.6295 33.0759 24.5556 33.0759C23.4817 33.0759 22.6112 32.2053 22.6112 31.1314C22.6112 30.0576 23.4817 29.187 24.5556 29.187ZM24.1667 36.9648C24.2978 36.9515 24.421 36.9648 24.5556 36.9648C26.7101 36.9648 28.4445 38.6992 28.4445 40.8537C28.4445 43.0081 26.7101 44.7425 24.5556 44.7425C22.4012 44.7425 20.6667 43.0081 20.6667 40.8537C20.6667 38.8338 22.201 37.1632 24.1667 36.9648Z" fill="#FF5555"/>
<path d="M10.9446 7.79785C9.33372 7.79785 8.02789 9.10365 8.02789 10.7145C8.02789 11.3751 8.25317 11.9755 8.62337 12.4645C7.67335 13.1722 7.05566 14.2946 7.05566 15.5756C7.05566 17.7301 8.79011 19.4645 10.9446 19.4645C13.099 19.4645 14.8334 17.7301 14.8334 15.5756C14.8334 14.2946 14.2158 13.1722 13.2657 12.4645C13.6359 11.9755 13.8612 11.3751 13.8612 10.7145C13.8612 9.10365 12.5554 7.79785 10.9446 7.79785ZM10.9446 9.7423C11.4815 9.7423 11.9168 10.1776 11.9168 10.7145C11.9168 11.2514 11.4815 11.6867 10.9446 11.6867C10.4076 11.6867 9.97233 11.2514 9.97233 10.7145C9.97233 10.1776 10.4076 9.7423 10.9446 9.7423ZM10.7501 13.6312C10.8156 13.6242 10.8772 13.6312 10.9446 13.6312C12.0218 13.6312 12.889 14.4984 12.889 15.5756C12.889 16.6529 12.0218 17.5201 10.9446 17.5201C9.86733 17.5201 9.00011 16.6529 9.00011 15.5756C9.00011 14.5657 9.76723 13.7304 10.7501 13.6312Z" fill="white"/>
<path d="M38.1667 66.1313C36.5559 66.1313 35.2501 64.8255 35.2501 63.2146C35.2501 62.554 35.4753 61.9536 35.8455 61.4646C34.8955 60.7569 34.2778 59.6345 34.2778 58.3535C34.2778 56.199 36.0123 54.4646 38.1667 54.4646C40.3212 54.4646 42.0556 56.199 42.0556 58.3535C42.0556 59.6345 41.4379 60.7569 40.4879 61.4646C40.8581 61.9536 41.0834 62.554 41.0834 63.2146C41.0834 64.8255 39.7776 66.1313 38.1667 66.1313ZM38.1667 64.1868C38.7037 64.1868 39.1389 63.7515 39.1389 63.2146C39.1389 62.6777 38.7037 62.2424 38.1667 62.2424C37.6298 62.2424 37.1945 62.6777 37.1945 63.2146C37.1945 63.7515 37.6298 64.1868 38.1667 64.1868ZM37.9723 60.2979C38.0378 60.3049 38.0994 60.2979 38.1667 60.2979C39.2439 60.2979 40.1112 59.4307 40.1112 58.3535C40.1112 57.2763 39.2439 56.409 38.1667 56.409C37.0895 56.409 36.2223 57.2763 36.2223 58.3535C36.2223 59.3634 36.9894 60.1987 37.9723 60.2979Z" fill="white"/>
</svg>
