<svg width="50" height="73" viewBox="0 0 50 73" fill="none" xmlns="http://www.w3.org/2000/svg">
<path d="M40.3889 1.9646H9.27778C4.98223 1.9646 1.5 5.44683 1.5 9.74238V64.1868C1.5 68.4824 4.98223 71.9646 9.27778 71.9646H40.3889C44.6844 71.9646 48.1667 68.4824 48.1667 64.1868V9.74238C48.1667 5.44683 44.6844 1.9646 40.3889 1.9646Z" fill="white" stroke="black" stroke-width="2"/>
<path d="M40.3892 5.85352H9.27805C7.13027 5.85352 5.38916 7.59463 5.38916 9.7424V64.1869C5.38916 66.3346 7.13027 68.0757 9.27805 68.0757H40.3892C42.5369 68.0757 44.278 66.3346 44.278 64.1869V9.7424C44.278 7.59463 42.5369 5.85352 40.3892 5.85352Z" fill="#FF5555"/>
<path fill-rule="evenodd" clip-rule="evenodd" d="M36.5003 17.5203C19.3181 17.5203 5.38916 31.4492 5.38916 48.6314C5.38916 52.9269 8.87139 56.4092 13.1669 56.4092C30.3491 56.4092 44.278 42.4802 44.278 25.298C44.278 21.0025 40.7958 17.5203 36.5003 17.5203Z" fill="white"/>
<path fill-rule="evenodd" clip-rule="evenodd" d="M24.8334 25.2981C20.5379 25.2981 17.0557 28.7803 17.0557 33.0759C17.0557 37.3714 20.5379 40.8537 24.8334 40.8537C26.2467 40.8537 27.5802 40.4673 28.7223 39.8085V40.8537C28.7223 43.0014 26.9812 44.7425 24.8334 44.7425C23.3135 44.7425 22.0217 43.8504 21.3821 42.5793L17.8821 44.3293C19.157 46.8838 21.7844 48.6314 24.8334 48.6314C29.129 48.6314 32.6112 45.1492 32.6112 40.8537V33.0759C32.6112 28.7803 29.129 25.2981 24.8334 25.2981ZM24.8334 29.187C26.9812 29.187 28.7223 30.9281 28.7223 33.0759C28.7223 35.2236 26.9812 36.9648 24.8334 36.9648C22.6857 36.9648 20.9446 35.2236 20.9446 33.0759C20.9446 30.9281 22.6857 29.187 24.8334 29.187ZM20.9446 49.4092V50.9648H28.7223V49.4092H20.9446Z" fill="#FF5555"/>
<path fill-rule="evenodd" clip-rule="evenodd" d="M11.2224 19.4645C13.3702 19.4645 15.1113 17.7234 15.1113 15.5756V11.6867C15.1113 9.53896 13.3702 7.79785 11.2224 7.79785C9.07461 7.79785 7.3335 9.53896 7.3335 11.6867C7.3335 13.8345 9.07461 15.5756 11.2224 15.5756C11.929 15.5756 12.5958 15.3824 13.1668 15.0531V15.5756C13.1668 16.6495 12.2963 17.5201 11.2224 17.5201C10.4624 17.5201 9.8165 17.074 9.49669 16.4385L7.74669 17.3135C8.38417 18.5907 9.69785 19.4645 11.2224 19.4645ZM11.2224 13.6312C10.1485 13.6312 9.27794 12.7606 9.27794 11.6867C9.27794 10.6129 10.1485 9.7423 11.2224 9.7423C12.2963 9.7423 13.1668 10.6129 13.1668 11.6867C13.1668 12.7606 12.2963 13.6312 11.2224 13.6312Z" fill="white"/>
<path fill-rule="evenodd" clip-rule="evenodd" d="M38.4446 54.4646C36.2968 54.4646 34.5557 56.2057 34.5557 58.3535V62.2424C34.5557 64.3902 36.2968 66.1313 38.4446 66.1313C40.5923 66.1313 42.3334 64.3902 42.3334 62.2424C42.3334 60.0946 40.5923 58.3535 38.4446 58.3535C37.7379 58.3535 37.0712 58.5467 36.5001 58.8761V58.3535C36.5001 57.2796 37.3707 56.4091 38.4446 56.4091C39.2045 56.4091 39.8504 56.8551 40.1702 57.4906L41.9202 56.6156C41.2828 55.3384 39.9691 54.4646 38.4446 54.4646ZM38.4446 60.2979C39.5184 60.2979 40.389 61.1685 40.389 62.2424C40.389 63.3163 39.5184 64.1868 38.4446 64.1868C37.3707 64.1868 36.5001 63.3163 36.5001 62.2424C36.5001 61.1685 37.3707 60.2979 38.4446 60.2979Z" fill="white"/>
</svg>
