<svg width="49" height="73" viewBox="0 0 49 73" fill="none" xmlns="http://www.w3.org/2000/svg">
<path d="M40.2224 1.9646H9.11127C4.81573 1.9646 1.3335 5.44683 1.3335 9.74238V64.1868C1.3335 68.4824 4.81573 71.9646 9.11127 71.9646H40.2224C44.5179 71.9646 48.0002 68.4824 48.0002 64.1868V9.74238C48.0002 5.44683 44.5179 1.9646 40.2224 1.9646Z" fill="white" stroke="black" stroke-width="2"/>
<path d="M40.2222 5.85352H9.11106C6.96328 5.85352 5.22217 7.59463 5.22217 9.7424V64.1869C5.22217 66.3346 6.96328 68.0757 9.11106 68.0757H40.2222C42.3699 68.0757 44.1111 66.3346 44.1111 64.1869V9.7424C44.1111 7.59463 42.3699 5.85352 40.2222 5.85352Z" fill="#FF5555"/>
<path fill-rule="evenodd" clip-rule="evenodd" d="M36.3333 17.5203C19.1511 17.5203 5.22217 31.4492 5.22217 48.6314C5.22217 52.9269 8.7044 56.4092 12.9999 56.4092C30.1821 56.4092 44.1111 42.4802 44.1111 25.298C44.1111 21.0025 40.6288 17.5203 36.3333 17.5203Z" fill="white"/>
<path d="M27.167 31.1311H19.3893C18.3154 31.1311 17.2202 31.9172 16.9432 32.8869L12.9465 46.8753C12.6694 47.845 13.3154 48.6311 14.3892 48.6311H22.167C23.2409 48.6311 24.3361 47.845 24.6131 46.8753L28.6098 32.8869C28.8869 31.9172 28.2409 31.1311 27.167 31.1311Z" fill="white" stroke="black" stroke-width="2.03962"/>
<path d="M24.6668 33.0757H20.7779C19.7041 33.0757 18.6089 33.8618 18.3318 34.8315L15.4463 44.931C15.1692 45.9007 15.8152 46.6868 16.889 46.6868H20.7779C21.8518 46.6868 22.947 45.9007 23.224 44.931L26.1096 34.8315C26.3867 33.8618 25.7407 33.0757 24.6668 33.0757Z" fill="#FF5555"/>
<path d="M34.9444 25.2979H27.1666C26.0927 25.2979 24.9976 26.0839 24.7205 27.0536L20.7238 41.042C20.4468 42.0117 21.0927 42.7979 22.1666 42.7979H29.9444C31.0183 42.7979 32.1134 42.0117 32.3905 41.042L36.3872 27.0536C36.6642 26.0839 36.0183 25.2979 34.9444 25.2979Z" fill="white" stroke="black" stroke-width="2.03962"/>
<path d="M32.4447 27.2424H28.5558C27.4819 27.2424 26.3867 28.0285 26.1097 28.9982L23.2241 39.0977C22.947 40.0674 23.593 40.8535 24.6669 40.8535H28.5558C29.6296 40.8535 30.7248 40.0674 31.0019 39.0977L33.8874 28.9982C34.1645 28.0285 33.5185 27.2424 32.4447 27.2424Z" fill="#FF5555"/>
<path fill-rule="evenodd" clip-rule="evenodd" d="M7.94444 11.6868V13.6313H6V15.5757H7.94444V17.5201H9.88889V15.5757H11.8333V13.6313H9.88889V11.6868H7.94444Z" fill="white"/>
<path d="M16.8889 7.79785C14.7344 7.79785 13 9.5323 13 11.6867V12.0756H14.9444V11.6867C14.9444 10.6095 15.8117 9.7423 16.8889 9.7423C17.9661 9.7423 18.8333 10.6095 18.8333 11.6867C18.8333 12.1252 18.4695 12.9857 18.0896 13.2847C16.0266 14.9083 16.0484 14.6401 13 16.7423V19.4645H16.8889H20.7778V17.5201V16.7423H18.8333V17.5201H16.8889H15.3333C17.7406 15.825 17.9166 15.8661 19.8028 14.1781C20.4072 13.6372 20.7778 12.5638 20.7778 11.6867C20.7778 9.5323 19.0433 7.79785 16.8889 7.79785Z" fill="white"/>
<path fill-rule="evenodd" clip-rule="evenodd" d="M41.3889 62.2425V60.2981H43.3333V58.3537H41.3889V56.4092H39.4444V58.3537H37.5V60.2981H39.4444V62.2425H41.3889Z" fill="white"/>
<path d="M32.4446 66.1315C34.599 66.1315 36.3334 64.3971 36.3334 62.2426V61.8537H34.389V62.2426C34.389 63.3198 33.5218 64.1871 32.4446 64.1871C31.3673 64.1871 30.5001 63.3198 30.5001 62.2426C30.5001 61.8042 30.8639 60.9437 31.2438 60.6447C33.3068 59.0211 33.285 59.2892 36.3334 57.1871V54.4648H32.4446H28.5557V56.4093V57.1871H30.5001V56.4093H32.4446H34.0001C31.5929 58.1044 31.4169 58.0633 29.5306 59.7513C28.9262 60.2922 28.5557 61.3656 28.5557 62.2426C28.5557 64.3971 30.2901 66.1315 32.4446 66.1315Z" fill="white"/>
</svg>
