<svg width="49" height="73" viewBox="0 0 49 73" fill="none" xmlns="http://www.w3.org/2000/svg">
<path d="M39.9446 1.9646H8.83344C4.53789 1.9646 1.05566 5.44683 1.05566 9.74238V64.1868C1.05566 68.4824 4.53789 71.9646 8.83344 71.9646H39.9446C44.2401 71.9646 47.7223 68.4824 47.7223 64.1868V9.74238C47.7223 5.44683 44.2401 1.9646 39.9446 1.9646Z" fill="white" stroke="black" stroke-width="2"/>
<path d="M39.9443 5.85352H8.83322C6.68545 5.85352 4.94434 7.59463 4.94434 9.7424V64.1869C4.94434 66.3346 6.68545 68.0757 8.83322 68.0757H39.9443C42.0921 68.0757 43.8332 66.3346 43.8332 64.1869V9.7424C43.8332 7.59463 42.0921 5.85352 39.9443 5.85352Z" fill="#FF5555"/>
<path fill-rule="evenodd" clip-rule="evenodd" d="M36.0554 17.5203C18.8733 17.5203 4.94434 31.4492 4.94434 48.6314C4.94434 52.9269 8.42656 56.4092 12.7221 56.4092C29.9043 56.4092 43.8332 42.4802 43.8332 25.298C43.8332 21.0025 40.351 17.5203 36.0554 17.5203Z" fill="white"/>
<path d="M24.3888 24.3257L26.3333 26.2701L18.5555 34.0479C16.6111 35.9924 16.6111 39.8812 18.5555 41.8257L22.4444 37.9368L30.2222 30.159L32.1666 32.1035V24.3257H24.3888Z" fill="#FF5555"/>
<path d="M24.3891 49.6035L22.4447 47.6591L30.2224 39.8813C32.1669 37.9368 32.1669 34.048 30.2224 32.1035L26.3336 35.9924L18.5558 43.7702L16.6113 41.8257V49.6035H24.3891Z" fill="#FF5555"/>
<path d="M10.7777 7.79785L11.7499 8.77007L7.861 12.659C6.88878 13.6312 6.88878 15.5756 7.861 16.5479L9.80545 14.6034L13.6943 10.7145L14.6666 11.6867V7.79785H10.7777Z" fill="white"/>
<path d="M10.778 20.4368L9.80583 19.4645L13.6947 15.5757C14.6669 14.6034 14.6669 12.659 13.6947 11.6868L11.7503 13.6312L7.86138 17.5201L6.88916 16.5479V20.4368H10.778Z" fill="white"/>
<path d="M37.9998 53.4924L38.9721 54.4647L35.0832 58.3535C34.1109 59.3258 34.1109 61.2702 35.0832 62.2424L37.0276 60.298L40.9165 56.4091L41.8887 57.3813V53.4924H37.9998Z" fill="white"/>
<path d="M38.0002 66.1313L37.028 65.1591L40.9169 61.2702C41.8891 60.298 41.8891 58.3536 40.9169 57.3813L38.9724 59.3258L35.0836 63.2147L34.1113 62.2425V66.1313H38.0002Z" fill="white"/>
</svg>
