<svg width="50" height="73" viewBox="0 0 50 73" fill="none" xmlns="http://www.w3.org/2000/svg">
<path d="M40.6667 1.9646H9.55561C5.26006 1.9646 1.77783 5.44683 1.77783 9.74238V64.1868C1.77783 68.4824 5.26006 71.9646 9.55561 71.9646H40.6667C44.9623 71.9646 48.4445 68.4824 48.4445 64.1868V9.74238C48.4445 5.44683 44.9623 1.9646 40.6667 1.9646Z" fill="white" stroke="black" stroke-width="2"/>
<path d="M40.6665 5.85352H9.55539C7.40762 5.85352 5.6665 7.59463 5.6665 9.7424V64.1869C5.6665 66.3346 7.40762 68.0757 9.55539 68.0757H40.6665C42.8143 68.0757 44.5554 66.3346 44.5554 64.1869V9.7424C44.5554 7.59463 42.8143 5.85352 40.6665 5.85352Z" fill="#FF5555"/>
<path fill-rule="evenodd" clip-rule="evenodd" d="M36.7776 17.5203C19.5954 17.5203 5.6665 31.4492 5.6665 48.6314C5.6665 52.9269 9.14873 56.4092 13.4443 56.4092C30.6265 56.4092 44.5554 42.4802 44.5554 25.298C44.5554 21.0025 41.0732 17.5203 36.7776 17.5203Z" fill="white"/>
<path fill-rule="evenodd" clip-rule="evenodd" d="M25.1355 25.2981C22.1497 25.2943 19.1526 26.4259 16.8716 28.7009C12.3096 33.2511 12.2972 40.6423 16.8474 45.2044C21.3975 49.7664 28.7888 49.7788 33.3508 45.2287C37.9129 40.6785 37.9253 33.2872 33.3751 28.7252C31.1 26.4442 28.1213 25.302 25.1355 25.2981V25.2981ZM25.1112 29.187C26.4723 29.1886 27.8395 29.5449 29.0487 30.2565L18.4029 40.9023C16.6449 37.9173 17.0521 34.0069 19.6182 31.4474C21.1389 29.9307 23.1207 29.1844 25.1112 29.187ZM31.8196 33.003C33.5898 35.9902 33.1756 39.9176 30.6043 42.4822C28.0355 45.0442 24.1309 45.4208 21.1494 43.6488L31.8196 33.003Z" fill="#FF5555"/>
<path fill-rule="evenodd" clip-rule="evenodd" d="M13.4568 7.79788C11.9642 7.79554 10.4659 8.36167 9.32563 9.4991C7.04504 11.774 7.03882 15.4693 9.31347 17.7501C11.5881 20.0309 15.2831 20.0371 17.5637 17.7622C19.8443 15.4873 19.8505 11.7921 17.5758 9.51125C16.4385 8.37083 14.9494 7.7998 13.4568 7.79785V7.79788ZM13.4447 9.74213C14.125 9.7429 14.8085 9.92104 15.413 10.2768L10.0911 15.5992C9.21224 14.1069 9.41578 12.1519 10.6986 10.8722C11.4588 10.1139 12.4496 9.74082 13.4447 9.74213ZM16.7982 11.6499C17.6831 13.1434 17.4761 15.1069 16.1907 16.3891C14.9065 17.67 12.9546 17.8583 11.4641 16.9724L16.7982 11.6499Z" fill="white"/>
<path fill-rule="evenodd" clip-rule="evenodd" d="M36.7898 54.4646C35.2972 54.4623 33.7989 55.0284 32.6586 56.1658C30.378 58.4407 30.3718 62.136 32.6465 64.4168C34.9211 66.6976 38.6161 66.7038 40.8967 64.429C43.1773 62.1541 43.1835 58.4588 40.9088 56.178C39.7715 55.0376 38.2824 54.4666 36.7898 54.4646V54.4646ZM36.7777 56.4089C37.458 56.4096 38.1415 56.5878 38.746 56.9436L33.4241 62.266C32.5452 60.7736 32.7488 58.8186 34.0316 57.539C34.7918 56.7807 35.7826 56.4076 36.7777 56.4089ZM40.1312 58.3167C41.0161 59.8102 40.8091 61.7737 39.5237 63.0558C38.2395 64.3368 36.2876 64.525 34.7971 63.6391L40.1312 58.3167Z" fill="white"/>
</svg>
